Athiti-300.ufo
<glyph name="quotedbl" format="1">
  <advance width="339"/>
  <unicode hex="0022"/>
  <note>
	quotedbl
  </note>
  <outline>
    <contour>
      <point x="210" y="423" type="line"/>
      <point x="218" y="551" type="line" smooth="yes"/>
      <point x="219" y="570"/>
      <point x="219" y="590"/>
      <point x="216" y="612" type="curve"/>
      <point x="178" y="612" type="line"/>
      <point x="175" y="590"/>
      <point x="175" y="570"/>
      <point x="176" y="551" type="curve" smooth="yes"/>
      <point x="184" y="423" type="line"/>
    </contour>
    <contour>
      <point x="155" y="423" type="line"/>
      <point x="163" y="551" type="line" smooth="yes"/>
      <point x="164" y="570"/>
      <point x="164" y="590"/>
      <point x="161" y="612" type="curve"/>
      <point x="123" y="612" type="line"/>
      <point x="120" y="590"/>
      <point x="120" y="570"/>
      <point x="121" y="551" type="curve" smooth="yes"/>
      <point x="129" y="423" type="line"/>
    </contour>
  </outline>
</glyph>
<glyph name="numbersign" format="1">
  <advance width="706"/>
  <unicode hex="0023"/>
  <note>
	numbersign
  </note>
  <outline>
    <contour>
      <point x="245" y="188" type="line"/>
      <point x="419" y="188" type="line"/>
      <point x="394" y="-1" type="line"/>
      <point x="441" y="-4" type="line"/>
      <point x="467" y="188" type="line"/>
      <point x="583" y="188" type="line"/>
      <point x="583" y="232" type="line"/>
      <point x="473" y="232" type="line"/>
      <point x="496" y="397" type="line"/>
      <point x="608" y="397" type="line"/>
      <point x="608" y="440" type="line"/>
      <point x="501" y="440" type="line"/>
      <point x="525" y="624" type="line"/>
      <point x="480" y="626" type="line"/>
      <point x="454" y="440" type="line"/>
      <point x="280" y="440" type="line"/>
      <point x="305" y="624" type="line"/>
      <point x="258" y="626" type="line"/>
      <point x="232" y="440" type="line"/>
      <point x="114" y="440" type="line"/>
      <point x="114" y="397" type="line"/>
      <point x="227" y="397" type="line"/>
      <point x="204" y="232" type="line"/>
      <point x="89" y="232" type="line"/>
      <point x="89" y="188" type="line"/>
      <point x="198" y="188" type="line"/>
      <point x="172" y="-1" type="line"/>
      <point x="219" y="-4" type="line"/>
    </contour>
    <contour>
      <point x="274" y="397" type="line"/>
      <point x="449" y="397" type="line"/>
      <point x="426" y="232" type="line"/>
      <point x="251" y="232" type="line"/>
    </contour>
  </outline>
</glyph>
<glyph name="percent" format="1">
  <advance width="791"/>
  <unicode hex="0025"/>
  <note>
	percent
  </note>
  <outline>
    <contour>
      <point x="599" y="595" type="line"/>
      <point x="564" y="608" type="line"/>
      <point x="196" y="9" type="line"/>
      <point x="229" y="-7" type="line"/>
    </contour>
    <contour>
      <point x="289" y="308"/>
      <point x="327" y="369"/>
      <point x="327" y="459" type="curve" smooth="yes"/>
      <point x="327" y="553"/>
      <point x="292" y="602"/>
      <point x="216" y="602" type="curve" smooth="yes"/>
      <point x="133" y="602"/>
      <point x="99" y="541"/>
      <point x="99" y="452" type="curve" smooth="yes"/>
      <point x="99" y="354"/>
      <point x="137" y="308"/>
      <point x="206" y="308" type="curve" smooth="yes"/>
    </contour>
    <contour>
      <point x="154" y="344"/>
      <point x="138" y="377"/>
      <point x="138" y="459" type="curve" smooth="yes"/>
      <point x="138" y="494"/>
      <point x="143" y="523"/>
      <point x="152" y="557" type="curve"/>
      <point x="171" y="563"/>
      <point x="187" y="566"/>
      <point x="212" y="566" type="curve" smooth="yes"/>
      <point x="273" y="566"/>
      <point x="287" y="531"/>
      <point x="287" y="452" type="curve" smooth="yes"/>
      <point x="287" y="416"/>
      <point x="283" y="387"/>
      <point x="273" y="355" type="curve"/>
      <point x="254" y="347"/>
      <point x="234" y="344"/>
      <point x="210" y="344" type="curve" smooth="yes"/>
    </contour>
    <contour>
      <point x="654" y="-8"/>
      <point x="692" y="53"/>
      <point x="692" y="143" type="curve" smooth="yes"/>
      <point x="692" y="237"/>
      <point x="657" y="286"/>
      <point x="581" y="286" type="curve" smooth="yes"/>
      <point x="498" y="286"/>
      <point x="464" y="225"/>
      <point x="464" y="136" type="curve" smooth="yes"/>
      <point x="464" y="38"/>
      <point x="502" y="-8"/>
      <point x="571" y="-8" type="curve" smooth="yes"/>
    </contour>
    <contour>
      <point x="519" y="28"/>
      <point x="503" y="61"/>
      <point x="503" y="143" type="curve" smooth="yes"/>
      <point x="503" y="178"/>
      <point x="508" y="207"/>
      <point x="517" y="241" type="curve"/>
      <point x="536" y="247"/>
      <point x="552" y="250"/>
      <point x="577" y="250" type="curve" smooth="yes"/>
      <point x="638" y="250"/>
      <point x="652" y="215"/>
      <point x="652" y="136" type="curve" smooth="yes"/>
      <point x="652" y="100"/>
      <point x="648" y="71"/>
      <point x="638" y="39" type="curve"/>
      <point x="619" y="31"/>
      <point x="599" y="28"/>
      <point x="575" y="28" type="curve" smooth="yes"/>
    </contour>
  </outline>
</glyph>
<glyph name="ampersand" format="1">
  <advance width="702"/>
  <unicode hex="0026"/>
  <note>
	ampersand
  </note>
  <outline>
    <contour>
      <point x="378" y="-7"/>
      <point x="416" y="1"/>
      <point x="452" y="16" type="curve"/>
      <point x="464" y="37"/>
      <point x="476" y="68"/>
      <point x="484" y="96" type="curve"/>
      <point x="490" y="96" type="line"/>
      <point x="589" y="-5" type="line"/>
      <point x="624" y="19" type="line"/>
      <point x="498" y="146" type="line"/>
      <point x="515" y="196"/>
      <point x="524" y="241"/>
      <point x="534" y="302" type="curve"/>
      <point x="488" y="313" type="line"/>
      <point x="481" y="264"/>
      <point x="475" y="222"/>
      <point x="460" y="174" type="curve"/>
      <point x="281" y="348" type="line" smooth="yes"/>
      <point x="237" y="391"/>
      <point x="222" y="413"/>
      <point x="222" y="468" type="curve" smooth="yes"/>
      <point x="222" y="529"/>
      <point x="259" y="559"/>
      <point x="337" y="559" type="curve" smooth="yes"/>
      <point x="381" y="559"/>
      <point x="414" y="552"/>
      <point x="445" y="537" type="curve"/>
      <point x="453" y="456" type="line"/>
      <point x="481" y="456" type="line"/>
      <point x="488" y="476"/>
      <point x="491" y="502"/>
      <point x="491" y="520" type="curve" smooth="yes"/>
      <point x="491" y="546" type="line"/>
      <point x="463" y="576"/>
      <point x="411" y="602"/>
      <point x="337" y="602" type="curve" smooth="yes"/>
      <point x="235" y="602"/>
      <point x="175" y="555"/>
      <point x="175" y="467" type="curve" smooth="yes"/>
      <point x="175" y="415"/>
      <point x="196" y="379"/>
      <point x="233" y="343" type="curve"/>
      <point x="233" y="337" type="line"/>
      <point x="145" y="302"/>
      <point x="97" y="255"/>
      <point x="97" y="159" type="curve" smooth="yes"/>
      <point x="97" y="48"/>
      <point x="181" y="-7"/>
      <point x="303" y="-7" type="curve" smooth="yes"/>
    </contour>
    <contour>
      <point x="211" y="36"/>
      <point x="143" y="72"/>
      <point x="143" y="159" type="curve" smooth="yes"/>
      <point x="143" y="239"/>
      <point x="186" y="283"/>
      <point x="262" y="307" type="curve"/>
      <point x="446" y="131" type="line"/>
      <point x="440" y="103"/>
      <point x="429" y="69"/>
      <point x="416" y="49" type="curve"/>
      <point x="385" y="39"/>
      <point x="360" y="36"/>
      <point x="305" y="36" type="curve" smooth="yes"/>
    </contour>
  </outline>
</glyph>
<glyph name="parenleft" format="1">
  <advance width="341"/>
  <unicode hex="0028"/>
  <note>
	parenleft
  </note>
  <outline>
    <contour>
      <point x="200" y="-97"/>
      <point x="222" y="-96"/>
      <point x="240" y="-93" type="curve"/>
      <point x="240" y="-51" type="line"/>
      <point x="152" y="-51" type="line"/>
      <point x="152" y="662" type="line"/>
      <point x="240" y="662" type="line"/>
      <point x="240" y="705" type="line"/>
      <point x="222" y="707"/>
      <point x="200" y="709"/>
      <point x="178" y="709" type="curve"/>
      <point x="140" y="696"/>
      <point x="109" y="669"/>
      <point x="104" y="637" type="curve"/>
      <point x="104" y="-26" type="line"/>
      <point x="109" y="-57"/>
      <point x="140" y="-84"/>
      <point x="178" y="-97" type="curve"/>
    </contour>
  </outline>
</glyph>
<glyph name="parenright" format="1">
  <advance width="341"/>
  <unicode hex="0029"/>
  <note>
	parenright
  </note>
  <outline>
    <contour>
      <point x="201" y="-84"/>
      <point x="232" y="-57"/>
      <point x="237" y="-26" type="curve"/>
      <point x="237" y="637" type="line"/>
      <point x="232" y="669"/>
      <point x="201" y="696"/>
      <point x="164" y="709" type="curve"/>
      <point x="141" y="709"/>
      <point x="120" y="707"/>
      <point x="101" y="705" type="curve"/>
      <point x="101" y="662" type="line"/>
      <point x="189" y="662" type="line"/>
      <point x="189" y="-51" type="line"/>
      <point x="101" y="-51" type="line"/>
      <point x="101" y="-93" type="line"/>
      <point x="120" y="-96"/>
      <point x="141" y="-97"/>
      <point x="164" y="-97" type="curve"/>
    </contour>
  </outline>
</glyph>
<glyph name="period" format="1">
  <advance width="237"/>
  <unicode hex="002E"/>
  <note>
	period
  </note>
  <outline>
    <contour>
      <point x="152" y="0" type="line"/>
      <point x="152" y="67" type="line"/>
      <point x="86" y="67" type="line"/>
      <point x="86" y="0" type="line"/>
    </contour>
  </outline>
</glyph>
<glyph name="slash" format="1">
  <advance width="477"/>
  <unicode hex="002F"/>
  <note>
	slash
  </note>
  <outline>
    <contour>
      <point x="391" y="649" type="line"/>
      <point x="349" y="659" type="line"/>
      <point x="87" y="-81" type="line"/>
      <point x="130" y="-91" type="line"/>
    </contour>
  </outline>
</glyph>
<glyph name="one" format="1">
  <advance width="384"/>
  <unicode hex="0031"/>
  <note>
	one
  </note>
  <outline>
    <contour>
      <point x="267" y="0" type="line"/>
      <point x="267" y="562" type="line" smooth="yes"/>
      <point x="267" y="577"/>
      <point x="239" y="599"/>
      <point x="212" y="602" type="curve"/>
      <point x="69" y="530" type="line"/>
      <point x="82" y="497" type="line"/>
      <point x="210" y="548" type="line"/>
      <point x="220" y="541" type="line"/>
      <point x="220" y="0" type="line"/>
    </contour>
  </outline>
</glyph>
<glyph name="two" format="1">
  <advance width="571"/>
  <unicode hex="0032"/>
  <note>
	two
  </note>
  <outline>
    <contour>
      <point x="484" y="0" type="line"/>
      <point x="484" y="34" type="line" smooth="yes"/>
      <point x="484" y="60"/>
      <point x="480" y="92"/>
      <point x="471" y="117" type="curve"/>
      <point x="437" y="117" type="line"/>
      <point x="437" y="42" type="line"/>
      <point x="138" y="42" type="line"/>
      <point x="138" y="50" type="line"/>
      <point x="305" y="160"/>
      <point x="460" y="286"/>
      <point x="460" y="444" type="curve" smooth="yes"/>
      <point x="460" y="548"/>
      <point x="407" y="602"/>
      <point x="288" y="602" type="curve" smooth="yes"/>
      <point x="213" y="602"/>
      <point x="160" y="586"/>
      <point x="102" y="560" type="curve"/>
      <point x="102" y="529" type="line" smooth="yes"/>
      <point x="102" y="494"/>
      <point x="108" y="467"/>
      <point x="116" y="441" type="curve"/>
      <point x="149" y="441" type="line"/>
      <point x="149" y="536" type="line"/>
      <point x="197" y="552"/>
      <point x="238" y="558"/>
      <point x="283" y="558" type="curve" smooth="yes"/>
      <point x="374" y="558"/>
      <point x="413" y="528"/>
      <point x="413" y="439" type="curve" smooth="yes"/>
      <point x="413" y="312"/>
      <point x="265" y="187"/>
      <point x="82" y="62" type="curve"/>
      <point x="82" y="0" type="line"/>
    </contour>
  </outline>
</glyph>
<glyph name="three" format="1">
  <advance width="535"/>
  <unicode hex="0033"/>
  <note>
	three
  </note>
  <outline>
    <contour>
      <point x="405" y="-6"/>
      <point x="443" y="66"/>
      <point x="443" y="155" type="curve" smooth="yes"/>
      <point x="443" y="224"/>
      <point x="424" y="268"/>
      <point x="345" y="295" type="curve"/>
      <point x="345" y="301" type="line"/>
      <point x="407" y="329"/>
      <point x="436" y="369"/>
      <point x="436" y="441" type="curve" smooth="yes"/>
      <point x="436" y="543"/>
      <point x="384" y="602"/>
      <point x="264" y="602" type="curve" smooth="yes"/>
      <point x="190" y="602"/>
      <point x="138" y="588"/>
      <point x="78" y="566" type="curve"/>
      <point x="78" y="532" type="line" smooth="yes"/>
      <point x="78" y="505"/>
      <point x="84" y="478"/>
      <point x="92" y="454" type="curve"/>
      <point x="125" y="454" type="line"/>
      <point x="125" y="542" type="line"/>
      <point x="173" y="553"/>
      <point x="211" y="558"/>
      <point x="258" y="558" type="curve" smooth="yes"/>
      <point x="345" y="558"/>
      <point x="390" y="520"/>
      <point x="390" y="436" type="curve" smooth="yes"/>
      <point x="390" y="362"/>
      <point x="347" y="318"/>
      <point x="254" y="318" type="curve" smooth="yes"/>
      <point x="170" y="318" type="line"/>
      <point x="170" y="275" type="line"/>
      <point x="254" y="275" type="line" smooth="yes"/>
      <point x="359" y="275"/>
      <point x="397" y="235"/>
      <point x="397" y="155" type="curve" smooth="yes"/>
      <point x="397" y="115"/>
      <point x="390" y="78"/>
      <point x="371" y="50" type="curve"/>
      <point x="331" y="42"/>
      <point x="301" y="38"/>
      <point x="251" y="38" type="curve" smooth="yes"/>
      <point x="193" y="38"/>
      <point x="135" y="45"/>
      <point x="83" y="59" type="curve"/>
      <point x="75" y="17" type="line"/>
      <point x="130" y="3"/>
      <point x="189" y="-6"/>
      <point x="250" y="-6" type="curve" smooth="yes"/>
    </contour>
  </outline>
</glyph>
<glyph name="six" format="1">
  <advance width="532"/>
  <unicode hex="0036"/>
  <note>
	six
  </note>
  <outline>
    <contour>
      <point x="433" y="0"/>
      <point x="470" y="94"/>
      <point x="470" y="185" type="curve" smooth="yes"/>
      <point x="470" y="299"/>
      <point x="412" y="356"/>
      <point x="303" y="356" type="curve" smooth="yes"/>
      <point x="242" y="356"/>
      <point x="185" y="337"/>
      <point x="135" y="308" type="curve"/>
      <point x="163" y="425"/>
      <point x="228" y="497"/>
      <point x="346" y="577" type="curve"/>
      <point x="305" y="599" type="line"/>
      <point x="172" y="509"/>
      <point x="83" y="400"/>
      <point x="83" y="231" type="curve" smooth="yes"/>
      <point x="83" y="88"/>
      <point x="148" y="0"/>
      <point x="282" y="0" type="curve" smooth="yes"/>
    </contour>
    <contour>
      <point x="181" y="44"/>
      <point x="129" y="102"/>
      <point x="129" y="231" type="curve" smooth="yes"/>
      <point x="129" y="242"/>
      <point x="129" y="253"/>
      <point x="130" y="265" type="curve"/>
      <point x="184" y="297"/>
      <point x="236" y="313"/>
      <point x="292" y="313" type="curve" smooth="yes"/>
      <point x="384" y="313"/>
      <point x="422" y="274"/>
      <point x="422" y="185" type="curve" smooth="yes"/>
      <point x="422" y="138"/>
      <point x="414" y="96"/>
      <point x="397" y="59" type="curve"/>
      <point x="362" y="48"/>
      <point x="333" y="44"/>
      <point x="285" y="44" type="curve" smooth="yes"/>
    </contour>
  </outline>
</glyph>
<glyph name="eight" format="1">
  <advance width="578"/>
  <unicode hex="0038"/>
  <note>
	eight
  </note>
  <outline>
    <contour>
      <point x="441" y="-5"/>
      <point x="490" y="55"/>
      <point x="490" y="157" type="curve" smooth="yes"/>
      <point x="490" y="220"/>
      <point x="469" y="260"/>
      <point x="408" y="297" type="curve"/>
      <point x="408" y="303" type="line"/>
      <point x="453" y="333"/>
      <point x="477" y="371"/>
      <point x="477" y="434" type="curve" smooth="yes"/>
      <point x="477" y="540"/>
      <point x="420" y="602"/>
      <point x="307" y="602" type="curve" smooth="yes"/>
      <point x="168" y="602"/>
      <point x="104" y="537"/>
      <point x="104" y="438" type="curve" smooth="yes"/>
      <point x="104" y="377"/>
      <point x="131" y="345"/>
      <point x="174" y="317" type="curve"/>
      <point x="174" y="310" type="line"/>
      <point x="123" y="274"/>
      <point x="89" y="240"/>
      <point x="89" y="160" type="curve" smooth="yes"/>
      <point x="89" y="54"/>
      <point x="155" y="-5"/>
      <point x="289" y="-5" type="curve" smooth="yes"/>
    </contour>
    <contour>
      <point x="185" y="38"/>
      <point x="135" y="69"/>
      <point x="135" y="162" type="curve" smooth="yes"/>
      <point x="135" y="209"/>
      <point x="145" y="245"/>
      <point x="176" y="276" type="curve"/>
      <point x="212" y="283"/>
      <point x="246" y="285"/>
      <point x="288" y="285" type="curve" smooth="yes"/>
      <point x="404" y="285"/>
      <point x="443" y="248"/>
      <point x="443" y="146" type="curve" smooth="yes"/>
      <point x="443" y="117"/>
      <point x="438" y="87"/>
      <point x="428" y="61" type="curve"/>
      <point x="396" y="47"/>
      <point x="356" y="38"/>
      <point x="306" y="38" type="curve" smooth="yes"/>
    </contour>
    <contour>
      <point x="207" y="323"/>
      <point x="150" y="349"/>
      <point x="150" y="444" type="curve" smooth="yes"/>
      <point x="150" y="478"/>
      <point x="156" y="505"/>
      <point x="171" y="540" type="curve"/>
      <point x="207" y="552"/>
      <point x="250" y="559"/>
      <point x="289" y="559" type="curve" smooth="yes"/>
      <point x="391" y="559"/>
      <point x="431" y="526"/>
      <point x="431" y="424" type="curve" smooth="yes"/>
      <point x="431" y="394"/>
      <point x="427" y="368"/>
      <point x="416" y="339" type="curve"/>
      <point x="386" y="328"/>
      <point x="357" y="323"/>
      <point x="312" y="323" type="curve" smooth="yes"/>
    </contour>
  </outline>
</glyph>
<glyph name="colon" format="1">
  <advance width="237"/>
  <unicode hex="003A"/>
  <note>
	colon
  </note>
  <outline>
    <contour>
      <point x="152" y="351" type="line"/>
      <point x="152" y="418" type="line"/>
      <point x="86" y="418" type="line"/>
      <point x="86" y="351" type="line"/>
    </contour>
    <contour>
      <point x="152" y="16" type="line"/>
      <point x="152" y="83" type="line"/>
      <point x="86" y="83" type="line"/>
      <point x="86" y="16" type="line"/>
    </contour>
  </outline>
</glyph>
<glyph name="equal" format="1">
  <advance width="582"/>
  <unicode hex="003D"/>
  <note>
	equal
  </note>
  <outline>
    <contour>
      <point x="483" y="324" type="line"/>
      <point x="483" y="366" type="line"/>
      <point x="99" y="366" type="line"/>
      <point x="99" y="324" type="line"/>
    </contour>
    <contour>
      <point x="483" y="125" type="line"/>
      <point x="483" y="167" type="line"/>
      <point x="99" y="167" type="line"/>
      <point x="99" y="125" type="line"/>
    </contour>
  </outline>
</glyph>
<glyph name="greater" format="1">
  <advance width="601"/>
  <unicode hex="003E"/>
  <note>
	greater
  </note>
  <outline>
    <contour>
      <point x="518" y="224" type="line"/>
      <point x="518" y="272" type="line"/>
      <point x="117" y="462" type="line"/>
      <point x="104" y="415" type="line"/>
      <point x="467" y="251" type="line"/>
      <point x="467" y="245" type="line"/>
      <point x="104" y="82" type="line"/>
      <point x="117" y="35" type="line"/>
    </contour>
  </outline>
</glyph>
<glyph name="question" format="1">
  <advance width="545"/>
  <unicode hex="003F"/>
  <note>
	question
  </note>
  <outline>
    <contour>
      <point x="266" y="154" type="line"/>
      <point x="266" y="211" type="line" smooth="yes"/>
      <point x="266" y="237"/>
      <point x="268" y="243"/>
      <point x="287" y="258" type="curve" smooth="yes"/>
      <point x="399" y="341" type="line" smooth="yes"/>
      <point x="443" y="374"/>
      <point x="452" y="409"/>
      <point x="452" y="465" type="curve" smooth="yes"/>
      <point x="452" y="570"/>
      <point x="403" y="623"/>
      <point x="278" y="623" type="curve" smooth="yes"/>
      <point x="200" y="623"/>
      <point x="126" y="603"/>
      <point x="89" y="585" type="curve"/>
      <point x="89" y="559" type="line" smooth="yes"/>
      <point x="89" y="533"/>
      <point x="94" y="507"/>
      <point x="102" y="484" type="curve"/>
      <point x="135" y="484" type="line"/>
      <point x="135" y="561" type="line"/>
      <point x="177" y="573"/>
      <point x="227" y="579"/>
      <point x="276" y="579" type="curve" smooth="yes"/>
      <point x="367" y="579"/>
      <point x="405" y="548"/>
      <point x="405" y="469" type="curve" smooth="yes"/>
      <point x="405" y="397" type="line"/>
      <point x="247" y="278" type="line" smooth="yes"/>
      <point x="226" y="262"/>
      <point x="219" y="248"/>
      <point x="219" y="220" type="curve" smooth="yes"/>
      <point x="219" y="154" type="line"/>
    </contour>
    <contour>
      <point x="267" y="0" type="line"/>
      <point x="267" y="79" type="line"/>
      <point x="217" y="79" type="line"/>
      <point x="217" y="0" type="line"/>
    </contour>
  </outline>
</glyph>
<glyph name="B" format="1">
  <advance width="528"/>
  <unicode hex="0042"/>
  <note>
	B
  </note>
  <outline>
    <contour>
      <point x="245" y="0" type="line" smooth="yes"/>
      <point x="425" y="0"/>
      <point x="474" y="65"/>
      <point x="474" y="170" type="curve" smooth="yes"/>
      <point x="474" y="237"/>
      <point x="437" y="284"/>
      <point x="362" y="309" type="curve"/>
      <point x="362" y="313" type="line"/>
      <point x="416" y="348"/>
      <point x="444" y="396"/>
      <point x="444" y="457" type="curve" smooth="yes"/>
      <point x="444" y="561"/>
      <point x="382" y="622"/>
      <point x="241" y="622" type="curve" smooth="yes"/>
      <point x="196" y="622"/>
      <point x="139" y="615"/>
      <point x="86" y="601" type="curve"/>
      <point x="86" y="0" type="line"/>
    </contour>
    <contour>
      <point x="132" y="289" type="line"/>
      <point x="277" y="289" type="line" smooth="yes"/>
      <point x="376" y="289"/>
      <point x="427" y="237"/>
      <point x="427" y="168" type="curve" smooth="yes"/>
      <point x="427" y="88"/>
      <point x="395" y="43"/>
      <point x="240" y="43" type="curve" smooth="yes"/>
      <point x="132" y="43" type="line"/>
    </contour>
    <contour>
      <point x="132" y="567" type="line"/>
      <point x="165" y="574"/>
      <point x="203" y="578"/>
      <point x="237" y="578" type="curve" smooth="yes"/>
      <point x="342" y="578"/>
      <point x="397" y="542"/>
      <point x="397" y="456" type="curve" smooth="yes"/>
      <point x="397" y="405"/>
      <point x="379" y="367"/>
      <point x="338" y="333" type="curve"/>
      <point x="132" y="333" type="line"/>
    </contour>
  </outline>
</glyph>
<glyph name="F" format="1">
  <advance width="490"/>
  <unicode hex="0046"/>
  <note>
	F
  </note>
  <outline>
    <contour>
      <point x="133" y="0" type="line"/>
      <point x="133" y="288" type="line"/>
      <point x="399" y="288" type="line"/>
      <point x="399" y="329" type="line"/>
      <point x="133" y="329" type="line"/>
      <point x="133" y="572" type="line"/>
      <point x="450" y="572" type="line"/>
      <point x="450" y="616" type="line"/>
      <point x="86" y="616" type="line"/>
      <point x="86" y="0" type="line"/>
    </contour>
  </outline>
</glyph>
<glyph name="G" format="1">
  <advance width="580"/>
  <unicode hex="0047"/>
  <note>
	G
  </note>
  <outline>
    <contour>
      <point x="433" y="-9"/>
      <point x="509" y="35"/>
      <point x="509" y="101" type="curve" smooth="yes"/>
      <point x="509" y="289" type="line"/>
      <point x="475" y="316" type="line"/>
      <point x="322" y="316" type="line"/>
      <point x="322" y="272" type="line"/>
      <point x="463" y="272" type="line"/>
      <point x="463" y="60" type="line"/>
      <point x="424" y="44"/>
      <point x="387" y="35"/>
      <point x="321" y="35" type="curve" smooth="yes"/>
      <point x="183" y="35"/>
      <point x="107" y="117"/>
      <point x="107" y="295" type="curve" smooth="yes"/>
      <point x="107" y="402"/>
      <point x="134" y="488"/>
      <point x="186" y="558" type="curve"/>
      <point x="231" y="572"/>
      <point x="281" y="577"/>
      <point x="323" y="577" type="curve" smooth="yes"/>
      <point x="371" y="577"/>
      <point x="418" y="573"/>
      <point x="449" y="566" type="curve"/>
      <point x="460" y="482" type="line"/>
      <point x="488" y="482" type="line"/>
      <point x="493" y="497"/>
      <point x="497" y="525"/>
      <point x="497" y="547" type="curve" smooth="yes"/>
      <point x="497" y="585" type="line"/>
      <point x="462" y="605"/>
      <point x="398" y="622"/>
      <point x="326" y="622" type="curve" smooth="yes"/>
      <point x="137" y="622"/>
      <point x="60" y="479"/>
      <point x="60" y="293" type="curve" smooth="yes"/>
      <point x="60" y="97"/>
      <point x="151" y="-9"/>
      <point x="316" y="-9" type="curve" smooth="yes"/>
    </contour>
  </outline>
</glyph>
<glyph name="H" format="1">
  <advance width="586"/>
  <unicode hex="0048"/>
  <note>
	H
  </note>
  <outline>
    <contour>
      <point x="133" y="0" type="line"/>
      <point x="133" y="274" type="line"/>
      <point x="452" y="274" type="line"/>
      <point x="452" y="0" type="line"/>
      <point x="499" y="0" type="line"/>
      <point x="499" y="612" type="line"/>
      <point x="452" y="612" type="line"/>
      <point x="452" y="319" type="line"/>
      <point x="133" y="319" type="line"/>
      <point x="133" y="612" type="line"/>
      <point x="86" y="612" type="line"/>
      <point x="86" y="0" type="line"/>
    </contour>
  </outline>
</glyph>
<glyph name="K" format="1">
  <advance width="581"/>
  <unicode hex="004B"/>
  <note>
	K
  </note>
  <outline>
    <contour>
      <point x="522" y="-6"/>
      <point x="534" y="-4"/>
      <point x="548" y="1" type="curve"/>
      <point x="548" y="28" type="line"/>
      <point x="499" y="36" type="line"/>
      <point x="409" y="234" type="line" smooth="yes"/>
      <point x="388" y="278"/>
      <point x="370" y="299"/>
      <point x="324" y="317" type="curve"/>
      <point x="324" y="323" type="line"/>
      <point x="373" y="348"/>
      <point x="384" y="371"/>
      <point x="406" y="412" type="curve" smooth="yes"/>
      <point x="439" y="474"/>
      <point x="466" y="531"/>
      <point x="494" y="596" type="curve"/>
      <point x="450" y="613" type="line"/>
      <point x="422" y="548"/>
      <point x="395" y="488"/>
      <point x="363" y="426" type="curve" smooth="yes"/>
      <point x="340" y="381"/>
      <point x="315" y="340"/>
      <point x="240" y="340" type="curve" smooth="yes"/>
      <point x="132" y="340" type="line"/>
      <point x="132" y="612" type="line"/>
      <point x="86" y="612" type="line"/>
      <point x="86" y="0" type="line"/>
      <point x="132" y="0" type="line"/>
      <point x="132" y="297" type="line"/>
      <point x="245" y="297" type="line" smooth="yes"/>
      <point x="317" y="297"/>
      <point x="344" y="264"/>
      <point x="369" y="209" type="curve" smooth="yes"/>
      <point x="450" y="29" type="line" smooth="yes"/>
      <point x="461" y="5"/>
      <point x="476" y="-6"/>
      <point x="505" y="-6" type="curve" smooth="yes"/>
    </contour>
  </outline>
</glyph>
<glyph name="L" format="1">
  <advance width="455"/>
  <unicode hex="004C"/>
  <note>
	L
  </note>
  <outline>
    <contour>
      <point x="421" y="0" type="line"/>
      <point x="421" y="44" type="line"/>
      <point x="133" y="44" type="line"/>
      <point x="133" y="612" type="line"/>
      <point x="86" y="612" type="line"/>
      <point x="86" y="0" type="line"/>
    </contour>
  </outline>
</glyph>
<glyph name="Q" format="1">
  <advance width="606"/>
  <unicode hex="0051"/>
  <note>
	Q
  </note>
  <outline>
    <contour>
      <point x="420" y="-137"/>
      <point x="457" y="-134"/>
      <point x="501" y="-124" type="curve"/>
      <point x="492" y="-86" type="line"/>
      <point x="447" y="-95"/>
      <point x="410" y="-97"/>
      <point x="366" y="-97" type="curve" smooth="yes"/>
      <point x="336" y="-97"/>
      <point x="303" y="-93"/>
      <point x="276" y="-88" type="curve"/>
      <point x="276" y="-6" type="line"/>
      <point x="282" y="-7"/>
      <point x="287" y="-7"/>
      <point x="294" y="-7" type="curve" smooth="yes"/>
      <point x="484" y="-6"/>
      <point x="544" y="120"/>
      <point x="544" y="316" type="curve" smooth="yes"/>
      <point x="544" y="516"/>
      <point x="475" y="622"/>
      <point x="313" y="622" type="curve" smooth="yes"/>
      <point x="121" y="622"/>
      <point x="61" y="496"/>
      <point x="61" y="299" type="curve" smooth="yes"/>
      <point x="61" y="118"/>
      <point x="117" y="15"/>
      <point x="245" y="-3" type="curve"/>
      <point x="229" y="-80" type="line"/>
      <point x="229" y="-117" type="line"/>
      <point x="262" y="-128"/>
      <point x="321" y="-137"/>
      <point x="367" y="-137" type="curve" smooth="yes"/>
    </contour>
    <contour>
      <point x="156" y="37"/>
      <point x="108" y="119"/>
      <point x="108" y="309" type="curve" smooth="yes"/>
      <point x="108" y="408"/>
      <point x="129" y="490"/>
      <point x="167" y="549" type="curve"/>
      <point x="199" y="567"/>
      <point x="252" y="577"/>
      <point x="299" y="577" type="curve" smooth="yes"/>
      <point x="449" y="577"/>
      <point x="497" y="495"/>
      <point x="497" y="306" type="curve" smooth="yes"/>
      <point x="497" y="206"/>
      <point x="474" y="124"/>
      <point x="436" y="65" type="curve"/>
      <point x="404" y="48"/>
      <point x="352" y="37"/>
      <point x="306" y="37" type="curve" smooth="yes"/>
    </contour>
  </outline>
</glyph>
<glyph name="U" format="1">
  <advance width="592"/>
  <unicode hex="0055"/>
  <note>
	U
  </note>
  <outline>
    <contour>
      <point x="420" y="-9"/>
      <point x="508" y="23"/>
      <point x="508" y="86" type="curve" smooth="yes"/>
      <point x="508" y="612" type="line"/>
      <point x="461" y="612" type="line"/>
      <point x="461" y="63" type="line"/>
      <point x="423" y="47"/>
      <point x="371" y="35"/>
      <point x="299" y="35" type="curve" smooth="yes"/>
      <point x="181" y="35"/>
      <point x="129" y="66"/>
      <point x="129" y="180" type="curve" smooth="yes"/>
      <point x="129" y="612" type="line"/>
      <point x="82" y="612" type="line"/>
      <point x="82" y="168" type="line" smooth="yes"/>
      <point x="82" y="47"/>
      <point x="152" y="-9"/>
      <point x="292" y="-9" type="curve" smooth="yes"/>
    </contour>
  </outline>
</glyph>
<glyph name="V" format="1">
  <advance width="575"/>
  <unicode hex="0056"/>
  <note>
	V
  </note>
  <outline>
    <contour>
      <point x="326" y="0" type="line"/>
      <point x="405" y="174"/>
      <point x="480" y="411"/>
      <point x="531" y="613" type="curve"/>
      <point x="481" y="618" type="line"/>
      <point x="435" y="422"/>
      <point x="353" y="174"/>
      <point x="297" y="45" type="curve"/>
      <point x="279" y="45" type="line"/>
      <point x="222" y="174"/>
      <point x="141" y="422"/>
      <point x="95" y="618" type="curve"/>
      <point x="45" y="613" type="line"/>
      <point x="95" y="411"/>
      <point x="171" y="174"/>
      <point x="250" y="0" type="curve"/>
    </contour>
  </outline>
</glyph>
<glyph name="X" format="1">
  <advance width="609"/>
  <unicode hex="0058"/>
  <note>
	X
  </note>
  <outline>
    <contour>
      <point x="152" y="93"/>
      <point x="209" y="177"/>
      <point x="288" y="284" type="curve"/>
      <point x="320" y="284" type="line"/>
      <point x="396" y="180"/>
      <point x="453" y="93"/>
      <point x="505" y="-6" type="curve"/>
      <point x="554" y="8" type="line"/>
      <point x="499" y="108"/>
      <point x="424" y="222"/>
      <point x="359" y="308" type="curve"/>
      <point x="422" y="394"/>
      <point x="492" y="504"/>
      <point x="548" y="607" type="curve"/>
      <point x="499" y="619" type="line"/>
      <point x="444" y="513"/>
      <point x="386" y="422"/>
      <point x="321" y="331" type="curve"/>
      <point x="286" y="331" type="line"/>
      <point x="225" y="420"/>
      <point x="167" y="514"/>
      <point x="113" y="619" type="curve"/>
      <point x="62" y="607" type="line"/>
      <point x="117" y="505"/>
      <point x="189" y="389"/>
      <point x="249" y="306" type="curve"/>
      <point x="182" y="219"/>
      <point x="108" y="109"/>
      <point x="51" y="8" type="curve"/>
      <point x="99" y="-6" type="line"/>
    </contour>
  </outline>
</glyph>
<glyph name="backslash" format="1">
  <advance width="424"/>
  <unicode hex="005C"/>
  <note>
	backslash
  </note>
  <outline>
    <contour>
      <point x="355" y="-5" type="line"/>
      <point x="111" y="632" type="line"/>
      <point x="69" y="622" type="line"/>
      <point x="313" y="-16" type="line"/>
    </contour>
  </outline>
</glyph>
<glyph name="b" format="1">
  <advance width="508"/>
  <unicode hex="0062"/>
  <note>
	b
  </note>
  <outline>
    <contour>
      <point x="383" y="-9"/>
      <point x="453" y="81"/>
      <point x="453" y="248" type="curve" smooth="yes"/>
      <point x="453" y="383"/>
      <point x="404" y="474"/>
      <point x="295" y="474" type="curve" smooth="yes"/>
      <point x="229" y="474"/>
      <point x="178" y="442"/>
      <point x="132" y="400" type="curve"/>
      <point x="124" y="400" type="line"/>
      <point x="129" y="482" type="line"/>
      <point x="129" y="667" type="line"/>
      <point x="84" y="667" type="line"/>
      <point x="84" y="13" type="line"/>
      <point x="135" y="-1"/>
      <point x="182" y="-9"/>
      <point x="237" y="-9" type="curve" smooth="yes"/>
    </contour>
    <contour>
      <point x="200" y="31"/>
      <point x="158" y="37"/>
      <point x="129" y="44" type="curve"/>
      <point x="129" y="358" type="line"/>
      <point x="176" y="407"/>
      <point x="226" y="433"/>
      <point x="285" y="433" type="curve" smooth="yes"/>
      <point x="369" y="433"/>
      <point x="407" y="373"/>
      <point x="407" y="245" type="curve" smooth="yes"/>
      <point x="407" y="97"/>
      <point x="354" y="31"/>
      <point x="239" y="31" type="curve" smooth="yes"/>
    </contour>
  </outline>
</glyph>
<glyph name="e" format="1">
  <advance width="466"/>
  <unicode hex="0065"/>
  <note>
	e
  </note>
  <outline>
    <contour>
      <point x="328" y="-9"/>
      <point x="369" y="9"/>
      <point x="407" y="30" type="curve"/>
      <point x="392" y="66" type="line"/>
      <point x="353" y="43"/>
      <point x="317" y="31"/>
      <point x="256" y="31" type="curve" smooth="yes"/>
      <point x="151" y="31"/>
      <point x="106" y="95"/>
      <point x="103" y="215" type="curve"/>
      <point x="371" y="214" type="line"/>
      <point x="415" y="260" type="line"/>
      <point x="430" y="395"/>
      <point x="363" y="474"/>
      <point x="253" y="474" type="curve" smooth="yes"/>
      <point x="121" y="474"/>
      <point x="59" y="379"/>
      <point x="59" y="231" type="curve" smooth="yes"/>
      <point x="59" y="79"/>
      <point x="118" y="-9"/>
      <point x="255" y="-9" type="curve" smooth="yes"/>
    </contour>
    <contour>
      <point x="109" y="364"/>
      <point x="140" y="433"/>
      <point x="249" y="433" type="curve" smooth="yes"/>
      <point x="334" y="433"/>
      <point x="376" y="380"/>
      <point x="376" y="301" type="curve" smooth="yes"/>
      <point x="376" y="285"/>
      <point x="375" y="268"/>
      <point x="371" y="254" type="curve"/>
      <point x="102" y="249" type="line"/>
    </contour>
  </outline>
</glyph>
<glyph name="f" format="1">
  <advance width="319"/>
  <unicode hex="0066"/>
  <note>
	f
  </note>
  <outline>
    <contour>
      <point x="149" y="0" type="line"/>
      <point x="149" y="426" type="line"/>
      <point x="252" y="426" type="line"/>
      <point x="257" y="466" type="line"/>
      <point x="149" y="466" type="line"/>
      <point x="149" y="551" type="line" smooth="yes"/>
      <point x="149" y="575"/>
      <point x="151" y="594"/>
      <point x="160" y="619" type="curve"/>
      <point x="184" y="626"/>
      <point x="205" y="628"/>
      <point x="227" y="628" type="curve" smooth="yes"/>
      <point x="255" y="628"/>
      <point x="272" y="626"/>
      <point x="295" y="618" type="curve"/>
      <point x="308" y="656" type="line"/>
      <point x="286" y="664"/>
      <point x="263" y="670"/>
      <point x="233" y="670" type="curve" smooth="yes"/>
      <point x="217" y="670"/>
      <point x="196" y="668"/>
      <point x="175" y="663" type="curve"/>
      <point x="143" y="645"/>
      <point x="105" y="609"/>
      <point x="105" y="556" type="curve" smooth="yes"/>
      <point x="105" y="466" type="line"/>
      <point x="45" y="466" type="line"/>
      <point x="39" y="426" type="line"/>
      <point x="105" y="426" type="line"/>
      <point x="105" y="0" type="line"/>
    </contour>
  </outline>
</glyph>
<glyph name="l" format="1">
  <advance width="263"/>
  <unicode hex="006C"/>
  <note>
	l
  </note>
  <outline>
    <contour>
      <point x="180" y="-1"/>
      <point x="210" y="15"/>
      <point x="234" y="38" type="curve"/>
      <point x="214" y="63" type="line"/>
      <point x="148" y="32" type="line"/>
      <point x="133" y="32" type="line"/>
      <point x="125" y="47"/>
      <point x="123" y="55"/>
      <point x="123" y="80" type="curve" smooth="yes"/>
      <point x="123" y="667" type="line"/>
      <point x="79" y="667" type="line"/>
      <point x="79" y="69" type="line" smooth="yes"/>
      <point x="79" y="41"/>
      <point x="114" y="7"/>
      <point x="142" y="-7" type="curve"/>
    </contour>
  </outline>
</glyph>
<glyph name="q" format="1">
  <advance width="508"/>
  <unicode hex="0071"/>
  <note>
	q
  </note>
  <outline>
    <contour>
      <point x="423" y="-198" type="line"/>
      <point x="423" y="450" type="line"/>
      <point x="373" y="465"/>
      <point x="327" y="475"/>
      <point x="272" y="475" type="curve" smooth="yes"/>
      <point x="126" y="475"/>
      <point x="56" y="384"/>
      <point x="56" y="218" type="curve" smooth="yes"/>
      <point x="56" y="94"/>
      <point x="109" y="-2"/>
      <point x="225" y="-2" type="curve" smooth="yes"/>
      <point x="300" y="-2"/>
      <point x="345" y="34"/>
      <point x="376" y="68" type="curve"/>
      <point x="383" y="68" type="line"/>
      <point x="379" y="-14" type="line"/>
      <point x="379" y="-198" type="line"/>
    </contour>
    <contour>
      <point x="144" y="38"/>
      <point x="102" y="105"/>
      <point x="102" y="221" type="curve" smooth="yes"/>
      <point x="102" y="368"/>
      <point x="155" y="434"/>
      <point x="270" y="434" type="curve" smooth="yes"/>
      <point x="314" y="434"/>
      <point x="350" y="428"/>
      <point x="379" y="421" type="curve"/>
      <point x="379" y="111" type="line"/>
      <point x="348" y="71"/>
      <point x="299" y="38"/>
      <point x="234" y="38" type="curve" smooth="yes"/>
    </contour>
  </outline>
</glyph>
<glyph name="r" format="1">
  <advance width="350"/>
  <unicode hex="0072"/>
  <note>
	r
  </note>
  <outline>
    <contour>
      <point x="129" y="0" type="line"/>
      <point x="129" y="329" type="line"/>
      <point x="152" y="384"/>
      <point x="202" y="418"/>
      <point x="272" y="418" type="curve" smooth="yes"/>
      <point x="311" y="418" type="line"/>
      <point x="317" y="450" type="line"/>
      <point x="311" y="458"/>
      <point x="296" y="470"/>
      <point x="286" y="470" type="curve" smooth="yes"/>
      <point x="216" y="470"/>
      <point x="161" y="431"/>
      <point x="130" y="377" type="curve"/>
      <point x="123" y="377" type="line"/>
      <point x="119" y="464" type="line"/>
      <point x="84" y="464" type="line"/>
      <point x="84" y="0" type="line"/>
    </contour>
  </outline>
</glyph>
<glyph name="t" format="1">
  <advance width="356"/>
  <unicode hex="0074"/>
  <note>
	t
  </note>
  <outline>
    <contour>
      <point x="265" y="-5"/>
      <point x="301" y="5"/>
      <point x="320" y="15" type="curve"/>
      <point x="307" y="53" type="line"/>
      <point x="286" y="43"/>
      <point x="254" y="36"/>
      <point x="227" y="36" type="curve" smooth="yes"/>
      <point x="206" y="36"/>
      <point x="187" y="39"/>
      <point x="166" y="45" type="curve"/>
      <point x="159" y="63"/>
      <point x="157" y="73"/>
      <point x="157" y="101" type="curve" smooth="yes"/>
      <point x="157" y="426" type="line"/>
      <point x="306" y="426" type="line"/>
      <point x="311" y="466" type="line"/>
      <point x="157" y="466" type="line"/>
      <point x="157" y="595" type="line"/>
      <point x="113" y="595" type="line"/>
      <point x="113" y="466" type="line"/>
      <point x="39" y="466" type="line"/>
      <point x="33" y="426" type="line"/>
      <point x="113" y="426" type="line"/>
      <point x="113" y="89" type="line" smooth="yes"/>
      <point x="113" y="43"/>
      <point x="143" y="18"/>
      <point x="174" y="2" type="curve"/>
      <point x="193" y="-3"/>
      <point x="213" y="-5"/>
      <point x="234" y="-5" type="curve" smooth="yes"/>
    </contour>
  </outline>
</glyph>
<glyph name="v" format="1">
  <advance width="469"/>
  <unicode hex="0076"/>
  <note>
	v
  </note>
  <outline>
    <contour>
      <point x="265" y="0" type="line"/>
      <point x="330" y="156"/>
      <point x="384" y="307"/>
      <point x="433" y="464" type="curve"/>
      <point x="388" y="469" type="line"/>
      <point x="343" y="320"/>
      <point x="288" y="156"/>
      <point x="241" y="43" type="curve"/>
      <point x="229" y="43" type="line"/>
      <point x="182" y="156"/>
      <point x="127" y="320"/>
      <point x="83" y="469" type="curve"/>
      <point x="37" y="464" type="line"/>
      <point x="85" y="307"/>
      <point x="137" y="156"/>
      <point x="204" y="0" type="curve"/>
    </contour>
  </outline>
</glyph>
<glyph name="exclamdown" format="1">
  <advance width="225"/>
  <unicode hex="00A1"/>
  <note>
	exclamdown
  </note>
  <outline>
    <contour>
      <point x="136" y="0" type="line"/>
      <point x="136" y="202" type="line"/>
      <point x="130" y="438" type="line"/>
      <point x="95" y="438" type="line"/>
      <point x="88" y="201" type="line"/>
      <point x="88" y="0" type="line"/>
    </contour>
    <contour>
      <point x="138" y="532" type="line"/>
      <point x="138" y="612" type="line"/>
      <point x="87" y="612" type="line"/>
      <point x="87" y="532" type="line"/>
    </contour>
  </outline>
</glyph>
<glyph name="brokenbar" format="1">
  <advance width="226"/>
  <unicode hex="00A6"/>
  <note>
	brokenbar
  </note>
  <outline>
    <contour>
      <point x="134" y="304" type="line"/>
      <point x="134" y="622" type="line"/>
      <point x="93" y="622" type="line"/>
      <point x="93" y="304" type="line"/>
    </contour>
    <contour>
      <point x="134" y="-110" type="line"/>
      <point x="134" y="208" type="line"/>
      <point x="93" y="208" type="line"/>
      <point x="93" y="-110" type="line"/>
    </contour>
  </outline>
</glyph>
<glyph name="guillemotleft" format="1">
  <advance width="469"/>
  <unicode hex="00AB"/>
  <note>
	guillemotleft
  </note>
  <outline>
    <contour>
      <point x="386" y="93" type="line"/>
      <point x="270" y="249" type="line"/>
      <point x="270" y="253" type="line"/>
      <point x="386" y="409" type="line"/>
      <point x="354" y="423" type="line"/>
      <point x="224" y="251" type="line"/>
      <point x="354" y="79" type="line"/>
    </contour>
    <contour>
      <point x="226" y="93" type="line"/>
      <point x="110" y="249" type="line"/>
      <point x="110" y="253" type="line"/>
      <point x="226" y="409" type="line"/>
      <point x="194" y="423" type="line"/>
      <point x="64" y="251" type="line"/>
      <point x="194" y="79" type="line"/>
    </contour>
  </outline>
</glyph>
<glyph name="registered" format="1">
  <advance width="739"/>
  <unicode hex="00AE"/>
  <note>
	registered
  </note>
  <outline>
    <contour>
      <point x="558" y="9"/>
      <point x="668" y="131"/>
      <point x="668" y="308" type="curve" smooth="yes"/>
      <point x="668" y="485"/>
      <point x="558" y="607"/>
      <point x="370" y="607" type="curve" smooth="yes"/>
      <point x="182" y="607"/>
      <point x="71" y="485"/>
      <point x="71" y="308" type="curve" smooth="yes"/>
      <point x="71" y="131"/>
      <point x="182" y="9"/>
      <point x="370" y="9" type="curve" smooth="yes"/>
    </contour>
    <contour>
      <point x="198" y="34"/>
      <point x="97" y="141"/>
      <point x="97" y="308" type="curve" smooth="yes"/>
      <point x="97" y="475"/>
      <point x="198" y="582"/>
      <point x="369" y="582" type="curve" smooth="yes"/>
      <point x="541" y="582"/>
      <point x="642" y="475"/>
      <point x="642" y="308" type="curve" smooth="yes"/>
      <point x="642" y="141"/>
      <point x="541" y="34"/>
      <point x="369" y="34" type="curve" smooth="yes"/>
    </contour>
    <contour>
      <point x="502" y="133"/>
      <point x="509" y="135"/>
      <point x="518" y="138" type="curve"/>
      <point x="518" y="157" type="line"/>
      <point x="495" y="162" type="line"/>
      <point x="453" y="253" type="line" smooth="yes"/>
      <point x="442" y="274"/>
      <point x="430" y="285"/>
      <point x="412" y="292" type="curve"/>
      <point x="412" y="295" type="line"/>
      <point x="457" y="311"/>
      <point x="479" y="345"/>
      <point x="479" y="393" type="curve" smooth="yes"/>
      <point x="479" y="462"/>
      <point x="443" y="502"/>
      <point x="349" y="502" type="curve" smooth="yes"/>
      <point x="316" y="502"/>
      <point x="289" y="497"/>
      <point x="258" y="490" type="curve"/>
      <point x="258" y="136" type="line"/>
      <point x="295" y="136" type="line"/>
      <point x="295" y="285" type="line"/>
      <point x="346" y="285" type="line" smooth="yes"/>
      <point x="389" y="285"/>
      <point x="405" y="268"/>
      <point x="421" y="234" type="curve" smooth="yes"/>
      <point x="455" y="159" type="line" smooth="yes"/>
      <point x="464" y="141"/>
      <point x="475" y="133"/>
      <point x="491" y="133" type="curve" smooth="yes"/>
    </contour>
    <contour>
      <point x="295" y="463" type="line"/>
      <point x="314" y="466"/>
      <point x="331" y="467"/>
      <point x="351" y="467" type="curve" smooth="yes"/>
      <point x="416" y="467"/>
      <point x="442" y="445"/>
      <point x="442" y="391" type="curve" smooth="yes"/>
      <point x="442" y="341"/>
      <point x="419" y="321"/>
      <point x="338" y="321" type="curve" smooth="yes"/>
      <point x="295" y="321" type="line"/>
    </contour>
  </outline>
</glyph>
<glyph name="macron" format="1">
  <advance width="392"/>
  <unicode hex="00AF"/>
  <note>
	macron
  </note>
  <outline>
    <contour>
      <point x="331" y="545" type="line"/>
      <point x="331" y="586" type="line"/>
      <point x="61" y="586" type="line"/>
      <point x="61" y="545" type="line"/>
    </contour>
  </outline>
</glyph>
<glyph name="degree" format="1">
  <advance width="397"/>
  <unicode hex="00B0"/>
  <note>
	degree
  </note>
  <outline>
    <contour>
      <point x="315" y="292"/>
      <point x="369" y="354"/>
      <point x="369" y="457" type="curve" smooth="yes"/>
      <point x="369" y="559"/>
      <point x="318" y="605"/>
      <point x="222" y="605" type="curve" smooth="yes"/>
      <point x="110" y="605"/>
      <point x="56" y="543"/>
      <point x="56" y="440" type="curve" smooth="yes"/>
      <point x="56" y="338"/>
      <point x="108" y="292"/>
      <point x="203" y="292" type="curve" smooth="yes"/>
    </contour>
    <contour>
      <point x="134" y="334"/>
      <point x="103" y="357"/>
      <point x="103" y="448" type="curve" smooth="yes"/>
      <point x="103" y="481"/>
      <point x="108" y="517"/>
      <point x="118" y="549" type="curve"/>
      <point x="152" y="559"/>
      <point x="177" y="563"/>
      <point x="208" y="563" type="curve" smooth="yes"/>
      <point x="290" y="563"/>
      <point x="321" y="540"/>
      <point x="321" y="449" type="curve" smooth="yes"/>
      <point x="321" y="416"/>
      <point x="316" y="380"/>
      <point x="306" y="348" type="curve"/>
      <point x="272" y="338"/>
      <point x="247" y="334"/>
      <point x="216" y="334" type="curve" smooth="yes"/>
    </contour>
  </outline>
</glyph>
<glyph name="plusminus" format="1">
  <advance width="583"/>
  <unicode hex="00B1"/>
  <note>
	plusminus
  </note>
  <outline>
    <contour>
      <point x="313" y="120" type="line"/>
      <point x="313" y="319" type="line"/>
      <point x="497" y="319" type="line"/>
      <point x="497" y="358" type="line"/>
      <point x="313" y="358" type="line"/>
      <point x="313" y="541" type="line"/>
      <point x="270" y="541" type="line"/>
      <point x="270" y="358" type="line"/>
      <point x="86" y="358" type="line"/>
      <point x="86" y="319" type="line"/>
      <point x="270" y="319" type="line"/>
      <point x="270" y="120" type="line"/>
    </contour>
    <contour>
      <point x="493" y="0" type="line"/>
      <point x="493" y="38" type="line"/>
      <point x="99" y="38" type="line"/>
      <point x="99" y="0" type="line"/>
    </contour>
  </outline>
</glyph>
<glyph name="mu" format="1">
  <advance width="508"/>
  <unicode hex="00B5"/>
  <note>
	mu
  </note>
  <outline>
    <contour>
      <point x="131" y="-213" type="line"/>
      <point x="131" y="23" type="line"/>
      <point x="138" y="23" type="line"/>
      <point x="161" y="6"/>
      <point x="189" y="-5"/>
      <point x="229" y="-5" type="curve" smooth="yes"/>
      <point x="303" y="-5"/>
      <point x="338" y="25"/>
      <point x="379" y="71" type="curve"/>
      <point x="386" y="71" type="line"/>
      <point x="392" y="0" type="line"/>
      <point x="427" y="0" type="line"/>
      <point x="427" y="470" type="line"/>
      <point x="381" y="470" type="line"/>
      <point x="381" y="114" type="line"/>
      <point x="345" y="68"/>
      <point x="299" y="37"/>
      <point x="231" y="37" type="curve" smooth="yes"/>
      <point x="191" y="37"/>
      <point x="159" y="45"/>
      <point x="131" y="64" type="curve"/>
      <point x="131" y="470" type="line"/>
      <point x="85" y="470" type="line"/>
      <point x="85" y="-213" type="line"/>
    </contour>
  </outline>
</glyph>
<glyph name="periodcentered" format="1">
  <advance width="340"/>
  <unicode hex="00B7"/>
  <note>
	periodcentered
  </note>
  <outline>
    <contour>
      <point x="197" y="228"/>
      <point x="214" y="244"/>
      <point x="214" y="269" type="curve" smooth="yes"/>
      <point x="214" y="295"/>
      <point x="197" y="311"/>
      <point x="171" y="311" type="curve" smooth="yes"/>
      <point x="146" y="311"/>
      <point x="128" y="295"/>
      <point x="128" y="269" type="curve" smooth="yes"/>
      <point x="128" y="244"/>
      <point x="145" y="228"/>
      <point x="171" y="228" type="curve" smooth="yes"/>
    </contour>
  </outline>
</glyph>
<glyph name="ordmasculine" format="1">
  <advance width="372"/>
  <unicode hex="00BA"/>
  <note>
	ordmasculine
  </note>
  <outline>
    <contour>
      <point x="280" y="265"/>
      <point x="320" y="329"/>
      <point x="320" y="435" type="curve" smooth="yes"/>
      <point x="320" y="544"/>
      <point x="278" y="600"/>
      <point x="196" y="600" type="curve" smooth="yes"/>
      <point x="92" y="600"/>
      <point x="53" y="536"/>
      <point x="53" y="430" type="curve" smooth="yes"/>
      <point x="53" y="324"/>
      <point x="94" y="265"/>
      <point x="177" y="265" type="curve" smooth="yes"/>
    </contour>
    <contour>
      <point x="120" y="303"/>
      <point x="94" y="348"/>
      <point x="94" y="438" type="curve" smooth="yes"/>
      <point x="94" y="482"/>
      <point x="100" y="519"/>
      <point x="113" y="551" type="curve"/>
      <point x="137" y="559"/>
      <point x="155" y="562"/>
      <point x="186" y="562" type="curve" smooth="yes"/>
      <point x="252" y="562"/>
      <point x="278" y="520"/>
      <point x="278" y="427" type="curve" smooth="yes"/>
      <point x="278" y="383"/>
      <point x="272" y="347"/>
      <point x="259" y="314" type="curve"/>
      <point x="235" y="306"/>
      <point x="217" y="303"/>
      <point x="186" y="303" type="curve" smooth="yes"/>
    </contour>
  </outline>
</glyph>
<glyph name="onequarter" format="1">
  <advance width="794"/>
  <unicode hex="00BC"/>
  <note>
	onequarter
  </note>
  <outline>
    <contour>
      <point x="585" y="610" type="line"/>
      <point x="548" y="619" type="line"/>
      <point x="164" y="6" type="line"/>
      <point x="201" y="-5" type="line"/>
    </contour>
    <contour>
      <point x="195" y="256" type="line"/>
      <point x="195" y="588" type="line" smooth="yes"/>
      <point x="195" y="598"/>
      <point x="168" y="615"/>
      <point x="146" y="616" type="curve"/>
      <point x="66" y="566" type="line"/>
      <point x="75" y="541" type="line"/>
      <point x="148" y="570" type="line"/>
      <point x="152" y="567" type="line"/>
      <point x="152" y="256" type="line"/>
    </contour>
    <contour>
      <point x="671" y="0" type="line"/>
      <point x="671" y="71" type="line"/>
      <point x="726" y="71" type="line"/>
      <point x="726" y="107" type="line"/>
      <point x="671" y="107" type="line"/>
      <point x="671" y="353" type="line"/>
      <point x="628" y="353" type="line"/>
      <point x="457" y="109" type="line"/>
      <point x="473" y="71" type="line"/>
      <point x="629" y="71" type="line"/>
      <point x="629" y="0" type="line"/>
    </contour>
    <contour>
      <point x="506" y="111" type="line"/>
      <point x="633" y="301" type="line"/>
      <point x="637" y="301" type="line"/>
      <point x="632" y="256"/>
      <point x="630" y="221"/>
      <point x="630" y="182" type="curve" smooth="yes"/>
      <point x="630" y="107" type="line"/>
      <point x="508" y="107" type="line"/>
    </contour>
  </outline>
</glyph>
<glyph name="onehalf" format="1">
  <advance width="787"/>
  <unicode hex="00BD"/>
  <note>
	onehalf
  </note>
  <outline>
    <contour>
      <point x="585" y="610" type="line"/>
      <point x="548" y="619" type="line"/>
      <point x="164" y="6" type="line"/>
      <point x="201" y="-5" type="line"/>
    </contour>
    <contour>
      <point x="195" y="256" type="line"/>
      <point x="195" y="588" type="line" smooth="yes"/>
      <point x="195" y="598"/>
      <point x="168" y="615"/>
      <point x="146" y="616" type="curve"/>
      <point x="66" y="566" type="line"/>
      <point x="75" y="541" type="line"/>
      <point x="148" y="570" type="line"/>
      <point x="152" y="567" type="line"/>
      <point x="152" y="256" type="line"/>
    </contour>
    <contour>
      <point x="759" y="0" type="line"/>
      <point x="759" y="18" type="line" smooth="yes"/>
      <point x="759" y="36"/>
      <point x="757" y="53"/>
      <point x="751" y="69" type="curve"/>
      <point x="719" y="69" type="line"/>
      <point x="719" y="37" type="line"/>
      <point x="572" y="37" type="line"/>
      <point x="572" y="42" type="line"/>
      <point x="664" y="100"/>
      <point x="753" y="173"/>
      <point x="753" y="257" type="curve" smooth="yes"/>
      <point x="753" y="313"/>
      <point x="727" y="358"/>
      <point x="648" y="358" type="curve" smooth="yes"/>
      <point x="610" y="358"/>
      <point x="573" y="351"/>
      <point x="540" y="337" type="curve"/>
      <point x="540" y="321" type="line" smooth="yes"/>
      <point x="540" y="301"/>
      <point x="543" y="281"/>
      <point x="547" y="267" type="curve"/>
      <point x="581" y="267" type="line"/>
      <point x="581" y="313" type="line"/>
      <point x="604" y="317"/>
      <point x="621" y="319"/>
      <point x="643" y="319" type="curve" smooth="yes"/>
      <point x="691" y="319"/>
      <point x="710" y="302"/>
      <point x="710" y="255" type="curve" smooth="yes"/>
      <point x="710" y="194"/>
      <point x="642" y="127"/>
      <point x="529" y="58" type="curve"/>
      <point x="529" y="0" type="line"/>
    </contour>
  </outline>
</glyph>
<glyph name="threequarters" format="1">
  <advance width="821"/>
  <unicode hex="00BE"/>
  <note>
	threequarters
  </note>
  <outline>
    <contour>
      <point x="641" y="610" type="line"/>
      <point x="604" y="619" type="line"/>
      <point x="220" y="6" type="line"/>
      <point x="257" y="-5" type="line"/>
    </contour>
    <contour>
      <point x="263" y="249"/>
      <point x="294" y="290"/>
      <point x="294" y="343" type="curve" smooth="yes"/>
      <point x="294" y="381"/>
      <point x="278" y="411"/>
      <point x="220" y="428" type="curve"/>
      <point x="220" y="431" type="line"/>
      <point x="263" y="446"/>
      <point x="285" y="471"/>
      <point x="285" y="517" type="curve" smooth="yes"/>
      <point x="285" y="572"/>
      <point x="251" y="612"/>
      <point x="178" y="612" type="curve" smooth="yes"/>
      <point x="138" y="612"/>
      <point x="106" y="606"/>
      <point x="73" y="594" type="curve"/>
      <point x="73" y="577" type="line" smooth="yes"/>
      <point x="73" y="563"/>
      <point x="76" y="546"/>
      <point x="80" y="532" type="curve"/>
      <point x="113" y="532" type="line"/>
      <point x="113" y="569" type="line"/>
      <point x="137" y="572"/>
      <point x="151" y="573"/>
      <point x="176" y="573" type="curve" smooth="yes"/>
      <point x="220" y="573"/>
      <point x="242" y="554"/>
      <point x="242" y="511" type="curve" smooth="yes"/>
      <point x="242" y="468"/>
      <point x="218" y="447"/>
      <point x="168" y="447" type="curve" smooth="yes"/>
      <point x="132" y="447" type="line"/>
      <point x="132" y="409" type="line"/>
      <point x="168" y="409" type="line" smooth="yes"/>
      <point x="223" y="409"/>
      <point x="252" y="388"/>
      <point x="252" y="346" type="curve" smooth="yes"/>
      <point x="252" y="330"/>
      <point x="249" y="310"/>
      <point x="241" y="293" type="curve"/>
      <point x="217" y="288"/>
      <point x="199" y="287"/>
      <point x="170" y="287" type="curve" smooth="yes"/>
      <point x="136" y="287"/>
      <point x="107" y="291"/>
      <point x="75" y="299" type="curve"/>
      <point x="69" y="261" type="line"/>
      <point x="100" y="253"/>
      <point x="137" y="249"/>
      <point x="171" y="249" type="curve" smooth="yes"/>
    </contour>
    <contour>
      <point x="698" y="0" type="line"/>
      <point x="698" y="71" type="line"/>
      <point x="753" y="71" type="line"/>
      <point x="753" y="107" type="line"/>
      <point x="698" y="107" type="line"/>
      <point x="698" y="353" type="line"/>
      <point x="655" y="353" type="line"/>
      <point x="484" y="109" type="line"/>
      <point x="500" y="71" type="line"/>
      <point x="656" y="71" type="line"/>
      <point x="656" y="0" type="line"/>
    </contour>
    <contour>
      <point x="534" y="111" type="line"/>
      <point x="661" y="301" type="line"/>
      <point x="665" y="301" type="line"/>
      <point x="660" y="256"/>
      <point x="658" y="221"/>
      <point x="658" y="182" type="curve" smooth="yes"/>
      <point x="658" y="107" type="line"/>
      <point x="536" y="107" type="line"/>
    </contour>
  </outline>
</glyph>
<glyph name="questiondown" format="1">
  <advance width="509"/>
  <unicode hex="00BF"/>
  <note>
	questiondown
  </note>
  <outline>
    <contour>
      <point x="324" y="-106"/>
      <point x="397" y="-86"/>
      <point x="434" y="-68" type="curve"/>
      <point x="434" y="-42" type="line" smooth="yes"/>
      <point x="434" y="-16"/>
      <point x="429" y="9"/>
      <point x="421" y="33" type="curve"/>
      <point x="389" y="33" type="line"/>
      <point x="389" y="-44" type="line"/>
      <point x="346" y="-56"/>
      <point x="296" y="-62"/>
      <point x="247" y="-62" type="curve" smooth="yes"/>
      <point x="156" y="-62"/>
      <point x="118" y="-31"/>
      <point x="118" y="48" type="curve" smooth="yes"/>
      <point x="118" y="120" type="line"/>
      <point x="276" y="239" type="line" smooth="yes"/>
      <point x="297" y="255"/>
      <point x="304" y="269"/>
      <point x="304" y="297" type="curve" smooth="yes"/>
      <point x="304" y="363" type="line"/>
      <point x="257" y="363" type="line"/>
      <point x="257" y="306" type="line" smooth="yes"/>
      <point x="257" y="280"/>
      <point x="255" y="274"/>
      <point x="236" y="259" type="curve" smooth="yes"/>
      <point x="124" y="176" type="line" smooth="yes"/>
      <point x="80" y="143"/>
      <point x="71" y="108"/>
      <point x="71" y="52" type="curve" smooth="yes"/>
      <point x="71" y="-53"/>
      <point x="120" y="-106"/>
      <point x="245" y="-106" type="curve" smooth="yes"/>
    </contour>
    <contour>
      <point x="305" y="438" type="line"/>
      <point x="305" y="517" type="line"/>
      <point x="255" y="517" type="line"/>
      <point x="255" y="438" type="line"/>
    </contour>
  </outline>
</glyph>
<glyph name="Aacute" format="1">
  <advance width="580"/>
  <unicode hex="00C1"/>
  <note>
	Aacute
  </note>
  <outline>
    <contour>
      <point x="417" y="847" type="line"/>
      <point x="355" y="854" type="line"/>
      <point x="271" y="713" type="line"/>
      <point x="303" y="708" type="line"/>
    </contour>
    <component base="A"/>
  </outline>
</glyph>
<glyph name="Acircumflex" format="1">
  <advance width="580"/>
  <unicode hex="00C2"/>
  <note>
	Acircumflex
  </note>
  <outline>
    <contour>
      <point x="287" y="805" type="line"/>
      <point x="292" y="805" type="line"/>
      <point x="385" y="707" type="line"/>
      <point x="415" y="714" type="line"/>
      <point x="314" y="845" type="line"/>
      <point x="265" y="845" type="line"/>
      <point x="163" y="714" type="line"/>
      <point x="193" y="707" type="line"/>
    </contour>
    <component base="A"/>
  </outline>
</glyph>
<glyph name="Atilde" format="1">
  <advance width="580"/>
  <unicode hex="00C3"/>
  <note>
	Atilde
  </note>
  <outline>
    <contour>
      <point x="188" y="741"/>
      <point x="201" y="762"/>
      <point x="230" y="762" type="curve" smooth="yes"/>
      <point x="267" y="762"/>
      <point x="296" y="709"/>
      <point x="345" y="709" type="curve" smooth="yes"/>
      <point x="390" y="709"/>
      <point x="415" y="741"/>
      <point x="418" y="793" type="curve"/>
      <point x="387" y="803" type="line"/>
      <point x="383" y="770"/>
      <point x="370" y="749"/>
      <point x="341" y="749" type="curve" smooth="yes"/>
      <point x="303" y="749"/>
      <point x="273" y="802"/>
      <point x="226" y="802" type="curve" smooth="yes"/>
      <point x="181" y="802"/>
      <point x="156" y="770"/>
      <point x="153" y="718" type="curve"/>
      <point x="184" y="709" type="line"/>
    </contour>
    <component base="A"/>
  </outline>
</glyph>
<glyph name="Ccedilla" format="1">
  <advance width="547"/>
  <unicode hex="00C7"/>
  <note>
	Ccedilla
  </note>
  <outline>
    <contour>
      <point x="360" y="-216"/>
      <point x="395" y="-190"/>
      <point x="395" y="-132" type="curve" smooth="yes"/>
      <point x="395" y="-86"/>
      <point x="373" y="-59"/>
      <point x="322" y="-59" type="curve" smooth="yes"/>
      <point x="303" y="-59"/>
      <point x="287" y="-62"/>
      <point x="273" y="-68" type="curve"/>
      <point x="317" y="-9" type="line"/>
      <point x="321" y="-9"/>
      <point x="324" y="-9"/>
      <point x="328" y="-9" type="curve" smooth="yes"/>
      <point x="402" y="-7"/>
      <point x="458" y="10"/>
      <point x="499" y="40" type="curve"/>
      <point x="476" y="76" type="line"/>
      <point x="434" y="49"/>
      <point x="383" y="35"/>
      <point x="317" y="35" type="curve" smooth="yes"/>
      <point x="173" y="35"/>
      <point x="107" y="121"/>
      <point x="107" y="295" type="curve" smooth="yes"/>
      <point x="107" y="402"/>
      <point x="132" y="488"/>
      <point x="184" y="558" type="curve"/>
      <point x="229" y="572"/>
      <point x="269" y="577"/>
      <point x="311" y="577" type="curve" smooth="yes"/>
      <point x="358" y="577"/>
      <point x="393" y="573"/>
      <point x="425" y="566" type="curve"/>
      <point x="436" y="482" type="line"/>
      <point x="464" y="482" type="line"/>
      <point x="469" y="497"/>
      <point x="472" y="525"/>
      <point x="472" y="547" type="curve" smooth="yes"/>
      <point x="472" y="585" type="line"/>
      <point x="437" y="605"/>
      <point x="382" y="622"/>
      <point x="312" y="622" type="curve" smooth="yes"/>
      <point x="134" y="622"/>
      <point x="60" y="477"/>
      <point x="60" y="293" type="curve" smooth="yes"/>
      <point x="60" y="112"/>
      <point x="131" y="5"/>
      <point x="282" y="-8" type="curve"/>
      <point x="231" y="-69" type="line"/>
      <point x="262" y="-100" type="line"/>
      <point x="276" y="-95"/>
      <point x="290" y="-94"/>
      <point x="308" y="-94" type="curve" smooth="yes"/>
      <point x="341" y="-94"/>
      <point x="354" y="-108"/>
      <point x="354" y="-136" type="curve" smooth="yes"/>
      <point x="354" y="-150"/>
      <point x="352" y="-164"/>
      <point x="348" y="-173" type="curve"/>
      <point x="333" y="-178"/>
      <point x="319" y="-180"/>
      <point x="296" y="-180" type="curve" smooth="yes"/>
      <point x="272" y="-180"/>
      <point x="247" y="-176"/>
      <point x="225" y="-168" type="curve"/>
      <point x="213" y="-200" type="line"/>
      <point x="243" y="-213"/>
      <point x="268" y="-216"/>
      <point x="294" y="-216" type="curve" smooth="yes"/>
    </contour>
  </outline>
</glyph>
<glyph name="Igrave" format="1">
  <advance width="225"/>
  <unicode hex="00CC"/>
  <note>
	Igrave
  </note>
  <outline>
    <contour>
      <point x="136" y="0" type="line"/>
      <point x="136" y="612" type="line"/>
      <point x="89" y="612" type="line"/>
      <point x="89" y="0" type="line"/>
    </contour>
    <contour>
      <point x="136" y="713" type="line"/>
      <point x="52" y="854" type="line"/>
      <point x="-10" y="847" type="line"/>
      <point x="104" y="708" type="line"/>
    </contour>
  </outline>
</glyph>
<glyph name="Icircumflex" format="1">
  <advance width="225"/>
  <unicode hex="00CE"/>
  <note>
	Icircumflex
  </note>
  <outline>
    <contour>
      <point x="110" y="805" type="line"/>
      <point x="116" y="805" type="line"/>
      <point x="208" y="707" type="line"/>
      <point x="239" y="714" type="line"/>
      <point x="137" y="845" type="line"/>
      <point x="88" y="845" type="line"/>
      <point x="-14" y="714" type="line"/>
      <point x="17" y="707" type="line"/>
    </contour>
    <contour>
      <point x="136" y="0" type="line"/>
      <point x="136" y="612" type="line"/>
      <point x="89" y="612" type="line"/>
      <point x="89" y="0" type="line"/>
    </contour>
  </outline>
</glyph>
<glyph name="Idieresis" format="1">
  <advance width="225"/>
  <unicode hex="00CF"/>
  <note>
	Idieresis
  </note>
  <outline>
    <contour>
      <point x="136" y="0" type="line"/>
      <point x="136" y="612" type="line"/>
      <point x="89" y="612" type="line"/>
      <point x="89" y="0" type="line"/>
    </contour>
    <contour>
      <point x="53" y="709"/>
      <point x="65" y="721"/>
      <point x="65" y="740" type="curve" smooth="yes"/>
      <point x="65" y="761"/>
      <point x="53" y="772"/>
      <point x="33" y="772" type="curve" smooth="yes"/>
      <point x="13" y="772"/>
      <point x="0" y="761"/>
      <point x="0" y="740" type="curve" smooth="yes"/>
      <point x="0" y="721"/>
      <point x="13" y="709"/>
      <point x="33" y="709" type="curve" smooth="yes"/>
    </contour>
    <contour>
      <point x="211" y="709"/>
      <point x="223" y="721"/>
      <point x="223" y="740" type="curve" smooth="yes"/>
      <point x="223" y="761"/>
      <point x="211" y="772"/>
      <point x="191" y="772" type="curve" smooth="yes"/>
      <point x="170" y="772"/>
      <point x="157" y="761"/>
      <point x="157" y="740" type="curve" smooth="yes"/>
      <point x="157" y="721"/>
      <point x="170" y="709"/>
      <point x="191" y="709" type="curve" smooth="yes"/>
    </contour>
  </outline>
</glyph>
<glyph name="Ntilde" format="1">
  <advance width="610"/>
  <unicode hex="00D1"/>
  <note>
	Ntilde
  </note>
  <outline>
    <contour>
      <point x="133" y="0" type="line"/>
      <point x="133" y="324" type="line"/>
      <point x="125" y="538" type="line"/>
      <point x="132" y="540" type="line"/>
      <point x="471" y="0" type="line"/>
      <point x="524" y="0" type="line"/>
      <point x="524" y="612" type="line"/>
      <point x="477" y="612" type="line"/>
      <point x="477" y="288" type="line"/>
      <point x="484" y="74" type="line"/>
      <point x="478" y="72" type="line"/>
      <point x="139" y="612" type="line"/>
      <point x="86" y="612" type="line"/>
      <point x="86" y="0" type="line"/>
    </contour>
    <contour>
      <point x="208" y="742"/>
      <point x="221" y="763"/>
      <point x="250" y="763" type="curve" smooth="yes"/>
      <point x="287" y="763"/>
      <point x="316" y="710"/>
      <point x="365" y="710" type="curve" smooth="yes"/>
      <point x="410" y="710"/>
      <point x="435" y="742"/>
      <point x="438" y="794" type="curve"/>
      <point x="407" y="804" type="line"/>
      <point x="403" y="771"/>
      <point x="390" y="750"/>
      <point x="361" y="750" type="curve" smooth="yes"/>
      <point x="323" y="750"/>
      <point x="293" y="803"/>
      <point x="246" y="803" type="curve" smooth="yes"/>
      <point x="201" y="803"/>
      <point x="176" y="771"/>
      <point x="173" y="719" type="curve"/>
      <point x="204" y="710" type="line"/>
    </contour>
  </outline>
</glyph>
<glyph name="Oslash" format="1">
  <advance width="608"/>
  <unicode hex="00D8"/>
  <note>
	Oslash
  </note>
  <outline>
    <contour>
      <point x="187" y="12" type="line"/>
      <point x="217" y="-2"/>
      <point x="252" y="-10"/>
      <point x="293" y="-10" type="curve" smooth="yes"/>
      <point x="486" y="-10"/>
      <point x="544" y="117"/>
      <point x="544" y="315" type="curve" smooth="yes"/>
      <point x="544" y="446"/>
      <point x="516" y="537"/>
      <point x="450" y="584" type="curve"/>
      <point x="488" y="667" type="line"/>
      <point x="448" y="677" type="line"/>
      <point x="414" y="603" type="line"/>
      <point x="386" y="616"/>
      <point x="353" y="622"/>
      <point x="315" y="622" type="curve" smooth="yes"/>
      <point x="123" y="622"/>
      <point x="64" y="494"/>
      <point x="64" y="297" type="curve" smooth="yes"/>
      <point x="64" y="171"/>
      <point x="91" y="82"/>
      <point x="152" y="33" type="curve"/>
      <point x="110" y="-58" type="line"/>
      <point x="150" y="-69" type="line"/>
    </contour>
    <contour>
      <point x="128" y="123"/>
      <point x="111" y="199"/>
      <point x="111" y="308" type="curve" smooth="yes"/>
      <point x="111" y="409"/>
      <point x="132" y="490"/>
      <point x="170" y="549" type="curve"/>
      <point x="202" y="567"/>
      <point x="254" y="577"/>
      <point x="300" y="577" type="curve" smooth="yes"/>
      <point x="338" y="577"/>
      <point x="369" y="571"/>
      <point x="394" y="560" type="curve"/>
      <point x="173" y="79" type="line"/>
    </contour>
    <contour>
      <point x="267" y="35"/>
      <point x="233" y="41"/>
      <point x="207" y="55" type="curve"/>
      <point x="429" y="538" type="line"/>
      <point x="479" y="496"/>
      <point x="498" y="418"/>
      <point x="498" y="304" type="curve" smooth="yes"/>
      <point x="498" y="203"/>
      <point x="475" y="121"/>
      <point x="437" y="63" type="curve"/>
      <point x="405" y="45"/>
      <point x="355" y="35"/>
      <point x="308" y="35" type="curve" smooth="yes"/>
    </contour>
  </outline>
</glyph>
<glyph name="germandbls" format="1">
  <advance width="535"/>
  <unicode hex="00DF"/>
  <note>
	germandbls
  </note>
  <outline>
    <contour>
      <point x="414" y="-9"/>
      <point x="458" y="66"/>
      <point x="458" y="174" type="curve" smooth="yes"/>
      <point x="458" y="262"/>
      <point x="423" y="325"/>
      <point x="315" y="351" type="curve"/>
      <point x="315" y="357" type="line"/>
      <point x="388" y="383"/>
      <point x="421" y="422"/>
      <point x="421" y="503" type="curve" smooth="yes"/>
      <point x="421" y="599"/>
      <point x="361" y="660"/>
      <point x="258" y="660" type="curve" smooth="yes"/>
      <point x="153" y="660"/>
      <point x="83" y="623"/>
      <point x="83" y="532" type="curve" smooth="yes"/>
      <point x="83" y="0" type="line"/>
      <point x="129" y="0" type="line"/>
      <point x="129" y="601" type="line"/>
      <point x="168" y="611"/>
      <point x="206" y="616"/>
      <point x="248" y="616" type="curve" smooth="yes"/>
      <point x="334" y="616"/>
      <point x="375" y="575"/>
      <point x="375" y="499" type="curve" smooth="yes"/>
      <point x="375" y="422"/>
      <point x="334" y="374"/>
      <point x="246" y="374" type="curve"/>
      <point x="246" y="330" type="line"/>
      <point x="364" y="322"/>
      <point x="412" y="267"/>
      <point x="412" y="173" type="curve" smooth="yes"/>
      <point x="412" y="116"/>
      <point x="400" y="77"/>
      <point x="384" y="44" type="curve"/>
      <point x="357" y="35"/>
      <point x="327" y="34"/>
      <point x="295" y="34" type="curve" smooth="yes"/>
      <point x="272" y="34"/>
      <point x="245" y="38"/>
      <point x="224" y="43" type="curve"/>
      <point x="216" y="2" type="line"/>
      <point x="238" y="-4"/>
      <point x="267" y="-9"/>
      <point x="295" y="-9" type="curve" smooth="yes"/>
    </contour>
  </outline>
</glyph>
<glyph name="ccedilla" format="1">
  <advance width="446"/>
  <unicode hex="00E7"/>
  <note>
	ccedilla
  </note>
  <outline>
    <contour>
      <point x="305" y="-216"/>
      <point x="340" y="-190"/>
      <point x="340" y="-132" type="curve" smooth="yes"/>
      <point x="340" y="-86"/>
      <point x="318" y="-59"/>
      <point x="267" y="-59" type="curve" smooth="yes"/>
      <point x="248" y="-59"/>
      <point x="232" y="-62"/>
      <point x="218" y="-68" type="curve"/>
      <point x="262" y="-9" type="line"/>
      <point x="329" y="-8"/>
      <point x="374" y="12"/>
      <point x="412" y="42" type="curve"/>
      <point x="388" y="74" type="line"/>
      <point x="354" y="48"/>
      <point x="313" y="33"/>
      <point x="259" y="33" type="curve" smooth="yes"/>
      <point x="152" y="33"/>
      <point x="102" y="98"/>
      <point x="102" y="213" type="curve" smooth="yes"/>
      <point x="102" y="300"/>
      <point x="117" y="362"/>
      <point x="143" y="413" type="curve"/>
      <point x="174" y="426"/>
      <point x="212" y="432"/>
      <point x="250" y="432" type="curve" smooth="yes"/>
      <point x="283" y="432"/>
      <point x="313" y="428"/>
      <point x="340" y="422" type="curve"/>
      <point x="346" y="344" type="line"/>
      <point x="374" y="344" type="line"/>
      <point x="381" y="361"/>
      <point x="384" y="385"/>
      <point x="384" y="413" type="curve" smooth="yes"/>
      <point x="384" y="437" type="line"/>
      <point x="352" y="458"/>
      <point x="308" y="474"/>
      <point x="253" y="474" type="curve" smooth="yes"/>
      <point x="112" y="474"/>
      <point x="58" y="362"/>
      <point x="58" y="211" type="curve" smooth="yes"/>
      <point x="58" y="87"/>
      <point x="108" y="4"/>
      <point x="227" y="-8" type="curve"/>
      <point x="176" y="-69" type="line"/>
      <point x="207" y="-100" type="line"/>
      <point x="221" y="-95"/>
      <point x="235" y="-94"/>
      <point x="253" y="-94" type="curve" smooth="yes"/>
      <point x="286" y="-94"/>
      <point x="299" y="-108"/>
      <point x="299" y="-136" type="curve" smooth="yes"/>
      <point x="299" y="-150"/>
      <point x="297" y="-164"/>
      <point x="293" y="-173" type="curve"/>
      <point x="278" y="-178"/>
      <point x="264" y="-180"/>
      <point x="241" y="-180" type="curve" smooth="yes"/>
      <point x="217" y="-180"/>
      <point x="192" y="-176"/>
      <point x="170" y="-168" type="curve"/>
      <point x="158" y="-200" type="line"/>
      <point x="188" y="-213"/>
      <point x="213" y="-216"/>
      <point x="239" y="-216" type="curve" smooth="yes"/>
    </contour>
  </outline>
</glyph>
<glyph name="eth" format="1">
  <advance width="557"/>
  <unicode hex="00F0"/>
  <note>
	eth
  </note>
  <outline>
    <contour>
      <point x="427" y="-7"/>
      <point x="456" y="108"/>
      <point x="456" y="249" type="curve" smooth="yes"/>
      <point x="456" y="344"/>
      <point x="440" y="419"/>
      <point x="385" y="495" type="curve"/>
      <point x="481" y="529" type="line"/>
      <point x="466" y="561" type="line"/>
      <point x="362" y="523" type="line"/>
      <point x="328" y="560"/>
      <point x="285" y="589"/>
      <point x="237" y="613" type="curve"/>
      <point x="215" y="584" type="line"/>
      <point x="255" y="565"/>
      <point x="291" y="540"/>
      <point x="324" y="507" type="curve"/>
      <point x="215" y="466" type="line"/>
      <point x="228" y="436" type="line"/>
      <point x="347" y="479" type="line"/>
      <point x="384" y="431"/>
      <point x="408" y="365"/>
      <point x="410" y="285" type="curve"/>
      <point x="405" y="285" type="line"/>
      <point x="374" y="319"/>
      <point x="327" y="348"/>
      <point x="264" y="348" type="curve" smooth="yes"/>
      <point x="159" y="348"/>
      <point x="86" y="287"/>
      <point x="86" y="174" type="curve" smooth="yes"/>
      <point x="86" y="56"/>
      <point x="157" y="-7"/>
      <point x="263" y="-7" type="curve" smooth="yes"/>
    </contour>
    <contour>
      <point x="184" y="35"/>
      <point x="132" y="78"/>
      <point x="132" y="176" type="curve" smooth="yes"/>
      <point x="132" y="262"/>
      <point x="177" y="305"/>
      <point x="270" y="305" type="curve" smooth="yes"/>
      <point x="331" y="305"/>
      <point x="371" y="279"/>
      <point x="408" y="242" type="curve"/>
      <point x="410" y="223"/>
      <point x="410" y="216"/>
      <point x="410" y="200" type="curve" smooth="yes"/>
      <point x="410" y="149"/>
      <point x="401" y="95"/>
      <point x="383" y="56" type="curve"/>
      <point x="347" y="41"/>
      <point x="316" y="35"/>
      <point x="273" y="35" type="curve" smooth="yes"/>
    </contour>
  </outline>
</glyph>
<glyph name="ograve" format="1">
  <advance width="498"/>
  <unicode hex="00F2"/>
  <note>
	ograve
  </note>
  <outline>
    <contour>
      <point x="399" y="-9"/>
      <point x="440" y="102"/>
      <point x="440" y="242" type="curve" smooth="yes"/>
      <point x="440" y="386"/>
      <point x="384" y="481"/>
      <point x="260" y="481" type="curve" smooth="yes"/>
      <point x="99" y="481"/>
      <point x="58" y="367"/>
      <point x="58" y="227" type="curve" smooth="yes"/>
      <point x="58" y="83"/>
      <point x="114" y="-9"/>
      <point x="238" y="-9" type="curve" smooth="yes"/>
    </contour>
    <contour>
      <point x="144" y="31"/>
      <point x="102" y="97"/>
      <point x="102" y="236" type="curve" smooth="yes"/>
      <point x="102" y="309"/>
      <point x="117" y="378"/>
      <point x="139" y="415" type="curve"/>
      <point x="168" y="432"/>
      <point x="206" y="439"/>
      <point x="248" y="439" type="curve" smooth="yes"/>
      <point x="353" y="439"/>
      <point x="395" y="372"/>
      <point x="395" y="231" type="curve" smooth="yes"/>
      <point x="395" y="159"/>
      <point x="380" y="92"/>
      <point x="358" y="55" type="curve"/>
      <point x="329" y="39"/>
      <point x="291" y="31"/>
      <point x="249" y="31" type="curve" smooth="yes"/>
    </contour>
    <contour>
      <point x="282" y="568" type="line"/>
      <point x="198" y="709" type="line"/>
      <point x="136" y="702" type="line"/>
      <point x="250" y="563" type="line"/>
    </contour>
  </outline>
</glyph>
<glyph name="odieresis" format="1">
  <advance width="498"/>
  <unicode hex="00F6"/>
  <note>
	odieresis
  </note>
  <outline>
    <contour>
      <point x="399" y="-9"/>
      <point x="440" y="102"/>
      <point x="440" y="242" type="curve" smooth="yes"/>
      <point x="440" y="386"/>
      <point x="384" y="481"/>
      <point x="260" y="481" type="curve" smooth="yes"/>
      <point x="99" y="481"/>
      <point x="58" y="367"/>
      <point x="58" y="227" type="curve" smooth="yes"/>
      <point x="58" y="83"/>
      <point x="114" y="-9"/>
      <point x="238" y="-9" type="curve" smooth="yes"/>
    </contour>
    <contour>
      <point x="144" y="31"/>
      <point x="102" y="97"/>
      <point x="102" y="236" type="curve" smooth="yes"/>
      <point x="102" y="309"/>
      <point x="117" y="378"/>
      <point x="139" y="415" type="curve"/>
      <point x="168" y="432"/>
      <point x="206" y="439"/>
      <point x="248" y="439" type="curve" smooth="yes"/>
      <point x="353" y="439"/>
      <point x="395" y="372"/>
      <point x="395" y="231" type="curve" smooth="yes"/>
      <point x="395" y="159"/>
      <point x="380" y="92"/>
      <point x="358" y="55" type="curve"/>
      <point x="329" y="39"/>
      <point x="291" y="31"/>
      <point x="249" y="31" type="curve" smooth="yes"/>
    </contour>
    <contour>
      <point x="189" y="561"/>
      <point x="201" y="572"/>
      <point x="201" y="592" type="curve" smooth="yes"/>
      <point x="201" y="613"/>
      <point x="189" y="624"/>
      <point x="169" y="624" type="curve" smooth="yes"/>
      <point x="149" y="624"/>
      <point x="136" y="613"/>
      <point x="136" y="592" type="curve" smooth="yes"/>
      <point x="136" y="572"/>
      <point x="149" y="561"/>
      <point x="169" y="561" type="curve" smooth="yes"/>
    </contour>
    <contour>
      <point x="347" y="561"/>
      <point x="359" y="572"/>
      <point x="359" y="592" type="curve" smooth="yes"/>
      <point x="359" y="613"/>
      <point x="347" y="624"/>
      <point x="327" y="624" type="curve" smooth="yes"/>
      <point x="306" y="624"/>
      <point x="293" y="613"/>
      <point x="293" y="592" type="curve" smooth="yes"/>
      <point x="293" y="572"/>
      <point x="306" y="561"/>
      <point x="327" y="561" type="curve" smooth="yes"/>
    </contour>
  </outline>
</glyph>
<glyph name="oslash" format="1">
  <advance width="498"/>
  <unicode hex="00F8"/>
  <note>
	oslash
  </note>
  <outline>
    <contour>
      <point x="414" y="539" type="line"/>
      <point x="374" y="548" type="line"/>
      <point x="79" y="-94" type="line"/>
      <point x="119" y="-104" type="line"/>
    </contour>
    <contour>
      <point x="399" y="-9"/>
      <point x="440" y="102"/>
      <point x="440" y="242" type="curve" smooth="yes"/>
      <point x="440" y="386"/>
      <point x="384" y="481"/>
      <point x="260" y="481" type="curve" smooth="yes"/>
      <point x="99" y="481"/>
      <point x="58" y="367"/>
      <point x="58" y="227" type="curve" smooth="yes"/>
      <point x="58" y="83"/>
      <point x="114" y="-9"/>
      <point x="238" y="-9" type="curve" smooth="yes"/>
    </contour>
    <contour>
      <point x="144" y="31"/>
      <point x="102" y="97"/>
      <point x="102" y="236" type="curve" smooth="yes"/>
      <point x="102" y="309"/>
      <point x="117" y="378"/>
      <point x="139" y="415" type="curve"/>
      <point x="168" y="432"/>
      <point x="206" y="439"/>
      <point x="248" y="439" type="curve" smooth="yes"/>
      <point x="353" y="439"/>
      <point x="395" y="372"/>
      <point x="395" y="231" type="curve" smooth="yes"/>
      <point x="395" y="159"/>
      <point x="380" y="92"/>
      <point x="358" y="55" type="curve"/>
      <point x="329" y="39"/>
      <point x="291" y="31"/>
      <point x="249" y="31" type="curve" smooth="yes"/>
    </contour>
  </outline>
</glyph>
<glyph name="thorn" format="1">
  <advance width="481"/>
  <unicode hex="00FE"/>
  <note>
	thorn
  </note>
  <outline>
    <contour>
      <point x="133" y="-180" type="line"/>
      <point x="133" y="112" type="line"/>
      <point x="139" y="112" type="line"/>
      <point x="178" y="84"/>
      <point x="221" y="69"/>
      <point x="275" y="69" type="curve" smooth="yes"/>
      <point x="382" y="69"/>
      <point x="430" y="150"/>
      <point x="430" y="266" type="curve" smooth="yes"/>
      <point x="430" y="384"/>
      <point x="388" y="459"/>
      <point x="279" y="459" type="curve" smooth="yes"/>
      <point x="222" y="459"/>
      <point x="179" y="439"/>
      <point x="139" y="413" type="curve"/>
      <point x="133" y="413" type="line"/>
      <point x="133" y="672" type="line"/>
      <point x="86" y="672" type="line"/>
      <point x="86" y="-180" type="line"/>
    </contour>
    <contour>
      <point x="212" y="113"/>
      <point x="175" y="128"/>
      <point x="133" y="151" type="curve"/>
      <point x="133" y="373" type="line"/>
      <point x="174" y="399"/>
      <point x="218" y="415"/>
      <point x="264" y="415" type="curve" smooth="yes"/>
      <point x="359" y="415"/>
      <point x="383" y="360"/>
      <point x="383" y="266" type="curve" smooth="yes"/>
      <point x="383" y="174"/>
      <point x="356" y="113"/>
      <point x="264" y="113" type="curve" smooth="yes"/>
    </contour>
  </outline>
</glyph>
<glyph name="ydieresis" format="1">
  <advance width="482"/>
  <unicode hex="00FF"/>
  <note>
	ydieresis
  </note>
  <outline>
    <contour>
      <point x="191" y="-183"/>
      <point x="231" y="-165"/>
      <point x="252" y="-116" type="curve" smooth="yes"/>
      <point x="316" y="40"/>
      <point x="385" y="251"/>
      <point x="436" y="465" type="curve"/>
      <point x="391" y="470" type="line"/>
      <point x="359" y="335"/>
      <point x="316" y="186"/>
      <point x="276" y="63" type="curve"/>
      <point x="219" y="63" type="line"/>
      <point x="173" y="178"/>
      <point x="128" y="317"/>
      <point x="86" y="470" type="curve"/>
      <point x="41" y="465" type="line"/>
      <point x="85" y="309"/>
      <point x="126" y="187"/>
      <point x="193" y="22" type="curve"/>
      <point x="261" y="22" type="line"/>
      <point x="242" y="-35"/>
      <point x="219" y="-96"/>
      <point x="200" y="-138" type="curve"/>
      <point x="185" y="-142"/>
      <point x="171" y="-144"/>
      <point x="152" y="-144" type="curve" smooth="yes"/>
      <point x="130" y="-144"/>
      <point x="118" y="-143"/>
      <point x="103" y="-140" type="curve"/>
      <point x="103" y="-91" type="line"/>
      <point x="70" y="-91" type="line"/>
      <point x="65" y="-110"/>
      <point x="62" y="-127"/>
      <point x="62" y="-146" type="curve" smooth="yes"/>
      <point x="62" y="-168" type="line"/>
      <point x="81" y="-177"/>
      <point x="108" y="-183"/>
      <point x="140" y="-183" type="curve" smooth="yes"/>
    </contour>
    <contour>
      <point x="183" y="561"/>
      <point x="195" y="572"/>
      <point x="195" y="592" type="curve" smooth="yes"/>
      <point x="195" y="613"/>
      <point x="183" y="624"/>
      <point x="163" y="624" type="curve" smooth="yes"/>
      <point x="143" y="624"/>
      <point x="130" y="613"/>
      <point x="130" y="592" type="curve" smooth="yes"/>
      <point x="130" y="572"/>
      <point x="143" y="561"/>
      <point x="163" y="561" type="curve" smooth="yes"/>
    </contour>
    <contour>
      <point x="341" y="561"/>
      <point x="353" y="572"/>
      <point x="353" y="592" type="curve" smooth="yes"/>
      <point x="353" y="613"/>
      <point x="341" y="624"/>
      <point x="321" y="624" type="curve" smooth="yes"/>
      <point x="300" y="624"/>
      <point x="287" y="613"/>
      <point x="287" y="592" type="curve" smooth="yes"/>
      <point x="287" y="572"/>
      <point x="300" y="561"/>
      <point x="321" y="561" type="curve" smooth="yes"/>
    </contour>
  </outline>
</glyph>
<glyph name="Amacron" format="1">
  <advance width="580"/>
  <unicode hex="0100"/>
  <note>
	Amacron
  </note>
  <outline>
    <contour>
      <point x="392" y="714" type="line"/>
      <point x="392" y="755" type="line"/>
      <point x="186" y="755" type="line"/>
      <point x="186" y="714" type="line"/>
    </contour>
    <component base="A"/>
  </outline>
</glyph>
<glyph name="Aogonek" format="1">
  <advance width="580"/>
  <unicode hex="0104"/>
  <note>
	Aogonek
  </note>
  <outline>
    <contour>
      <point x="525" y="-161"/>
      <point x="541" y="-157"/>
      <point x="557" y="-150" type="curve"/>
      <point x="549" y="-118" type="line"/>
      <point x="534" y="-122"/>
      <point x="521" y="-123"/>
      <point x="508" y="-123" type="curve" smooth="yes"/>
      <point x="493" y="-123"/>
      <point x="482" y="-122"/>
      <point x="469" y="-119" type="curve"/>
      <point x="463" y="-109"/>
      <point x="461" y="-96"/>
      <point x="461" y="-84" type="curve" smooth="yes"/>
      <point x="461" y="-47"/>
      <point x="475" y="-23"/>
      <point x="520" y="4" type="curve"/>
      <point x="536" y="6" type="line"/>
      <point x="481" y="205"/>
      <point x="411" y="432"/>
      <point x="344" y="612" type="curve"/>
      <point x="236" y="612" type="line"/>
      <point x="169" y="432"/>
      <point x="99" y="205"/>
      <point x="44" y="6" type="curve"/>
      <point x="93" y="0" type="line"/>
      <point x="110" y="66"/>
      <point x="133" y="147"/>
      <point x="153" y="215" type="curve"/>
      <point x="426" y="215" type="line"/>
      <point x="444" y="151"/>
      <point x="466" y="74"/>
      <point x="485" y="9" type="curve"/>
      <point x="441" y="-11"/>
      <point x="418" y="-42"/>
      <point x="418" y="-85" type="curve" smooth="yes"/>
      <point x="418" y="-131"/>
      <point x="447" y="-161"/>
      <point x="500" y="-161" type="curve" smooth="yes"/>
    </contour>
    <contour>
      <point x="197" y="363"/>
      <point x="240" y="496"/>
      <point x="266" y="567" type="curve"/>
      <point x="312" y="567" type="line"/>
      <point x="339" y="496"/>
      <point x="381" y="363"/>
      <point x="412" y="258" type="curve"/>
      <point x="166" y="258" type="line"/>
    </contour>
  </outline>
</glyph>
<glyph name="Cacute" format="1">
  <advance width="547"/>
  <unicode hex="0106"/>
  <note>
	Cacute
  </note>
  <outline>
    <contour>
      <point x="394" y="-9"/>
      <point x="456" y="8"/>
      <point x="499" y="40" type="curve"/>
      <point x="476" y="76" type="line"/>
      <point x="434" y="49"/>
      <point x="383" y="35"/>
      <point x="317" y="35" type="curve" smooth="yes"/>
      <point x="173" y="35"/>
      <point x="107" y="121"/>
      <point x="107" y="295" type="curve" smooth="yes"/>
      <point x="107" y="402"/>
      <point x="132" y="488"/>
      <point x="184" y="558" type="curve"/>
      <point x="229" y="572"/>
      <point x="269" y="577"/>
      <point x="311" y="577" type="curve" smooth="yes"/>
      <point x="358" y="577"/>
      <point x="393" y="573"/>
      <point x="425" y="566" type="curve"/>
      <point x="436" y="482" type="line"/>
      <point x="464" y="482" type="line"/>
      <point x="469" y="497"/>
      <point x="472" y="525"/>
      <point x="472" y="547" type="curve" smooth="yes"/>
      <point x="472" y="585" type="line"/>
      <point x="437" y="605"/>
      <point x="382" y="622"/>
      <point x="312" y="622" type="curve" smooth="yes"/>
      <point x="134" y="622"/>
      <point x="60" y="477"/>
      <point x="60" y="293" type="curve" smooth="yes"/>
      <point x="60" y="100"/>
      <point x="142" y="-9"/>
      <point x="315" y="-9" type="curve" smooth="yes"/>
    </contour>
    <contour>
      <point x="432" y="847" type="line"/>
      <point x="370" y="854" type="line"/>
      <point x="286" y="713" type="line"/>
      <point x="318" y="708" type="line"/>
    </contour>
  </outline>
</glyph>
<glyph name="Ccaron" format="1">
  <advance width="545"/>
  <unicode hex="010C"/>
  <note>
	Ccaron
  </note>
  <outline>
    <contour>
      <point x="391" y="-9"/>
      <point x="453" y="8"/>
      <point x="496" y="40" type="curve"/>
      <point x="473" y="76" type="line"/>
      <point x="431" y="49"/>
      <point x="380" y="35"/>
      <point x="314" y="35" type="curve" smooth="yes"/>
      <point x="170" y="35"/>
      <point x="104" y="121"/>
      <point x="104" y="295" type="curve" smooth="yes"/>
      <point x="104" y="402"/>
      <point x="129" y="488"/>
      <point x="181" y="558" type="curve"/>
      <point x="226" y="572"/>
      <point x="266" y="577"/>
      <point x="308" y="577" type="curve" smooth="yes"/>
      <point x="355" y="577"/>
      <point x="390" y="573"/>
      <point x="422" y="566" type="curve"/>
      <point x="433" y="482" type="line"/>
      <point x="461" y="482" type="line"/>
      <point x="466" y="497"/>
      <point x="469" y="525"/>
      <point x="469" y="547" type="curve" smooth="yes"/>
      <point x="469" y="585" type="line"/>
      <point x="434" y="605"/>
      <point x="379" y="622"/>
      <point x="309" y="622" type="curve" smooth="yes"/>
      <point x="131" y="622"/>
      <point x="57" y="477"/>
      <point x="57" y="293" type="curve" smooth="yes"/>
      <point x="57" y="100"/>
      <point x="139" y="-9"/>
      <point x="312" y="-9" type="curve" smooth="yes"/>
    </contour>
    <contour>
      <point x="328" y="714" type="line"/>
      <point x="429" y="845" type="line"/>
      <point x="399" y="852" type="line"/>
      <point x="306" y="754" type="line"/>
      <point x="301" y="754" type="line"/>
      <point x="207" y="852" type="line"/>
      <point x="177" y="845" type="line"/>
      <point x="279" y="714" type="line"/>
    </contour>
  </outline>
</glyph>
<glyph name="dcaron" format="1">
  <advance width="554"/>
  <unicode hex="010F"/>
  <note>
	dcaron
  </note>
  <outline>
    <contour>
      <point x="302" y="-9"/>
      <point x="352" y="27"/>
      <point x="381" y="68" type="curve"/>
      <point x="388" y="68" type="line"/>
      <point x="391" y="0" type="line"/>
      <point x="428" y="0" type="line"/>
      <point x="428" y="667" type="line"/>
      <point x="383" y="667" type="line"/>
      <point x="383" y="494" type="line"/>
      <point x="387" y="410" type="line"/>
      <point x="381" y="410" type="line"/>
      <point x="340" y="448"/>
      <point x="296" y="474"/>
      <point x="234" y="474" type="curve" smooth="yes"/>
      <point x="106" y="474"/>
      <point x="59" y="355"/>
      <point x="59" y="234" type="curve" smooth="yes"/>
      <point x="59" y="83"/>
      <point x="109" y="-9"/>
      <point x="235" y="-9" type="curve" smooth="yes"/>
    </contour>
    <contour>
      <point x="136" y="31"/>
      <point x="104" y="106"/>
      <point x="104" y="231" type="curve" smooth="yes"/>
      <point x="104" y="360"/>
      <point x="147" y="433"/>
      <point x="245" y="433" type="curve" smooth="yes"/>
      <point x="299" y="433"/>
      <point x="335" y="414"/>
      <point x="382" y="370" type="curve"/>
      <point x="382" y="117" type="line"/>
      <point x="358" y="74"/>
      <point x="313" y="31"/>
      <point x="244" y="31" type="curve" smooth="yes"/>
    </contour>
    <contour>
      <point x="566" y="518"/>
      <point x="582" y="561"/>
      <point x="582" y="606" type="curve" smooth="yes"/>
      <point x="582" y="647"/>
      <point x="564" y="668"/>
      <point x="526" y="668" type="curve" smooth="yes"/>
      <point x="512" y="668"/>
      <point x="499" y="666"/>
      <point x="488" y="662" type="curve"/>
      <point x="488" y="629" type="line"/>
      <point x="543" y="629" type="line"/>
      <point x="543" y="569"/>
      <point x="530" y="529"/>
      <point x="507" y="488" type="curve"/>
      <point x="537" y="482" type="line"/>
    </contour>
  </outline>
</glyph>
<glyph name="Dcroat" format="1">
  <advance width="604"/>
  <unicode hex="0110"/>
  <note>
	Dcroat
  </note>
  <outline>
    <contour>
      <point x="296" y="0" type="line" smooth="yes"/>
      <point x="503" y="0"/>
      <point x="553" y="148"/>
      <point x="553" y="317" type="curve" smooth="yes"/>
      <point x="553" y="515"/>
      <point x="477" y="622"/>
      <point x="287" y="622" type="curve" smooth="yes"/>
      <point x="228" y="622"/>
      <point x="177" y="615"/>
      <point x="126" y="605" type="curve"/>
      <point x="126" y="328" type="line"/>
      <point x="45" y="328" type="line"/>
      <point x="45" y="286" type="line"/>
      <point x="126" y="286" type="line"/>
      <point x="126" y="0" type="line"/>
    </contour>
    <contour>
      <point x="173" y="286" type="line"/>
      <point x="271" y="286" type="line"/>
      <point x="271" y="328" type="line"/>
      <point x="173" y="328" type="line"/>
      <point x="173" y="569" type="line"/>
      <point x="215" y="575"/>
      <point x="246" y="578"/>
      <point x="283" y="578" type="curve" smooth="yes"/>
      <point x="444" y="578"/>
      <point x="506" y="495"/>
      <point x="506" y="312" type="curve" smooth="yes"/>
      <point x="506" y="202"/>
      <point x="481" y="115"/>
      <point x="434" y="63" type="curve"/>
      <point x="391" y="49"/>
      <point x="352" y="44"/>
      <point x="293" y="44" type="curve" smooth="yes"/>
      <point x="173" y="44" type="line"/>
    </contour>
  </outline>
</glyph>
<glyph name="Emacron" format="1">
  <advance width="520"/>
  <unicode hex="0112"/>
  <note>
	Emacron
  </note>
  <outline>
    <contour>
      <point x="354" y="-9"/>
      <point x="404" y="-4"/>
      <point x="453" y="7" type="curve"/>
      <point x="442" y="49" type="line"/>
      <point x="394" y="39"/>
      <point x="345" y="34"/>
      <point x="288" y="34" type="curve" smooth="yes"/>
      <point x="227" y="34"/>
      <point x="185" y="38"/>
      <point x="133" y="48" type="curve"/>
      <point x="133" y="286" type="line"/>
      <point x="412" y="286" type="line"/>
      <point x="412" y="330" type="line"/>
      <point x="133" y="330" type="line"/>
      <point x="133" y="568" type="line"/>
      <point x="441" y="568" type="line"/>
      <point x="441" y="612" type="line"/>
      <point x="86" y="612" type="line"/>
      <point x="86" y="61" type="line" smooth="yes"/>
      <point x="86" y="7"/>
      <point x="176" y="-9"/>
      <point x="285" y="-9" type="curve" smooth="yes"/>
    </contour>
    <contour>
      <point x="399" y="714" type="line"/>
      <point x="399" y="755" type="line"/>
      <point x="129" y="755" type="line"/>
      <point x="129" y="714" type="line"/>
    </contour>
  </outline>
</glyph>
<glyph name="Ebreve" format="1">
  <advance width="520"/>
  <unicode hex="0114"/>
  <note>
	Ebreve
  </note>
  <outline>
    <contour>
      <point x="354" y="-9"/>
      <point x="404" y="-4"/>
      <point x="453" y="7" type="curve"/>
      <point x="442" y="49" type="line"/>
      <point x="394" y="39"/>
      <point x="345" y="34"/>
      <point x="288" y="34" type="curve" smooth="yes"/>
      <point x="227" y="34"/>
      <point x="185" y="38"/>
      <point x="133" y="48" type="curve"/>
      <point x="133" y="286" type="line"/>
      <point x="412" y="286" type="line"/>
      <point x="412" y="330" type="line"/>
      <point x="133" y="330" type="line"/>
      <point x="133" y="568" type="line"/>
      <point x="441" y="568" type="line"/>
      <point x="441" y="612" type="line"/>
      <point x="86" y="612" type="line"/>
      <point x="86" y="61" type="line" smooth="yes"/>
      <point x="86" y="7"/>
      <point x="176" y="-9"/>
      <point x="285" y="-9" type="curve" smooth="yes"/>
    </contour>
    <contour>
      <point x="349" y="709"/>
      <point x="383" y="753"/>
      <point x="394" y="810" type="curve"/>
      <point x="349" y="817" type="line"/>
      <point x="341" y="776"/>
      <point x="326" y="748"/>
      <point x="272" y="748" type="curve" smooth="yes"/>
      <point x="218" y="748"/>
      <point x="203" y="776"/>
      <point x="195" y="817" type="curve"/>
      <point x="150" y="810" type="line"/>
      <point x="161" y="753"/>
      <point x="195" y="709"/>
      <point x="272" y="709" type="curve" smooth="yes"/>
    </contour>
  </outline>
</glyph>
<glyph name="imacron" format="1">
  <advance width="225"/>
  <unicode hex="012B"/>
  <note>
	imacron
  </note>
  <outline>
    <contour>
      <point x="134" y="0" type="line"/>
      <point x="134" y="465" type="line"/>
      <point x="90" y="465" type="line"/>
      <point x="90" y="0" type="line"/>
    </contour>
    <contour>
      <point x="247" y="566" type="line"/>
      <point x="247" y="606" type="line"/>
      <point x="-24" y="606" type="line"/>
      <point x="-24" y="566" type="line"/>
    </contour>
  </outline>
</glyph>
<glyph name="dotlessi" format="1">
  <advance width="218"/>
  <unicode hex="0131"/>
  <note>
	dotlessi
  </note>
  <outline>
    <contour>
      <point x="131" y="0" type="line"/>
      <point x="131" y="465" type="line"/>
      <point x="87" y="465" type="line"/>
      <point x="87" y="0" type="line"/>
    </contour>
  </outline>
</glyph>
<glyph name="IJ" format="1">
  <advance width="647"/>
  <unicode hex="0132"/>
  <note>
	IJ
  </note>
  <outline>
    <contour>
      <point x="505" y="-9"/>
      <point x="564" y="29"/>
      <point x="564" y="116" type="curve" smooth="yes"/>
      <point x="564" y="616" type="line"/>
      <point x="517" y="616" type="line"/>
      <point x="517" y="119" type="line" smooth="yes"/>
      <point x="517" y="92"/>
      <point x="514" y="74"/>
      <point x="508" y="57" type="curve"/>
      <point x="485" y="44"/>
      <point x="450" y="34"/>
      <point x="404" y="34" type="curve" smooth="yes"/>
      <point x="359" y="34"/>
      <point x="315" y="43"/>
      <point x="281" y="56" type="curve"/>
      <point x="268" y="14" type="line"/>
      <point x="306" y="0"/>
      <point x="355" y="-9"/>
      <point x="400" y="-9" type="curve" smooth="yes"/>
    </contour>
    <contour>
      <point x="136" y="0" type="line"/>
      <point x="136" y="612" type="line"/>
      <point x="89" y="612" type="line"/>
      <point x="89" y="0" type="line"/>
    </contour>
  </outline>
</glyph>
<glyph name="kgreenlandic" format="1">
  <advance width="495"/>
  <unicode hex="0138"/>
  <note>
	kgreenlandic
  </note>
  <outline>
    <contour>
      <point x="429" y="-4"/>
      <point x="438" y="-3"/>
      <point x="449" y="1" type="curve"/>
      <point x="449" y="24" type="line"/>
      <point x="415" y="32" type="line"/>
      <point x="362" y="155" type="line" smooth="yes"/>
      <point x="340" y="205"/>
      <point x="321" y="226"/>
      <point x="270" y="243" type="curve"/>
      <point x="270" y="249" type="line"/>
      <point x="321" y="268"/>
      <point x="341" y="293"/>
      <point x="359" y="334" type="curve" smooth="yes"/>
      <point x="414" y="460" type="line"/>
      <point x="370" y="474" type="line"/>
      <point x="316" y="347" type="line" smooth="yes"/>
      <point x="297" y="302"/>
      <point x="271" y="266"/>
      <point x="187" y="266" type="curve" smooth="yes"/>
      <point x="125" y="266" type="line"/>
      <point x="125" y="477" type="line"/>
      <point x="81" y="477" type="line"/>
      <point x="81" y="0" type="line"/>
      <point x="125" y="0" type="line"/>
      <point x="125" y="227" type="line"/>
      <point x="192" y="227" type="line" smooth="yes"/>
      <point x="276" y="227"/>
      <point x="299" y="187"/>
      <point x="325" y="128" type="curve" smooth="yes"/>
      <point x="371" y="26" type="line" smooth="yes"/>
      <point x="380" y="5"/>
      <point x="393" y="-4"/>
      <point x="416" y="-4" type="curve" smooth="yes"/>
    </contour>
  </outline>
</glyph>
<glyph name="lacute" format="1">
  <advance width="265"/>
  <unicode hex="013A"/>
  <note>
	lacute
  </note>
  <outline>
    <contour>
      <point x="180" y="-1"/>
      <point x="210" y="15"/>
      <point x="234" y="38" type="curve"/>
      <point x="214" y="63" type="line"/>
      <point x="148" y="32" type="line"/>
      <point x="133" y="32" type="line"/>
      <point x="125" y="47"/>
      <point x="123" y="55"/>
      <point x="123" y="80" type="curve" smooth="yes"/>
      <point x="123" y="667" type="line"/>
      <point x="79" y="667" type="line"/>
      <point x="79" y="69" type="line" smooth="yes"/>
      <point x="79" y="41"/>
      <point x="114" y="7"/>
      <point x="142" y="-7" type="curve"/>
    </contour>
    <contour>
      <point x="225" y="848" type="line"/>
      <point x="163" y="854" type="line"/>
      <point x="79" y="714" type="line"/>
      <point x="111" y="708" type="line"/>
    </contour>
  </outline>
</glyph>
<glyph name="Lcommaaccent" format="1">
  <advance width="455"/>
  <unicode hex="013B"/>
  <note>
	Lcommaaccent
  </note>
  <outline>
    <contour>
      <point x="421" y="0" type="line"/>
      <point x="421" y="44" type="line"/>
      <point x="133" y="44" type="line"/>
      <point x="133" y="612" type="line"/>
      <point x="86" y="612" type="line"/>
      <point x="86" y="0" type="line"/>
    </contour>
    <contour>
      <point x="289" y="-198"/>
      <point x="305" y="-156"/>
      <point x="305" y="-110" type="curve" smooth="yes"/>
      <point x="305" y="-70"/>
      <point x="287" y="-48"/>
      <point x="249" y="-48" type="curve" smooth="yes"/>
      <point x="235" y="-48"/>
      <point x="222" y="-51"/>
      <point x="211" y="-55" type="curve"/>
      <point x="211" y="-88" type="line"/>
      <point x="266" y="-88" type="line"/>
      <point x="266" y="-148"/>
      <point x="253" y="-187"/>
      <point x="230" y="-228" type="curve"/>
      <point x="260" y="-235" type="line"/>
    </contour>
  </outline>
</glyph>
<glyph name="lcommaaccent" format="1">
  <advance width="263"/>
  <unicode hex="013C"/>
  <note>
	lcommaaccent
  </note>
  <outline>
    <contour>
      <point x="180" y="-1"/>
      <point x="210" y="15"/>
      <point x="234" y="38" type="curve"/>
      <point x="214" y="63" type="line"/>
      <point x="148" y="32" type="line"/>
      <point x="133" y="32" type="line"/>
      <point x="125" y="47"/>
      <point x="123" y="55"/>
      <point x="123" y="80" type="curve" smooth="yes"/>
      <point x="123" y="667" type="line"/>
      <point x="79" y="667" type="line"/>
      <point x="79" y="69" type="line" smooth="yes"/>
      <point x="79" y="41"/>
      <point x="114" y="7"/>
      <point x="142" y="-7" type="curve"/>
    </contour>
    <contour>
      <point x="176" y="-198"/>
      <point x="192" y="-156"/>
      <point x="192" y="-110" type="curve" smooth="yes"/>
      <point x="192" y="-70"/>
      <point x="174" y="-48"/>
      <point x="136" y="-48" type="curve" smooth="yes"/>
      <point x="122" y="-48"/>
      <point x="109" y="-51"/>
      <point x="98" y="-55" type="curve"/>
      <point x="98" y="-88" type="line"/>
      <point x="153" y="-88" type="line"/>
      <point x="153" y="-148"/>
      <point x="140" y="-187"/>
      <point x="117" y="-228" type="curve"/>
      <point x="147" y="-235" type="line"/>
    </contour>
  </outline>
</glyph>
<glyph name="Lcaron" format="1">
  <advance width="455"/>
  <unicode hex="013D"/>
  <note>
	Lcaron
  </note>
  <outline>
    <contour>
      <point x="421" y="0" type="line"/>
      <point x="421" y="44" type="line"/>
      <point x="133" y="44" type="line"/>
      <point x="133" y="612" type="line"/>
      <point x="86" y="612" type="line"/>
      <point x="86" y="0" type="line"/>
    </contour>
    <contour>
      <point x="311" y="463"/>
      <point x="327" y="506"/>
      <point x="327" y="551" type="curve" smooth="yes"/>
      <point x="327" y="592"/>
      <point x="309" y="613"/>
      <point x="271" y="613" type="curve" smooth="yes"/>
      <point x="257" y="613"/>
      <point x="244" y="611"/>
      <point x="233" y="607" type="curve"/>
      <point x="233" y="574" type="line"/>
      <point x="288" y="574" type="line"/>
      <point x="288" y="514"/>
      <point x="275" y="474"/>
      <point x="252" y="433" type="curve"/>
      <point x="282" y="427" type="line"/>
    </contour>
  </outline>
</glyph>
<glyph name="Ldot" format="1">
  <advance width="455"/>
  <unicode hex="013F"/>
  <note>
	Ldot
  </note>
  <outline>
    <contour>
      <point x="421" y="0" type="line"/>
      <point x="421" y="44" type="line"/>
      <point x="133" y="44" type="line"/>
      <point x="133" y="612" type="line"/>
      <point x="86" y="612" type="line"/>
      <point x="86" y="0" type="line"/>
    </contour>
    <contour>
      <point x="301" y="252"/>
      <point x="318" y="267"/>
      <point x="318" y="292" type="curve" smooth="yes"/>
      <point x="318" y="319"/>
      <point x="301" y="335"/>
      <point x="275" y="335" type="curve" smooth="yes"/>
      <point x="250" y="335"/>
      <point x="232" y="319"/>
      <point x="232" y="292" type="curve" smooth="yes"/>
      <point x="232" y="267"/>
      <point x="249" y="252"/>
      <point x="275" y="252" type="curve" smooth="yes"/>
    </contour>
  </outline>
</glyph>
<glyph name="Ncommaaccent" format="1">
  <advance width="610"/>
  <unicode hex="0145"/>
  <note>
	Ncommaaccent
  </note>
  <outline>
    <contour>
      <point x="133" y="0" type="line"/>
      <point x="133" y="324" type="line"/>
      <point x="125" y="538" type="line"/>
      <point x="132" y="540" type="line"/>
      <point x="471" y="0" type="line"/>
      <point x="524" y="0" type="line"/>
      <point x="524" y="612" type="line"/>
      <point x="477" y="612" type="line"/>
      <point x="477" y="288" type="line"/>
      <point x="484" y="74" type="line"/>
      <point x="478" y="72" type="line"/>
      <point x="139" y="612" type="line"/>
      <point x="86" y="612" type="line"/>
      <point x="86" y="0" type="line"/>
    </contour>
    <contour>
      <point x="351" y="-198"/>
      <point x="367" y="-156"/>
      <point x="367" y="-110" type="curve" smooth="yes"/>
      <point x="367" y="-70"/>
      <point x="349" y="-48"/>
      <point x="311" y="-48" type="curve" smooth="yes"/>
      <point x="297" y="-48"/>
      <point x="284" y="-51"/>
      <point x="273" y="-55" type="curve"/>
      <point x="273" y="-88" type="line"/>
      <point x="328" y="-88" type="line"/>
      <point x="328" y="-148"/>
      <point x="315" y="-187"/>
      <point x="292" y="-228" type="curve"/>
      <point x="322" y="-235" type="line"/>
    </contour>
  </outline>
</glyph>
<glyph name="Ncaron" format="1">
  <advance width="610"/>
  <unicode hex="0147"/>
  <note>
	Ncaron
  </note>
  <outline>
    <contour>
      <point x="133" y="0" type="line"/>
      <point x="133" y="324" type="line"/>
      <point x="125" y="538" type="line"/>
      <point x="132" y="540" type="line"/>
      <point x="471" y="0" type="line"/>
      <point x="524" y="0" type="line"/>
      <point x="524" y="612" type="line"/>
      <point x="477" y="612" type="line"/>
      <point x="477" y="288" type="line"/>
      <point x="484" y="74" type="line"/>
      <point x="478" y="72" type="line"/>
      <point x="139" y="612" type="line"/>
      <point x="86" y="612" type="line"/>
      <point x="86" y="0" type="line"/>
    </contour>
    <contour>
      <point x="343" y="714" type="line"/>
      <point x="444" y="845" type="line"/>
      <point x="414" y="852" type="line"/>
      <point x="321" y="754" type="line"/>
      <point x="316" y="754" type="line"/>
      <point x="222" y="852" type="line"/>
      <point x="192" y="845" type="line"/>
      <point x="294" y="714" type="line"/>
    </contour>
  </outline>
</glyph>
<glyph name="ncaron" format="1">
  <advance width="510"/>
  <unicode hex="0148"/>
  <note>
	ncaron
  </note>
  <outline>
    <contour>
      <point x="130" y="0" type="line"/>
      <point x="130" y="360" type="line"/>
      <point x="171" y="402"/>
      <point x="237" y="433"/>
      <point x="304" y="433" type="curve" smooth="yes"/>
      <point x="337" y="433"/>
      <point x="359" y="429"/>
      <point x="385" y="420" type="curve"/>
      <point x="385" y="0" type="line"/>
      <point x="430" y="0" type="line"/>
      <point x="430" y="383" type="line" smooth="yes"/>
      <point x="430" y="448"/>
      <point x="389" y="474"/>
      <point x="313" y="474" type="curve" smooth="yes"/>
      <point x="244" y="474"/>
      <point x="185" y="446"/>
      <point x="132" y="397" type="curve"/>
      <point x="125" y="397" type="line"/>
      <point x="122" y="466" type="line"/>
      <point x="85" y="466" type="line"/>
      <point x="85" y="0" type="line"/>
    </contour>
    <contour>
      <point x="295" y="566" type="line"/>
      <point x="396" y="697" type="line"/>
      <point x="366" y="704" type="line"/>
      <point x="273" y="606" type="line"/>
      <point x="268" y="606" type="line"/>
      <point x="174" y="704" type="line"/>
      <point x="144" y="697" type="line"/>
      <point x="246" y="566" type="line"/>
    </contour>
  </outline>
</glyph>
<glyph name="Omacron" format="1">
  <advance width="602"/>
  <unicode hex="014C"/>
  <note>
	Omacron
  </note>
  <outline>
    <contour>
      <point x="483" y="-9"/>
      <point x="541" y="117"/>
      <point x="541" y="315" type="curve" smooth="yes"/>
      <point x="541" y="515"/>
      <point x="474" y="622"/>
      <point x="312" y="622" type="curve" smooth="yes"/>
      <point x="120" y="622"/>
      <point x="61" y="494"/>
      <point x="61" y="297" type="curve" smooth="yes"/>
      <point x="61" y="97"/>
      <point x="131" y="-9"/>
      <point x="290" y="-9" type="curve" smooth="yes"/>
    </contour>
    <contour>
      <point x="155" y="35"/>
      <point x="108" y="125"/>
      <point x="108" y="308" type="curve" smooth="yes"/>
      <point x="108" y="409"/>
      <point x="129" y="490"/>
      <point x="167" y="549" type="curve"/>
      <point x="199" y="567"/>
      <point x="251" y="577"/>
      <point x="297" y="577" type="curve" smooth="yes"/>
      <point x="448" y="577"/>
      <point x="494" y="487"/>
      <point x="494" y="304" type="curve" smooth="yes"/>
      <point x="494" y="203"/>
      <point x="472" y="121"/>
      <point x="434" y="63" type="curve"/>
      <point x="402" y="45"/>
      <point x="351" y="35"/>
      <point x="305" y="35" type="curve" smooth="yes"/>
    </contour>
    <contour>
      <point x="438" y="714" type="line"/>
      <point x="438" y="755" type="line"/>
      <point x="168" y="755" type="line"/>
      <point x="168" y="714" type="line"/>
    </contour>
  </outline>
</glyph>
<glyph name="Obreve" format="1">
  <advance width="602"/>
  <unicode hex="014E"/>
  <note>
	Obreve
  </note>
  <outline>
    <contour>
      <point x="483" y="-9"/>
      <point x="541" y="117"/>
      <point x="541" y="315" type="curve" smooth="yes"/>
      <point x="541" y="515"/>
      <point x="474" y="622"/>
      <point x="312" y="622" type="curve" smooth="yes"/>
      <point x="120" y="622"/>
      <point x="61" y="494"/>
      <point x="61" y="297" type="curve" smooth="yes"/>
      <point x="61" y="97"/>
      <point x="131" y="-9"/>
      <point x="290" y="-9" type="curve" smooth="yes"/>
    </contour>
    <contour>
      <point x="155" y="35"/>
      <point x="108" y="125"/>
      <point x="108" y="308" type="curve" smooth="yes"/>
      <point x="108" y="409"/>
      <point x="129" y="490"/>
      <point x="167" y="549" type="curve"/>
      <point x="199" y="567"/>
      <point x="251" y="577"/>
      <point x="297" y="577" type="curve" smooth="yes"/>
      <point x="448" y="577"/>
      <point x="494" y="487"/>
      <point x="494" y="304" type="curve" smooth="yes"/>
      <point x="494" y="203"/>
      <point x="472" y="121"/>
      <point x="434" y="63" type="curve"/>
      <point x="402" y="45"/>
      <point x="351" y="35"/>
      <point x="305" y="35" type="curve" smooth="yes"/>
    </contour>
    <contour>
      <point x="378" y="709"/>
      <point x="412" y="753"/>
      <point x="423" y="810" type="curve"/>
      <point x="378" y="817" type="line"/>
      <point x="370" y="776"/>
      <point x="355" y="748"/>
      <point x="301" y="748" type="curve" smooth="yes"/>
      <point x="247" y="748"/>
      <point x="232" y="776"/>
      <point x="224" y="817" type="curve"/>
      <point x="179" y="810" type="line"/>
      <point x="190" y="753"/>
      <point x="224" y="709"/>
      <point x="301" y="709" type="curve" smooth="yes"/>
    </contour>
  </outline>
</glyph>
<glyph name="obreve" format="1">
  <advance width="498"/>
  <unicode hex="014F"/>
  <note>
	obreve
  </note>
  <outline>
    <contour>
      <point x="399" y="-9"/>
      <point x="440" y="102"/>
      <point x="440" y="242" type="curve" smooth="yes"/>
      <point x="440" y="386"/>
      <point x="384" y="481"/>
      <point x="260" y="481" type="curve" smooth="yes"/>
      <point x="99" y="481"/>
      <point x="58" y="367"/>
      <point x="58" y="227" type="curve" smooth="yes"/>
      <point x="58" y="83"/>
      <point x="114" y="-9"/>
      <point x="238" y="-9" type="curve" smooth="yes"/>
    </contour>
    <contour>
      <point x="144" y="31"/>
      <point x="102" y="97"/>
      <point x="102" y="236" type="curve" smooth="yes"/>
      <point x="102" y="309"/>
      <point x="117" y="378"/>
      <point x="139" y="415" type="curve"/>
      <point x="168" y="432"/>
      <point x="206" y="439"/>
      <point x="248" y="439" type="curve" smooth="yes"/>
      <point x="353" y="439"/>
      <point x="395" y="372"/>
      <point x="395" y="231" type="curve" smooth="yes"/>
      <point x="395" y="159"/>
      <point x="380" y="92"/>
      <point x="358" y="55" type="curve"/>
      <point x="329" y="39"/>
      <point x="291" y="31"/>
      <point x="249" y="31" type="curve" smooth="yes"/>
    </contour>
    <contour>
      <point x="325" y="561"/>
      <point x="359" y="605"/>
      <point x="370" y="661" type="curve"/>
      <point x="325" y="669" type="line"/>
      <point x="317" y="628"/>
      <point x="302" y="600"/>
      <point x="248" y="600" type="curve" smooth="yes"/>
      <point x="194" y="600"/>
      <point x="179" y="628"/>
      <point x="171" y="669" type="curve"/>
      <point x="126" y="661" type="line"/>
      <point x="137" y="605"/>
      <point x="171" y="561"/>
      <point x="248" y="561" type="curve" smooth="yes"/>
    </contour>
  </outline>
</glyph>
<glyph name="Ohungarumlaut" format="1">
  <advance width="602"/>
  <unicode hex="0150"/>
  <note>
	Ohungarumlaut
  </note>
  <outline>
    <contour>
      <point x="483" y="-9"/>
      <point x="541" y="117"/>
      <point x="541" y="315" type="curve" smooth="yes"/>
      <point x="541" y="515"/>
      <point x="474" y="622"/>
      <point x="312" y="622" type="curve" smooth="yes"/>
      <point x="120" y="622"/>
      <point x="61" y="494"/>
      <point x="61" y="297" type="curve" smooth="yes"/>
      <point x="61" y="97"/>
      <point x="131" y="-9"/>
      <point x="290" y="-9" type="curve" smooth="yes"/>
    </contour>
    <contour>
      <point x="155" y="35"/>
      <point x="108" y="125"/>
      <point x="108" y="308" type="curve" smooth="yes"/>
      <point x="108" y="409"/>
      <point x="129" y="490"/>
      <point x="167" y="549" type="curve"/>
      <point x="199" y="567"/>
      <point x="251" y="577"/>
      <point x="297" y="577" type="curve" smooth="yes"/>
      <point x="448" y="577"/>
      <point x="494" y="487"/>
      <point x="494" y="304" type="curve" smooth="yes"/>
      <point x="494" y="203"/>
      <point x="472" y="121"/>
      <point x="434" y="63" type="curve"/>
      <point x="402" y="45"/>
      <point x="351" y="35"/>
      <point x="305" y="35" type="curve" smooth="yes"/>
    </contour>
    <contour>
      <point x="256" y="744"/>
      <point x="272" y="787"/>
      <point x="272" y="832" type="curve" smooth="yes"/>
      <point x="272" y="873"/>
      <point x="253" y="894"/>
      <point x="215" y="894" type="curve" smooth="yes"/>
      <point x="201" y="894"/>
      <point x="189" y="891"/>
      <point x="178" y="888" type="curve"/>
      <point x="178" y="855" type="line"/>
      <point x="233" y="855" type="line"/>
      <point x="233" y="795"/>
      <point x="220" y="755"/>
      <point x="197" y="714" type="curve"/>
      <point x="226" y="707" type="line"/>
    </contour>
    <contour>
      <point x="421" y="744"/>
      <point x="437" y="787"/>
      <point x="437" y="832" type="curve" smooth="yes"/>
      <point x="437" y="873"/>
      <point x="419" y="894"/>
      <point x="381" y="894" type="curve" smooth="yes"/>
      <point x="367" y="894"/>
      <point x="354" y="891"/>
      <point x="343" y="888" type="curve"/>
      <point x="343" y="855" type="line"/>
      <point x="398" y="855" type="line"/>
      <point x="398" y="795"/>
      <point x="385" y="755"/>
      <point x="362" y="714" type="curve"/>
      <point x="391" y="707" type="line"/>
    </contour>
  </outline>
</glyph>
<glyph name="oe" format="1">
  <advance width="802"/>
  <unicode hex="0153"/>
  <note>
	oe
  </note>
  <outline>
    <contour>
      <point x="335" y="-5"/>
      <point x="388" y="36"/>
      <point x="414" y="99" type="curve"/>
      <point x="420" y="99" type="line"/>
      <point x="448" y="32"/>
      <point x="503" y="-5"/>
      <point x="591" y="-5" type="curve" smooth="yes"/>
      <point x="665" y="-5"/>
      <point x="706" y="14"/>
      <point x="744" y="35" type="curve"/>
      <point x="729" y="71" type="line"/>
      <point x="690" y="48"/>
      <point x="653" y="36"/>
      <point x="593" y="36" type="curve" smooth="yes"/>
      <point x="487" y="36"/>
      <point x="444" y="97"/>
      <point x="440" y="215" type="curve"/>
      <point x="708" y="214" type="line"/>
      <point x="752" y="260" type="line"/>
      <point x="766" y="395"/>
      <point x="700" y="474"/>
      <point x="590" y="474" type="curve" smooth="yes"/>
      <point x="506" y="474"/>
      <point x="451" y="435"/>
      <point x="423" y="369" type="curve"/>
      <point x="419" y="369" type="line"/>
      <point x="393" y="440"/>
      <point x="340" y="481"/>
      <point x="260" y="481" type="curve" smooth="yes"/>
      <point x="99" y="481"/>
      <point x="58" y="369"/>
      <point x="58" y="229" type="curve" smooth="yes"/>
      <point x="58" y="85"/>
      <point x="114" y="-5"/>
      <point x="238" y="-5" type="curve" smooth="yes"/>
    </contour>
    <contour>
      <point x="144" y="35"/>
      <point x="102" y="99"/>
      <point x="102" y="239" type="curve" smooth="yes"/>
      <point x="102" y="311"/>
      <point x="117" y="378"/>
      <point x="139" y="415" type="curve"/>
      <point x="168" y="432"/>
      <point x="206" y="439"/>
      <point x="248" y="439" type="curve" smooth="yes"/>
      <point x="353" y="439"/>
      <point x="395" y="374"/>
      <point x="395" y="226" type="curve" smooth="yes"/>
      <point x="395" y="156"/>
      <point x="378" y="95"/>
      <point x="358" y="59" type="curve"/>
      <point x="329" y="43"/>
      <point x="291" y="35"/>
      <point x="249" y="35" type="curve" smooth="yes"/>
    </contour>
    <contour>
      <point x="445" y="364"/>
      <point x="478" y="433"/>
      <point x="585" y="433" type="curve" smooth="yes"/>
      <point x="670" y="433"/>
      <point x="713" y="380"/>
      <point x="713" y="301" type="curve" smooth="yes"/>
      <point x="713" y="285"/>
      <point x="711" y="268"/>
      <point x="707" y="254" type="curve"/>
      <point x="439" y="249" type="line"/>
    </contour>
  </outline>
</glyph>
<glyph name="rcommaaccent" format="1">
  <advance width="359"/>
  <unicode hex="0157"/>
  <note>
	rcommaaccent
  </note>
  <outline>
    <contour>
      <point x="130" y="0" type="line"/>
      <point x="130" y="329" type="line"/>
      <point x="153" y="384"/>
      <point x="203" y="418"/>
      <point x="273" y="418" type="curve" smooth="yes"/>
      <point x="312" y="418" type="line"/>
      <point x="318" y="450" type="line"/>
      <point x="312" y="458"/>
      <point x="297" y="470"/>
      <point x="287" y="470" type="curve" smooth="yes"/>
      <point x="217" y="470"/>
      <point x="162" y="431"/>
      <point x="131" y="377" type="curve"/>
      <point x="124" y="377" type="line"/>
      <point x="120" y="464" type="line"/>
      <point x="85" y="464" type="line"/>
      <point x="85" y="0" type="line"/>
    </contour>
    <contour>
      <point x="159" y="-198"/>
      <point x="175" y="-156"/>
      <point x="175" y="-110" type="curve" smooth="yes"/>
      <point x="175" y="-70"/>
      <point x="157" y="-48"/>
      <point x="119" y="-48" type="curve" smooth="yes"/>
      <point x="105" y="-48"/>
      <point x="92" y="-51"/>
      <point x="81" y="-55" type="curve"/>
      <point x="81" y="-88" type="line"/>
      <point x="136" y="-88" type="line"/>
      <point x="136" y="-148"/>
      <point x="123" y="-187"/>
      <point x="100" y="-228" type="curve"/>
      <point x="130" y="-235" type="line"/>
    </contour>
  </outline>
</glyph>
<glyph name="Rcaron" format="1">
  <advance width="567"/>
  <unicode hex="0158"/>
  <note>
	Rcaron
  </note>
  <outline>
    <contour>
      <point x="513" y="-6"/>
      <point x="525" y="-4"/>
      <point x="539" y="1" type="curve"/>
      <point x="539" y="28" type="line"/>
      <point x="489" y="36" type="line"/>
      <point x="418" y="196" type="line" smooth="yes"/>
      <point x="399" y="234"/>
      <point x="386" y="254"/>
      <point x="352" y="270" type="curve"/>
      <point x="352" y="277" type="line"/>
      <point x="415" y="313"/>
      <point x="451" y="365"/>
      <point x="451" y="443" type="curve" smooth="yes"/>
      <point x="451" y="560"/>
      <point x="388" y="622"/>
      <point x="243" y="622" type="curve" smooth="yes"/>
      <point x="198" y="622"/>
      <point x="139" y="614"/>
      <point x="86" y="601" type="curve"/>
      <point x="86" y="0" type="line"/>
      <point x="132" y="0" type="line"/>
      <point x="132" y="259" type="line"/>
      <point x="253" y="259" type="line" smooth="yes"/>
      <point x="338" y="259"/>
      <point x="356" y="219"/>
      <point x="377" y="171" type="curve" smooth="yes"/>
      <point x="440" y="29" type="line" smooth="yes"/>
      <point x="451" y="5"/>
      <point x="466" y="-6"/>
      <point x="495" y="-6" type="curve" smooth="yes"/>
    </contour>
    <contour>
      <point x="132" y="567" type="line"/>
      <point x="165" y="574"/>
      <point x="204" y="578"/>
      <point x="238" y="578" type="curve" smooth="yes"/>
      <point x="353" y="578"/>
      <point x="404" y="538"/>
      <point x="404" y="441" type="curve" smooth="yes"/>
      <point x="404" y="372"/>
      <point x="376" y="336"/>
      <point x="326" y="303" type="curve"/>
      <point x="132" y="303" type="line"/>
    </contour>
    <contour>
      <point x="282" y="714" type="line"/>
      <point x="383" y="845" type="line"/>
      <point x="353" y="852" type="line"/>
      <point x="260" y="754" type="line"/>
      <point x="255" y="754" type="line"/>
      <point x="161" y="852" type="line"/>
      <point x="131" y="845" type="line"/>
      <point x="233" y="714" type="line"/>
    </contour>
  </outline>
</glyph>
<glyph name="rcaron" format="1">
  <advance width="358"/>
  <unicode hex="0159"/>
  <note>
	rcaron
  </note>
  <outline>
    <contour>
      <point x="130" y="0" type="line"/>
      <point x="130" y="329" type="line"/>
      <point x="153" y="384"/>
      <point x="203" y="418"/>
      <point x="273" y="418" type="curve" smooth="yes"/>
      <point x="312" y="418" type="line"/>
      <point x="318" y="450" type="line"/>
      <point x="312" y="458"/>
      <point x="297" y="470"/>
      <point x="287" y="470" type="curve" smooth="yes"/>
      <point x="217" y="470"/>
      <point x="162" y="431"/>
      <point x="131" y="377" type="curve"/>
      <point x="124" y="377" type="line"/>
      <point x="120" y="464" type="line"/>
      <point x="85" y="464" type="line"/>
      <point x="85" y="0" type="line"/>
    </contour>
    <contour>
      <point x="219" y="566" type="line"/>
      <point x="320" y="697" type="line"/>
      <point x="290" y="704" type="line"/>
      <point x="197" y="606" type="line"/>
      <point x="192" y="606" type="line"/>
      <point x="98" y="704" type="line"/>
      <point x="68" y="697" type="line"/>
      <point x="170" y="566" type="line"/>
    </contour>
  </outline>
</glyph>
<glyph name="Scedilla" format="1">
  <advance width="511"/>
  <unicode hex="015E"/>
  <note>
	Scedilla
  </note>
  <outline>
    <contour>
      <point x="319" y="-216"/>
      <point x="354" y="-190"/>
      <point x="354" y="-132" type="curve" smooth="yes"/>
      <point x="354" y="-86"/>
      <point x="333" y="-59"/>
      <point x="282" y="-59" type="curve" smooth="yes"/>
      <point x="263" y="-59"/>
      <point x="246" y="-62"/>
      <point x="233" y="-68" type="curve"/>
      <point x="277" y="-8" type="line"/>
      <point x="411" y="3"/>
      <point x="443" y="85"/>
      <point x="443" y="171" type="curve" smooth="yes"/>
      <point x="443" y="259"/>
      <point x="393" y="298"/>
      <point x="270" y="329" type="curve" smooth="yes"/>
      <point x="165" y="355"/>
      <point x="116" y="380"/>
      <point x="116" y="457" type="curve" smooth="yes"/>
      <point x="116" y="538"/>
      <point x="155" y="579"/>
      <point x="258" y="579" type="curve" smooth="yes"/>
      <point x="297" y="579"/>
      <point x="336" y="575"/>
      <point x="371" y="570" type="curve"/>
      <point x="379" y="480" type="line"/>
      <point x="411" y="480" type="line"/>
      <point x="418" y="504"/>
      <point x="424" y="534"/>
      <point x="424" y="561" type="curve" smooth="yes"/>
      <point x="424" y="587" type="line"/>
      <point x="384" y="608"/>
      <point x="339" y="622"/>
      <point x="264" y="622" type="curve" smooth="yes"/>
      <point x="109" y="622"/>
      <point x="69" y="539"/>
      <point x="69" y="450" type="curve" smooth="yes"/>
      <point x="69" y="343"/>
      <point x="156" y="307"/>
      <point x="254" y="283" type="curve" smooth="yes"/>
      <point x="350" y="259"/>
      <point x="395" y="229"/>
      <point x="395" y="153" type="curve" smooth="yes"/>
      <point x="395" y="117"/>
      <point x="388" y="85"/>
      <point x="375" y="62" type="curve"/>
      <point x="347" y="47"/>
      <point x="308" y="35"/>
      <point x="251" y="35" type="curve" smooth="yes"/>
      <point x="186" y="35"/>
      <point x="131" y="46"/>
      <point x="74" y="73" type="curve"/>
      <point x="57" y="32" type="line"/>
      <point x="116" y="4"/>
      <point x="177" y="-9"/>
      <point x="240" y="-9" type="curve"/>
      <point x="190" y="-69" type="line"/>
      <point x="222" y="-100" type="line"/>
      <point x="236" y="-95"/>
      <point x="249" y="-94"/>
      <point x="267" y="-94" type="curve" smooth="yes"/>
      <point x="301" y="-94"/>
      <point x="314" y="-108"/>
      <point x="314" y="-136" type="curve" smooth="yes"/>
      <point x="314" y="-150"/>
      <point x="311" y="-164"/>
      <point x="308" y="-173" type="curve"/>
      <point x="293" y="-178"/>
      <point x="279" y="-180"/>
      <point x="256" y="-180" type="curve" smooth="yes"/>
      <point x="231" y="-180"/>
      <point x="206" y="-176"/>
      <point x="185" y="-168" type="curve"/>
      <point x="173" y="-200" type="line"/>
      <point x="203" y="-213"/>
      <point x="227" y="-216"/>
      <point x="253" y="-216" type="curve" smooth="yes"/>
    </contour>
  </outline>
</glyph>
<glyph name="scedilla" format="1">
  <advance width="411"/>
  <unicode hex="015F"/>
  <note>
	scedilla
  </note>
  <outline>
    <contour>
      <point x="273" y="-216"/>
      <point x="308" y="-190"/>
      <point x="308" y="-132" type="curve" smooth="yes"/>
      <point x="308" y="-86"/>
      <point x="286" y="-59"/>
      <point x="235" y="-59" type="curve" smooth="yes"/>
      <point x="216" y="-59"/>
      <point x="200" y="-62"/>
      <point x="186" y="-68" type="curve"/>
      <point x="231" y="-8" type="line"/>
      <point x="330" y="3"/>
      <point x="358" y="66"/>
      <point x="358" y="126" type="curve" smooth="yes"/>
      <point x="358" y="201"/>
      <point x="317" y="230"/>
      <point x="225" y="253" type="curve" smooth="yes"/>
      <point x="130" y="278"/>
      <point x="102" y="296"/>
      <point x="102" y="353" type="curve" smooth="yes"/>
      <point x="102" y="409"/>
      <point x="134" y="436"/>
      <point x="216" y="436" type="curve" smooth="yes"/>
      <point x="248" y="436"/>
      <point x="270" y="434"/>
      <point x="293" y="430" type="curve"/>
      <point x="300" y="368" type="line"/>
      <point x="327" y="368" type="line"/>
      <point x="333" y="385"/>
      <point x="337" y="408"/>
      <point x="337" y="427" type="curve" smooth="yes"/>
      <point x="337" y="447" type="line"/>
      <point x="307" y="464"/>
      <point x="269" y="474"/>
      <point x="220" y="474" type="curve" smooth="yes"/>
      <point x="102" y="474"/>
      <point x="59" y="410"/>
      <point x="59" y="343" type="curve" smooth="yes"/>
      <point x="59" y="262"/>
      <point x="119" y="234"/>
      <point x="213" y="212" type="curve" smooth="yes"/>
      <point x="292" y="193"/>
      <point x="314" y="177"/>
      <point x="314" y="116" type="curve" smooth="yes"/>
      <point x="314" y="89"/>
      <point x="310" y="66"/>
      <point x="301" y="44" type="curve"/>
      <point x="274" y="35"/>
      <point x="247" y="30"/>
      <point x="207" y="30" type="curve" smooth="yes"/>
      <point x="154" y="30"/>
      <point x="113" y="39"/>
      <point x="68" y="59" type="curve"/>
      <point x="53" y="21" type="line"/>
      <point x="98" y="-1"/>
      <point x="145" y="-8"/>
      <point x="194" y="-9" type="curve"/>
      <point x="144" y="-69" type="line"/>
      <point x="175" y="-100" type="line"/>
      <point x="189" y="-95"/>
      <point x="203" y="-94"/>
      <point x="221" y="-94" type="curve" smooth="yes"/>
      <point x="254" y="-94"/>
      <point x="267" y="-108"/>
      <point x="267" y="-136" type="curve" smooth="yes"/>
      <point x="267" y="-150"/>
      <point x="265" y="-164"/>
      <point x="261" y="-173" type="curve"/>
      <point x="246" y="-178"/>
      <point x="232" y="-180"/>
      <point x="209" y="-180" type="curve" smooth="yes"/>
      <point x="185" y="-180"/>
      <point x="160" y="-176"/>
      <point x="138" y="-168" type="curve"/>
      <point x="126" y="-200" type="line"/>
      <point x="156" y="-213"/>
      <point x="181" y="-216"/>
      <point x="207" y="-216" type="curve" smooth="yes"/>
    </contour>
  </outline>
</glyph>
<glyph name="tcaron" format="1">
  <advance width="356"/>
  <unicode hex="0165"/>
  <note>
	tcaron
  </note>
  <outline>
    <contour>
      <point x="265" y="-5"/>
      <point x="301" y="5"/>
      <point x="320" y="15" type="curve"/>
      <point x="307" y="53" type="line"/>
      <point x="286" y="43"/>
      <point x="254" y="36"/>
      <point x="227" y="36" type="curve" smooth="yes"/>
      <point x="206" y="36"/>
      <point x="187" y="39"/>
      <point x="166" y="45" type="curve"/>
      <point x="159" y="63"/>
      <point x="157" y="73"/>
      <point x="157" y="101" type="curve" smooth="yes"/>
      <point x="157" y="420" type="line"/>
      <point x="306" y="420" type="line"/>
      <point x="311" y="459" type="line"/>
      <point x="157" y="459" type="line"/>
      <point x="157" y="592" type="line"/>
      <point x="113" y="592" type="line"/>
      <point x="113" y="459" type="line"/>
      <point x="39" y="459" type="line"/>
      <point x="33" y="420" type="line"/>
      <point x="113" y="420" type="line"/>
      <point x="113" y="89" type="line" smooth="yes"/>
      <point x="113" y="43"/>
      <point x="143" y="18"/>
      <point x="174" y="2" type="curve"/>
      <point x="193" y="-3"/>
      <point x="213" y="-5"/>
      <point x="234" y="-5" type="curve" smooth="yes"/>
    </contour>
    <contour>
      <point x="194" y="692" type="line"/>
      <point x="295" y="824" type="line"/>
      <point x="265" y="831" type="line"/>
      <point x="172" y="733" type="line"/>
      <point x="167" y="733" type="line"/>
      <point x="73" y="831" type="line"/>
      <point x="43" y="824" type="line"/>
      <point x="145" y="692" type="line"/>
    </contour>
  </outline>
</glyph>
<glyph name="tbar" format="1">
  <advance width="356"/>
  <unicode hex="0167"/>
  <note>
	tbar
  </note>
  <outline>
    <contour>
      <point x="265" y="-6"/>
      <point x="301" y="5"/>
      <point x="320" y="15" type="curve"/>
      <point x="307" y="52" type="line"/>
      <point x="286" y="43"/>
      <point x="254" y="36"/>
      <point x="227" y="36" type="curve" smooth="yes"/>
      <point x="206" y="36"/>
      <point x="187" y="38"/>
      <point x="166" y="44" type="curve"/>
      <point x="159" y="62"/>
      <point x="157" y="73"/>
      <point x="157" y="100" type="curve" smooth="yes"/>
      <point x="157" y="243" type="line"/>
      <point x="267" y="243" type="line"/>
      <point x="267" y="283" type="line"/>
      <point x="157" y="283" type="line"/>
      <point x="157" y="420" type="line"/>
      <point x="306" y="420" type="line"/>
      <point x="311" y="459" type="line"/>
      <point x="157" y="459" type="line"/>
      <point x="157" y="592" type="line"/>
      <point x="113" y="592" type="line"/>
      <point x="113" y="459" type="line"/>
      <point x="39" y="459" type="line"/>
      <point x="33" y="420" type="line"/>
      <point x="113" y="420" type="line"/>
      <point x="113" y="283" type="line"/>
      <point x="36" y="283" type="line"/>
      <point x="36" y="243" type="line"/>
      <point x="113" y="243" type="line"/>
      <point x="113" y="88" type="line" smooth="yes"/>
      <point x="113" y="42"/>
      <point x="143" y="18"/>
      <point x="174" y="1" type="curve"/>
      <point x="193" y="-3"/>
      <point x="213" y="-6"/>
      <point x="234" y="-6" type="curve" smooth="yes"/>
    </contour>
  </outline>
</glyph>
<glyph name="Utilde" format="1">
  <advance width="592"/>
  <unicode hex="0168"/>
  <note>
	Utilde
  </note>
  <outline>
    <contour>
      <point x="420" y="-9"/>
      <point x="508" y="23"/>
      <point x="508" y="86" type="curve" smooth="yes"/>
      <point x="508" y="612" type="line"/>
      <point x="461" y="612" type="line"/>
      <point x="461" y="63" type="line"/>
      <point x="423" y="47"/>
      <point x="371" y="35"/>
      <point x="299" y="35" type="curve" smooth="yes"/>
      <point x="181" y="35"/>
      <point x="129" y="66"/>
      <point x="129" y="180" type="curve" smooth="yes"/>
      <point x="129" y="612" type="line"/>
      <point x="82" y="612" type="line"/>
      <point x="82" y="168" type="line" smooth="yes"/>
      <point x="82" y="47"/>
      <point x="152" y="-9"/>
      <point x="292" y="-9" type="curve" smooth="yes"/>
    </contour>
    <contour>
      <point x="199" y="741"/>
      <point x="212" y="762"/>
      <point x="241" y="762" type="curve" smooth="yes"/>
      <point x="278" y="762"/>
      <point x="307" y="709"/>
      <point x="356" y="709" type="curve" smooth="yes"/>
      <point x="401" y="709"/>
      <point x="426" y="741"/>
      <point x="429" y="793" type="curve"/>
      <point x="398" y="803" type="line"/>
      <point x="394" y="770"/>
      <point x="381" y="749"/>
      <point x="352" y="749" type="curve" smooth="yes"/>
      <point x="314" y="749"/>
      <point x="284" y="802"/>
      <point x="237" y="802" type="curve" smooth="yes"/>
      <point x="192" y="802"/>
      <point x="167" y="770"/>
      <point x="164" y="718" type="curve"/>
      <point x="195" y="709" type="line"/>
    </contour>
  </outline>
</glyph>
<glyph name="utilde" format="1">
  <advance width="504"/>
  <unicode hex="0169"/>
  <note>
	utilde
  </note>
  <outline>
    <contour>
      <point x="271" y="-9"/>
      <point x="322" y="22"/>
      <point x="373" y="71" type="curve"/>
      <point x="379" y="71" type="line"/>
      <point x="383" y="0" type="line"/>
      <point x="420" y="0" type="line"/>
      <point x="420" y="466" type="line"/>
      <point x="375" y="466" type="line"/>
      <point x="375" y="109" type="line"/>
      <point x="336" y="66"/>
      <point x="275" y="32"/>
      <point x="203" y="32" type="curve" smooth="yes"/>
      <point x="172" y="32"/>
      <point x="150" y="35"/>
      <point x="124" y="44" type="curve"/>
      <point x="124" y="466" type="line"/>
      <point x="79" y="466" type="line"/>
      <point x="79" y="82" type="line" smooth="yes"/>
      <point x="79" y="17"/>
      <point x="121" y="-9"/>
      <point x="196" y="-9" type="curve" smooth="yes"/>
    </contour>
    <contour>
      <point x="155" y="593"/>
      <point x="168" y="614"/>
      <point x="197" y="614" type="curve" smooth="yes"/>
      <point x="234" y="614"/>
      <point x="263" y="561"/>
      <point x="312" y="561" type="curve" smooth="yes"/>
      <point x="357" y="561"/>
      <point x="382" y="593"/>
      <point x="385" y="645" type="curve"/>
      <point x="354" y="655" type="line"/>
      <point x="350" y="622"/>
      <point x="337" y="601"/>
      <point x="308" y="601" type="curve" smooth="yes"/>
      <point x="270" y="601"/>
      <point x="240" y="654"/>
      <point x="193" y="654" type="curve" smooth="yes"/>
      <point x="148" y="654"/>
      <point x="123" y="622"/>
      <point x="120" y="570" type="curve"/>
      <point x="151" y="560" type="line"/>
    </contour>
  </outline>
</glyph>
<glyph name="Uring" format="1">
  <advance width="592"/>
  <unicode hex="016E"/>
  <note>
	Uring
  </note>
  <outline>
    <contour>
      <point x="420" y="-9"/>
      <point x="508" y="23"/>
      <point x="508" y="86" type="curve" smooth="yes"/>
      <point x="508" y="612" type="line"/>
      <point x="461" y="612" type="line"/>
      <point x="461" y="63" type="line"/>
      <point x="423" y="47"/>
      <point x="371" y="35"/>
      <point x="299" y="35" type="curve" smooth="yes"/>
      <point x="181" y="35"/>
      <point x="129" y="66"/>
      <point x="129" y="180" type="curve" smooth="yes"/>
      <point x="129" y="612" type="line"/>
      <point x="82" y="612" type="line"/>
      <point x="82" y="168" type="line" smooth="yes"/>
      <point x="82" y="47"/>
      <point x="152" y="-9"/>
      <point x="292" y="-9" type="curve" smooth="yes"/>
    </contour>
    <contour>
      <point x="362" y="623"/>
      <point x="401" y="666"/>
      <point x="401" y="715" type="curve" smooth="yes"/>
      <point x="401" y="769"/>
      <point x="369" y="797"/>
      <point x="304" y="797" type="curve" smooth="yes"/>
      <point x="232" y="797"/>
      <point x="189" y="753"/>
      <point x="189" y="704" type="curve" smooth="yes"/>
      <point x="189" y="651"/>
      <point x="224" y="623"/>
      <point x="287" y="623" type="curve" smooth="yes"/>
    </contour>
    <contour>
      <point x="246" y="655"/>
      <point x="225" y="673"/>
      <point x="225" y="707" type="curve" smooth="yes"/>
      <point x="225" y="723"/>
      <point x="227" y="736"/>
      <point x="234" y="757" type="curve"/>
      <point x="256" y="764"/>
      <point x="275" y="765"/>
      <point x="300" y="765" type="curve" smooth="yes"/>
      <point x="343" y="765"/>
      <point x="365" y="748"/>
      <point x="365" y="712" type="curve" smooth="yes"/>
      <point x="365" y="696"/>
      <point x="362" y="681"/>
      <point x="356" y="663" type="curve"/>
      <point x="334" y="656"/>
      <point x="315" y="655"/>
      <point x="289" y="655" type="curve" smooth="yes"/>
    </contour>
  </outline>
</glyph>
<glyph name="Ydieresis" format="1">
  <advance width="591"/>
  <unicode hex="0178"/>
  <note>
	Ydieresis
  </note>
  <outline>
    <contour>
      <point x="319" y="0" type="line"/>
      <point x="319" y="228" type="line"/>
      <point x="338" y="228" type="line"/>
      <point x="422" y="332"/>
      <point x="495" y="455"/>
      <point x="559" y="604" type="curve"/>
      <point x="512" y="618" type="line"/>
      <point x="458" y="482"/>
      <point x="382" y="356"/>
      <point x="314" y="267" type="curve"/>
      <point x="277" y="267" type="line"/>
      <point x="208" y="356"/>
      <point x="133" y="482"/>
      <point x="79" y="618" type="curve"/>
      <point x="32" y="604" type="line"/>
      <point x="95" y="455"/>
      <point x="169" y="332"/>
      <point x="253" y="228" type="curve"/>
      <point x="272" y="228" type="line"/>
      <point x="272" y="0" type="line"/>
    </contour>
    <contour>
      <point x="237" y="709"/>
      <point x="249" y="721"/>
      <point x="249" y="740" type="curve" smooth="yes"/>
      <point x="249" y="761"/>
      <point x="237" y="772"/>
      <point x="217" y="772" type="curve" smooth="yes"/>
      <point x="197" y="772"/>
      <point x="184" y="761"/>
      <point x="184" y="740" type="curve" smooth="yes"/>
      <point x="184" y="721"/>
      <point x="197" y="709"/>
      <point x="217" y="709" type="curve" smooth="yes"/>
    </contour>
    <contour>
      <point x="395" y="709"/>
      <point x="407" y="721"/>
      <point x="407" y="740" type="curve" smooth="yes"/>
      <point x="407" y="761"/>
      <point x="395" y="772"/>
      <point x="375" y="772" type="curve" smooth="yes"/>
      <point x="354" y="772"/>
      <point x="341" y="761"/>
      <point x="341" y="740" type="curve" smooth="yes"/>
      <point x="341" y="721"/>
      <point x="354" y="709"/>
      <point x="375" y="709" type="curve" smooth="yes"/>
    </contour>
  </outline>
</glyph>
<glyph name="Zacute" format="1">
  <advance width="545"/>
  <unicode hex="0179"/>
  <note>
	Zacute
  </note>
  <outline>
    <contour>
      <point x="486" y="0" type="line"/>
      <point x="486" y="30" type="line" smooth="yes"/>
      <point x="486" y="63"/>
      <point x="480" y="95"/>
      <point x="471" y="118" type="curve"/>
      <point x="438" y="118" type="line"/>
      <point x="438" y="43" type="line"/>
      <point x="112" y="43" type="line"/>
      <point x="112" y="52" type="line"/>
      <point x="477" y="556" type="line"/>
      <point x="477" y="612" type="line"/>
      <point x="76" y="612" type="line"/>
      <point x="76" y="581" type="line" smooth="yes"/>
      <point x="76" y="547"/>
      <point x="82" y="521"/>
      <point x="90" y="498" type="curve"/>
      <point x="124" y="498" type="line"/>
      <point x="124" y="568" type="line"/>
      <point x="424" y="568" type="line"/>
      <point x="424" y="560" type="line"/>
      <point x="60" y="58" type="line"/>
      <point x="60" y="0" type="line"/>
    </contour>
    <contour>
      <point x="385" y="848" type="line"/>
      <point x="323" y="854" type="line"/>
      <point x="239" y="714" type="line"/>
      <point x="271" y="708" type="line"/>
    </contour>
  </outline>
</glyph>
<glyph name="Zdotaccent" format="1">
  <advance width="545"/>
  <unicode hex="017B"/>
  <note>
	Zdotaccent
  </note>
  <outline>
    <contour>
      <point x="486" y="0" type="line"/>
      <point x="486" y="30" type="line" smooth="yes"/>
      <point x="486" y="63"/>
      <point x="480" y="95"/>
      <point x="471" y="118" type="curve"/>
      <point x="438" y="118" type="line"/>
      <point x="438" y="43" type="line"/>
      <point x="112" y="43" type="line"/>
      <point x="112" y="52" type="line"/>
      <point x="477" y="556" type="line"/>
      <point x="477" y="612" type="line"/>
      <point x="76" y="612" type="line"/>
      <point x="76" y="581" type="line" smooth="yes"/>
      <point x="76" y="547"/>
      <point x="82" y="521"/>
      <point x="90" y="498" type="curve"/>
      <point x="124" y="498" type="line"/>
      <point x="124" y="568" type="line"/>
      <point x="424" y="568" type="line"/>
      <point x="424" y="560" type="line"/>
      <point x="60" y="58" type="line"/>
      <point x="60" y="0" type="line"/>
    </contour>
    <contour>
      <point x="307" y="709"/>
      <point x="322" y="723"/>
      <point x="322" y="749" type="curve" smooth="yes"/>
      <point x="322" y="777"/>
      <point x="307" y="791"/>
      <point x="280" y="791" type="curve" smooth="yes"/>
      <point x="252" y="791"/>
      <point x="236" y="777"/>
      <point x="236" y="749" type="curve" smooth="yes"/>
      <point x="236" y="723"/>
      <point x="252" y="709"/>
      <point x="280" y="709" type="curve" smooth="yes"/>
    </contour>
  </outline>
</glyph>
<glyph name="zdotaccent" format="1">
  <advance width="436"/>
  <unicode hex="017C"/>
  <note>
	zdotaccent
  </note>
  <outline>
    <contour>
      <point x="380" y="0" type="line"/>
      <point x="380" y="38" type="line" smooth="yes"/>
      <point x="380" y="57"/>
      <point x="376" y="83"/>
      <point x="371" y="103" type="curve"/>
      <point x="340" y="103" type="line"/>
      <point x="335" y="39" type="line"/>
      <point x="104" y="39" type="line"/>
      <point x="104" y="47" type="line"/>
      <point x="368" y="412" type="line"/>
      <point x="368" y="466" type="line"/>
      <point x="66" y="466" type="line"/>
      <point x="66" y="431" type="line" smooth="yes"/>
      <point x="66" y="409"/>
      <point x="70" y="386"/>
      <point x="75" y="367" type="curve"/>
      <point x="106" y="367" type="line"/>
      <point x="111" y="427" type="line"/>
      <point x="321" y="427" type="line"/>
      <point x="321" y="420" type="line"/>
      <point x="57" y="52" type="line"/>
      <point x="57" y="0" type="line"/>
    </contour>
    <contour>
      <point x="250" y="561"/>
      <point x="265" y="575"/>
      <point x="265" y="601" type="curve" smooth="yes"/>
      <point x="265" y="629"/>
      <point x="250" y="643"/>
      <point x="223" y="643" type="curve" smooth="yes"/>
      <point x="195" y="643"/>
      <point x="179" y="629"/>
      <point x="179" y="601" type="curve" smooth="yes"/>
      <point x="179" y="575"/>
      <point x="195" y="561"/>
      <point x="223" y="561" type="curve" smooth="yes"/>
    </contour>
  </outline>
</glyph>
<glyph name="uni018F" format="1">
  <advance width="612"/>
  <unicode hex="018F"/>
  <note>
	uni018F
  </note>
  <outline>
    <contour>
      <point x="467" y="-6"/>
      <point x="536" y="107"/>
      <point x="536" y="314" type="curve" smooth="yes"/>
      <point x="536" y="521"/>
      <point x="442" y="622"/>
      <point x="284" y="622" type="curve" smooth="yes"/>
      <point x="180" y="622"/>
      <point x="119" y="591"/>
      <point x="64" y="558" type="curve"/>
      <point x="84" y="523" type="line"/>
      <point x="136" y="554"/>
      <point x="192" y="577"/>
      <point x="277" y="577" type="curve" smooth="yes"/>
      <point x="410" y="577"/>
      <point x="489" y="502"/>
      <point x="489" y="330" type="curve"/>
      <point x="131" y="333" type="line"/>
      <point x="63" y="278" type="line"/>
      <point x="62" y="265"/>
      <point x="61" y="247"/>
      <point x="61" y="236" type="curve" smooth="yes"/>
      <point x="61" y="89"/>
      <point x="133" y="-6"/>
      <point x="287" y="-6" type="curve" smooth="yes"/>
    </contour>
    <contour>
      <point x="172" y="39"/>
      <point x="108" y="108"/>
      <point x="108" y="222" type="curve" smooth="yes"/>
      <point x="108" y="243"/>
      <point x="109" y="260"/>
      <point x="113" y="284" type="curve"/>
      <point x="490" y="290" type="line"/>
      <point x="490" y="134"/>
      <point x="438" y="39"/>
      <point x="289" y="39" type="curve" smooth="yes"/>
    </contour>
  </outline>
</glyph>
<glyph name="uhorn" format="1">
  <advance width="605"/>
  <unicode hex="01B0"/>
  <note>
	uhorn
  </note>
  <outline>
    <contour>
      <point x="265" y="-5"/>
      <point x="320" y="22"/>
      <point x="373" y="71" type="curve"/>
      <point x="379" y="71" type="line"/>
      <point x="383" y="0" type="line"/>
      <point x="420" y="0" type="line"/>
      <point x="420" y="329" type="line"/>
      <point x="536" y="368"/>
      <point x="588" y="420"/>
      <point x="588" y="540" type="curve"/>
      <point x="542" y="540" type="line"/>
      <point x="539" y="430"/>
      <point x="495" y="397"/>
      <point x="428" y="370" type="curve"/>
      <point x="420" y="370" type="line"/>
      <point x="420" y="466" type="line"/>
      <point x="375" y="466" type="line"/>
      <point x="375" y="109" type="line"/>
      <point x="335" y="66"/>
      <point x="269" y="36"/>
      <point x="203" y="36" type="curve" smooth="yes"/>
      <point x="172" y="36"/>
      <point x="150" y="39"/>
      <point x="124" y="49" type="curve"/>
      <point x="124" y="466" type="line"/>
      <point x="79" y="466" type="line"/>
      <point x="79" y="86" type="line" smooth="yes"/>
      <point x="79" y="21"/>
      <point x="121" y="-5"/>
      <point x="196" y="-5" type="curve" smooth="yes"/>
    </contour>
  </outline>
</glyph>
<glyph name="acaron" format="1">
  <advance width="459"/>
  <unicode hex="01CE"/>
  <note>
	acaron
  </note>
  <outline>
    <contour>
      <point x="247" y="-9"/>
      <point x="298" y="20"/>
      <point x="334" y="67" type="curve"/>
      <point x="341" y="67" type="line"/>
      <point x="345" y="0" type="line"/>
      <point x="382" y="0" type="line"/>
      <point x="382" y="332" type="line" smooth="yes"/>
      <point x="382" y="425"/>
      <point x="332" y="474"/>
      <point x="245" y="474" type="curve" smooth="yes"/>
      <point x="186" y="474"/>
      <point x="124" y="453"/>
      <point x="85" y="431" type="curve"/>
      <point x="85" y="417" type="line" smooth="yes"/>
      <point x="85" y="399"/>
      <point x="88" y="377"/>
      <point x="94" y="360" type="curve"/>
      <point x="127" y="360" type="line"/>
      <point x="137" y="430" type="line"/>
      <point x="163" y="433"/>
      <point x="196" y="436"/>
      <point x="223" y="436" type="curve" smooth="yes"/>
      <point x="304" y="436"/>
      <point x="337" y="408"/>
      <point x="337" y="322" type="curve" smooth="yes"/>
      <point x="337" y="249" type="line"/>
      <point x="314" y="252"/>
      <point x="283" y="254"/>
      <point x="251" y="254" type="curve" smooth="yes"/>
      <point x="124" y="254"/>
      <point x="49" y="205"/>
      <point x="49" y="104" type="curve" smooth="yes"/>
      <point x="49" y="36"/>
      <point x="93" y="-9"/>
      <point x="179" y="-9" type="curve" smooth="yes"/>
    </contour>
    <contour>
      <point x="130" y="29"/>
      <point x="94" y="47"/>
      <point x="94" y="113" type="curve" smooth="yes"/>
      <point x="94" y="148"/>
      <point x="103" y="178"/>
      <point x="121" y="207" type="curve"/>
      <point x="154" y="215"/>
      <point x="196" y="219"/>
      <point x="233" y="219" type="curve" smooth="yes"/>
      <point x="271" y="219"/>
      <point x="306" y="217"/>
      <point x="338" y="212" type="curve"/>
      <point x="338" y="111" type="line"/>
      <point x="305" y="60"/>
      <point x="251" y="29"/>
      <point x="187" y="29" type="curve" smooth="yes"/>
    </contour>
    <contour>
      <point x="262" y="566" type="line"/>
      <point x="363" y="697" type="line"/>
      <point x="333" y="704" type="line"/>
      <point x="240" y="606" type="line"/>
      <point x="235" y="606" type="line"/>
      <point x="141" y="704" type="line"/>
      <point x="111" y="697" type="line"/>
      <point x="213" y="566" type="line"/>
    </contour>
  </outline>
</glyph>
<glyph name="Icaron" format="1">
  <advance width="225"/>
  <unicode hex="01CF"/>
  <note>
	Icaron
  </note>
  <outline>
    <contour>
      <point x="137" y="714" type="line"/>
      <point x="239" y="845" type="line"/>
      <point x="208" y="852" type="line"/>
      <point x="116" y="754" type="line"/>
      <point x="110" y="754" type="line"/>
      <point x="17" y="852" type="line"/>
      <point x="-14" y="845" type="line"/>
      <point x="88" y="714" type="line"/>
    </contour>
    <contour>
      <point x="136" y="0" type="line"/>
      <point x="136" y="612" type="line"/>
      <point x="89" y="612" type="line"/>
      <point x="89" y="0" type="line"/>
    </contour>
  </outline>
</glyph>
<glyph name="icaron" format="1">
  <advance width="225"/>
  <unicode hex="01D0"/>
  <note>
	icaron
  </note>
  <outline>
    <contour>
      <point x="133" y="566" type="line"/>
      <point x="235" y="697" type="line"/>
      <point x="204" y="704" type="line"/>
      <point x="111" y="606" type="line"/>
      <point x="106" y="606" type="line"/>
      <point x="12" y="704" type="line"/>
      <point x="-18" y="697" type="line"/>
      <point x="84" y="566" type="line"/>
    </contour>
    <contour>
      <point x="131" y="0" type="line"/>
      <point x="131" y="469" type="line"/>
      <point x="87" y="469" type="line"/>
      <point x="87" y="0" type="line"/>
    </contour>
  </outline>
</glyph>
<glyph name="udieresisacute" format="1">
  <advance width="504"/>
  <unicode hex="01D8"/>
  <note>
	udieresisacute
  </note>
  <outline>
    <contour>
      <point x="271" y="-9"/>
      <point x="322" y="22"/>
      <point x="373" y="71" type="curve"/>
      <point x="379" y="71" type="line"/>
      <point x="383" y="0" type="line"/>
      <point x="420" y="0" type="line"/>
      <point x="420" y="466" type="line"/>
      <point x="375" y="466" type="line"/>
      <point x="375" y="109" type="line"/>
      <point x="336" y="66"/>
      <point x="275" y="32"/>
      <point x="203" y="32" type="curve" smooth="yes"/>
      <point x="172" y="32"/>
      <point x="150" y="35"/>
      <point x="124" y="44" type="curve"/>
      <point x="124" y="466" type="line"/>
      <point x="79" y="466" type="line"/>
      <point x="79" y="82" type="line" smooth="yes"/>
      <point x="79" y="17"/>
      <point x="121" y="-9"/>
      <point x="196" y="-9" type="curve" smooth="yes"/>
    </contour>
    <contour>
      <point x="193" y="561"/>
      <point x="205" y="572"/>
      <point x="205" y="592" type="curve" smooth="yes"/>
      <point x="205" y="613"/>
      <point x="193" y="624"/>
      <point x="173" y="624" type="curve" smooth="yes"/>
      <point x="153" y="624"/>
      <point x="140" y="613"/>
      <point x="140" y="592" type="curve" smooth="yes"/>
      <point x="140" y="572"/>
      <point x="153" y="561"/>
      <point x="173" y="561" type="curve" smooth="yes"/>
    </contour>
    <contour>
      <point x="351" y="561"/>
      <point x="363" y="572"/>
      <point x="363" y="592" type="curve" smooth="yes"/>
      <point x="363" y="613"/>
      <point x="351" y="624"/>
      <point x="331" y="624" type="curve" smooth="yes"/>
      <point x="310" y="624"/>
      <point x="297" y="613"/>
      <point x="297" y="592" type="curve" smooth="yes"/>
      <point x="297" y="572"/>
      <point x="310" y="561"/>
      <point x="331" y="561" type="curve" smooth="yes"/>
    </contour>
    <contour>
      <point x="358" y="801" type="line"/>
      <point x="302" y="809" type="line"/>
      <point x="234" y="695" type="line"/>
      <point x="266" y="689" type="line"/>
    </contour>
  </outline>
</glyph>
<glyph name="Aringacute" format="1">
  <advance width="580"/>
  <unicode hex="01FA"/>
  <note>
	Aringacute
  </note>
  <outline>
    <contour>
      <point x="356" y="699"/>
      <point x="395" y="741"/>
      <point x="395" y="790" type="curve" smooth="yes"/>
      <point x="395" y="844"/>
      <point x="363" y="873"/>
      <point x="298" y="873" type="curve" smooth="yes"/>
      <point x="226" y="873"/>
      <point x="183" y="829"/>
      <point x="183" y="780" type="curve" smooth="yes"/>
      <point x="183" y="727"/>
      <point x="218" y="699"/>
      <point x="281" y="699" type="curve" smooth="yes"/>
    </contour>
    <contour>
      <point x="240" y="730"/>
      <point x="219" y="749"/>
      <point x="219" y="782" type="curve" smooth="yes"/>
      <point x="219" y="799"/>
      <point x="221" y="812"/>
      <point x="228" y="833" type="curve"/>
      <point x="250" y="839"/>
      <point x="269" y="841"/>
      <point x="294" y="841" type="curve" smooth="yes"/>
      <point x="337" y="841"/>
      <point x="359" y="824"/>
      <point x="359" y="788" type="curve" smooth="yes"/>
      <point x="359" y="771"/>
      <point x="356" y="756"/>
      <point x="350" y="739" type="curve"/>
      <point x="328" y="732"/>
      <point x="309" y="730"/>
      <point x="283" y="730" type="curve" smooth="yes"/>
    </contour>
    <contour>
      <point x="414" y="1078" type="line"/>
      <point x="352" y="1084" type="line"/>
      <point x="268" y="944" type="line"/>
      <point x="300" y="938" type="line"/>
    </contour>
    <component base="A"/>
  </outline>
</glyph>
<glyph name="Scommaaccent" format="1">
  <advance width="511"/>
  <unicode hex="0218"/>
  <note>
	Scommaaccent
  </note>
  <outline>
    <contour>
      <point x="406" y="-9"/>
      <point x="443" y="79"/>
      <point x="443" y="171" type="curve" smooth="yes"/>
      <point x="443" y="259"/>
      <point x="393" y="298"/>
      <point x="270" y="329" type="curve" smooth="yes"/>
      <point x="165" y="355"/>
      <point x="116" y="380"/>
      <point x="116" y="457" type="curve" smooth="yes"/>
      <point x="116" y="538"/>
      <point x="155" y="579"/>
      <point x="258" y="579" type="curve" smooth="yes"/>
      <point x="297" y="579"/>
      <point x="336" y="575"/>
      <point x="371" y="570" type="curve"/>
      <point x="379" y="480" type="line"/>
      <point x="411" y="480" type="line"/>
      <point x="418" y="504"/>
      <point x="424" y="534"/>
      <point x="424" y="561" type="curve" smooth="yes"/>
      <point x="424" y="587" type="line"/>
      <point x="384" y="608"/>
      <point x="339" y="622"/>
      <point x="264" y="622" type="curve" smooth="yes"/>
      <point x="109" y="622"/>
      <point x="69" y="539"/>
      <point x="69" y="450" type="curve" smooth="yes"/>
      <point x="69" y="343"/>
      <point x="156" y="307"/>
      <point x="254" y="283" type="curve" smooth="yes"/>
      <point x="350" y="259"/>
      <point x="395" y="229"/>
      <point x="395" y="153" type="curve" smooth="yes"/>
      <point x="395" y="117"/>
      <point x="388" y="85"/>
      <point x="375" y="62" type="curve"/>
      <point x="347" y="47"/>
      <point x="308" y="35"/>
      <point x="251" y="35" type="curve" smooth="yes"/>
      <point x="186" y="35"/>
      <point x="131" y="46"/>
      <point x="74" y="73" type="curve"/>
      <point x="57" y="32" type="line"/>
      <point x="118" y="3"/>
      <point x="181" y="-9"/>
      <point x="246" y="-9" type="curve" smooth="yes"/>
    </contour>
    <contour>
      <point x="295" y="-198"/>
      <point x="311" y="-156"/>
      <point x="311" y="-110" type="curve" smooth="yes"/>
      <point x="311" y="-70"/>
      <point x="293" y="-48"/>
      <point x="255" y="-48" type="curve" smooth="yes"/>
      <point x="241" y="-48"/>
      <point x="228" y="-51"/>
      <point x="217" y="-55" type="curve"/>
      <point x="217" y="-88" type="line"/>
      <point x="272" y="-88" type="line"/>
      <point x="272" y="-148"/>
      <point x="259" y="-187"/>
      <point x="236" y="-228" type="curve"/>
      <point x="266" y="-235" type="line"/>
    </contour>
  </outline>
</glyph>
<glyph name="dotlessj" format="1">
  <advance width="254"/>
  <unicode hex="0237"/>
  <note>
	dotlessj
  </note>
  <outline>
    <contour>
      <point x="133" y="-187"/>
      <point x="173" y="-142"/>
      <point x="173" y="-65" type="curve" smooth="yes"/>
      <point x="173" y="464" type="line"/>
      <point x="129" y="464" type="line"/>
      <point x="129" y="-61" type="line" smooth="yes"/>
      <point x="129" y="-91"/>
      <point x="128" y="-113"/>
      <point x="119" y="-136" type="curve"/>
      <point x="101" y="-142"/>
      <point x="84" y="-145"/>
      <point x="58" y="-145" type="curve" smooth="yes"/>
      <point x="32" y="-145"/>
      <point x="13" y="-143"/>
      <point x="-13" y="-136" type="curve"/>
      <point x="-23" y="-175" type="line"/>
      <point x="2" y="-183"/>
      <point x="30" y="-187"/>
      <point x="57" y="-187" type="curve" smooth="yes"/>
    </contour>
  </outline>
</glyph>
<glyph name="gscript" format="1">
  <advance width="498"/>
  <unicode hex="0261"/>
  <note>
	gscript
  </note>
  <outline>
    <contour>
      <point x="345" y="-191"/>
      <point x="417" y="-157"/>
      <point x="417" y="-65" type="curve" smooth="yes"/>
      <point x="417" y="467" type="line"/>
      <point x="379" y="467" type="line"/>
      <point x="375" y="393" type="line"/>
      <point x="369" y="393" type="line"/>
      <point x="341" y="437"/>
      <point x="300" y="472"/>
      <point x="234" y="472" type="curve" smooth="yes"/>
      <point x="108" y="472"/>
      <point x="60" y="373"/>
      <point x="60" y="226" type="curve" smooth="yes"/>
      <point x="60" y="95"/>
      <point x="109" y="1"/>
      <point x="224" y="1" type="curve" smooth="yes"/>
      <point x="289" y="1"/>
      <point x="337" y="36"/>
      <point x="370" y="75" type="curve"/>
      <point x="377" y="75" type="line"/>
      <point x="374" y="15" type="line"/>
      <point x="374" y="-121" type="line"/>
      <point x="342" y="-141"/>
      <point x="303" y="-150"/>
      <point x="241" y="-150" type="curve" smooth="yes"/>
      <point x="194" y="-150"/>
      <point x="143" y="-138"/>
      <point x="104" y="-121" type="curve"/>
      <point x="90" y="-157" type="line"/>
      <point x="128" y="-176"/>
      <point x="181" y="-191"/>
      <point x="244" y="-191" type="curve" smooth="yes"/>
    </contour>
    <contour>
      <point x="145" y="42"/>
      <point x="106" y="105"/>
      <point x="106" y="229" type="curve" smooth="yes"/>
      <point x="106" y="357"/>
      <point x="139" y="432"/>
      <point x="237" y="432" type="curve" smooth="yes"/>
      <point x="300" y="432"/>
      <point x="343" y="392"/>
      <point x="373" y="351" type="curve"/>
      <point x="373" y="118" type="line"/>
      <point x="339" y="74"/>
      <point x="295" y="42"/>
      <point x="233" y="42" type="curve" smooth="yes"/>
    </contour>
  </outline>
</glyph>
<glyph name="uni02BE" format="1">
  <advance width="177"/>
  <unicode hex="02BE"/>
  <note>
	uni02BE
  </note>
  <outline>
    <contour>
      <point x="106" y="467"/>
      <point x="126" y="498"/>
      <point x="126" y="545" type="curve" smooth="yes"/>
      <point x="126" y="591"/>
      <point x="104" y="621"/>
      <point x="53" y="621" type="curve"/>
      <point x="53" y="586" type="line"/>
      <point x="80" y="586"/>
      <point x="88" y="566"/>
      <point x="88" y="542" type="curve" smooth="yes"/>
      <point x="88" y="527"/>
      <point x="87" y="516"/>
      <point x="84" y="504" type="curve"/>
      <point x="75" y="502"/>
      <point x="62" y="502"/>
      <point x="51" y="502" type="curve"/>
      <point x="51" y="467" type="line"/>
    </contour>
  </outline>
</glyph>
<glyph name="uni02BF" format="1">
  <advance width="197"/>
  <unicode hex="02BF"/>
  <note>
	uni02BF
  </note>
  <outline>
    <contour>
      <point x="136" y="502" type="line"/>
      <point x="125" y="502"/>
      <point x="112" y="502"/>
      <point x="104" y="504" type="curve"/>
      <point x="100" y="516"/>
      <point x="99" y="527"/>
      <point x="99" y="542" type="curve" smooth="yes"/>
      <point x="99" y="566"/>
      <point x="108" y="586"/>
      <point x="134" y="586" type="curve"/>
      <point x="134" y="621" type="line"/>
      <point x="83" y="621"/>
      <point x="61" y="591"/>
      <point x="61" y="545" type="curve" smooth="yes"/>
      <point x="61" y="498"/>
      <point x="82" y="467"/>
      <point x="136" y="467" type="curve"/>
    </contour>
  </outline>
</glyph>
<glyph name="circumflex" format="1">
  <advance width="334"/>
  <unicode hex="02C6"/>
  <note>
	circumflex
  </note>
  <outline>
    <contour>
      <point x="165" y="571" type="line"/>
      <point x="170" y="571" type="line"/>
      <point x="263" y="473" type="line"/>
      <point x="293" y="480" type="line"/>
      <point x="192" y="612" type="line"/>
      <point x="143" y="612" type="line"/>
      <point x="41" y="480" type="line"/>
      <point x="71" y="473" type="line"/>
    </contour>
  </outline>
</glyph>
<glyph name="caron" format="1">
  <advance width="334"/>
  <unicode hex="02C7"/>
  <note>
	caron
  </note>
  <outline>
    <contour>
      <point x="192" y="473" type="line"/>
      <point x="293" y="605" type="line"/>
      <point x="263" y="612" type="line"/>
      <point x="170" y="514" type="line"/>
      <point x="165" y="514" type="line"/>
      <point x="71" y="612" type="line"/>
      <point x="41" y="605" type="line"/>
      <point x="143" y="473" type="line"/>
    </contour>
  </outline>
</glyph>
<glyph name="uni02C8" format="1">
  <advance width="165"/>
  <unicode hex="02C8"/>
  <note>
	uni02C8
  </note>
  <outline>
    <contour>
      <point x="104" y="472" type="line"/>
      <point x="104" y="675" type="line"/>
      <point x="61" y="675" type="line"/>
      <point x="61" y="472" type="line"/>
    </contour>
  </outline>
</glyph>
<glyph name="uni02CB" format="1">
  <advance width="247"/>
  <unicode hex="02CB"/>
  <note>
	uni02CB
  </note>
  <outline>
    <contour>
      <point x="187" y="479" type="line"/>
      <point x="119" y="600" type="line"/>
      <point x="57" y="594" type="line"/>
      <point x="155" y="474" type="line"/>
    </contour>
  </outline>
</glyph>
<glyph name="uni02CC" format="1">
  <advance width="205"/>
  <unicode hex="02CC"/>
  <note>
	uni02CC
  </note>
  <outline>
    <contour>
      <point x="124" y="-207" type="line"/>
      <point x="124" y="-4" type="line"/>
      <point x="81" y="-4" type="line"/>
      <point x="81" y="-207" type="line"/>
    </contour>
  </outline>
</glyph>
<glyph name="breve" format="1">
  <advance width="366"/>
  <unicode hex="02D8"/>
  <note>
	breve
  </note>
  <outline>
    <contour>
      <point x="260" y="505"/>
      <point x="294" y="549"/>
      <point x="305" y="605" type="curve"/>
      <point x="260" y="613" type="line"/>
      <point x="252" y="572"/>
      <point x="237" y="544"/>
      <point x="183" y="544" type="curve" smooth="yes"/>
      <point x="129" y="544"/>
      <point x="114" y="572"/>
      <point x="106" y="613" type="curve"/>
      <point x="61" y="605" type="line"/>
      <point x="72" y="549"/>
      <point x="106" y="505"/>
      <point x="183" y="505" type="curve" smooth="yes"/>
    </contour>
  </outline>
</glyph>
<glyph name="uni0302" format="1">
  <advance width="0"/>
  <unicode hex="0302"/>
  <note>
	uni0302
  </note>
  <outline>
    <contour>
      <point x="-238" y="571" type="line"/>
      <point x="-233" y="571" type="line"/>
      <point x="-140" y="473" type="line"/>
      <point x="-110" y="480" type="line"/>
      <point x="-211" y="612" type="line"/>
      <point x="-260" y="612" type="line"/>
      <point x="-362" y="480" type="line"/>
      <point x="-332" y="473" type="line"/>
    </contour>
  </outline>
</glyph>
<glyph name="uni0304" format="1">
  <advance width="0"/>
  <unicode hex="0304"/>
  <note>
	uni0304
  </note>
  <outline>
    <contour>
      <point x="-104" y="499" type="line"/>
      <point x="-104" y="540" type="line"/>
      <point x="-282" y="540" type="line"/>
      <point x="-282" y="499" type="line"/>
    </contour>
  </outline>
</glyph>
<glyph name="hookabovecomb" format="1">
  <advance width="0"/>
  <unicode hex="0309"/>
  <note>
	hookabovecomb
  </note>
  <outline>
    <contour>
      <point x="-172" y="502" type="line"/>
      <point x="-172" y="542" type="line"/>
      <point x="-120" y="544"/>
      <point x="-82" y="562"/>
      <point x="-82" y="616" type="curve" smooth="yes"/>
      <point x="-82" y="657"/>
      <point x="-105" y="689"/>
      <point x="-162" y="689" type="curve" smooth="yes"/>
      <point x="-188" y="689"/>
      <point x="-207" y="685"/>
      <point x="-231" y="676" type="curve"/>
      <point x="-221" y="645" type="line"/>
      <point x="-203" y="651"/>
      <point x="-186" y="653"/>
      <point x="-170" y="653" type="curve" smooth="yes"/>
      <point x="-135" y="653"/>
      <point x="-122" y="640"/>
      <point x="-122" y="615" type="curve" smooth="yes"/>
      <point x="-122" y="581"/>
      <point x="-145" y="574"/>
      <point x="-210" y="574" type="curve"/>
      <point x="-210" y="551" type="line"/>
      <point x="-199" y="502" type="line"/>
    </contour>
  </outline>
</glyph>
<glyph name="uni030A" format="1">
  <advance width="0"/>
  <unicode hex="030A"/>
  <note>
	uni030A
  </note>
  <outline>
    <contour>
      <point x="-136" y="449"/>
      <point x="-97" y="492"/>
      <point x="-97" y="541" type="curve" smooth="yes"/>
      <point x="-97" y="595"/>
      <point x="-129" y="624"/>
      <point x="-194" y="624" type="curve" smooth="yes"/>
      <point x="-266" y="624"/>
      <point x="-309" y="580"/>
      <point x="-309" y="531" type="curve" smooth="yes"/>
      <point x="-309" y="478"/>
      <point x="-274" y="449"/>
      <point x="-211" y="449" type="curve" smooth="yes"/>
    </contour>
    <contour>
      <point x="-251" y="481"/>
      <point x="-273" y="500"/>
      <point x="-273" y="533" type="curve" smooth="yes"/>
      <point x="-273" y="550"/>
      <point x="-271" y="563"/>
      <point x="-264" y="583" type="curve"/>
      <point x="-242" y="590"/>
      <point x="-223" y="592"/>
      <point x="-197" y="592" type="curve" smooth="yes"/>
      <point x="-154" y="592"/>
      <point x="-133" y="575"/>
      <point x="-133" y="539" type="curve" smooth="yes"/>
      <point x="-133" y="522"/>
      <point x="-136" y="507"/>
      <point x="-142" y="490" type="curve"/>
      <point x="-163" y="483"/>
      <point x="-183" y="481"/>
      <point x="-208" y="481" type="curve" smooth="yes"/>
    </contour>
  </outline>
</glyph>
<glyph name="uni0326" format="1">
  <advance width="0"/>
  <unicode hex="0326"/>
  <note>
	uni0326
  </note>
  <outline>
    <contour>
      <point x="145" y="-137" type="line"/>
      <point x="231" y="-34" type="line"/>
      <point x="164" y="-34" type="line"/>
      <point x="106" y="-137" type="line"/>
    </contour>
  </outline>
</glyph>
<glyph name="uni032E" format="1">
  <advance width="0"/>
  <unicode hex="032E"/>
  <note>
	uni032E
  </note>
  <outline>
    <contour>
      <point x="103" y="-111"/>
      <point x="118" y="-83"/>
      <point x="172" y="-83" type="curve" smooth="yes"/>
      <point x="226" y="-83"/>
      <point x="241" y="-111"/>
      <point x="249" y="-152" type="curve"/>
      <point x="294" y="-144" type="line"/>
      <point x="283" y="-88"/>
      <point x="249" y="-44"/>
      <point x="172" y="-44" type="curve" smooth="yes"/>
      <point x="95" y="-44"/>
      <point x="61" y="-88"/>
      <point x="50" y="-144" type="curve"/>
      <point x="95" y="-152" type="line"/>
    </contour>
  </outline>
</glyph>
<glyph name="uni0331" format="1">
  <advance width="0"/>
  <unicode hex="0331"/>
  <note>
	uni0331
  </note>
  <outline>
    <contour>
      <point x="-90" y="-105" type="line"/>
      <point x="-90" y="-63" type="line"/>
      <point x="-372" y="-63" type="line"/>
      <point x="-372" y="-105" type="line"/>
    </contour>
  </outline>
</glyph>
<glyph name="khoKhai-thai" format="1">
  <advance width="491"/>
  <unicode hex="0E02"/>
  <note>
	khoKhai-thai
  </note>
  <outline>
    <contour>
      <point x="361" y="-10"/>
      <point x="407" y="45"/>
      <point x="407" y="107" type="curve" smooth="yes"/>
      <point x="407" y="512" type="line"/>
      <point x="361" y="512" type="line"/>
      <point x="361" y="51" type="line"/>
      <point x="333" y="40"/>
      <point x="298" y="33"/>
      <point x="248" y="33" type="curve" smooth="yes"/>
      <point x="138" y="33"/>
      <point x="114" y="81"/>
      <point x="114" y="150" type="curve" smooth="yes"/>
      <point x="114" y="223" type="line" smooth="yes"/>
      <point x="114" y="307"/>
      <point x="196" y="340"/>
      <point x="196" y="423" type="curve" smooth="yes"/>
      <point x="196" y="468"/>
      <point x="178" y="512"/>
      <point x="109" y="512" type="curve" smooth="yes"/>
      <point x="61" y="512" type="line"/>
      <point x="61" y="470" type="line"/>
      <point x="100" y="470" type="line" smooth="yes"/>
      <point x="139" y="470"/>
      <point x="150" y="454"/>
      <point x="150" y="418" type="curve" smooth="yes"/>
      <point x="150" y="350"/>
      <point x="68" y="317"/>
      <point x="68" y="231" type="curve" smooth="yes"/>
      <point x="68" y="152" type="line" smooth="yes"/>
      <point x="68" y="65"/>
      <point x="104" y="-10"/>
      <point x="248" y="-10" type="curve" smooth="yes"/>
    </contour>
  </outline>
</glyph>
<glyph name="soSo-thai" format="1">
  <advance width="533"/>
  <unicode hex="0E0B"/>
  <note>
	soSo-thai
  </note>
  <outline>
    <contour>
      <point x="391" y="-10"/>
      <point x="449" y="45"/>
      <point x="449" y="107" type="curve" smooth="yes"/>
      <point x="449" y="256" type="line" smooth="yes"/>
      <point x="449" y="316"/>
      <point x="419" y="341"/>
      <point x="372" y="361" type="curve"/>
      <point x="372" y="365" type="line"/>
      <point x="409" y="377"/>
      <point x="432" y="399"/>
      <point x="444" y="428" type="curve" smooth="yes"/>
      <point x="454" y="451"/>
      <point x="461" y="479"/>
      <point x="464" y="510" type="curve"/>
      <point x="414" y="518" type="line"/>
      <point x="412" y="486"/>
      <point x="408" y="467"/>
      <point x="401" y="443" type="curve" smooth="yes"/>
      <point x="391" y="411"/>
      <point x="371" y="382"/>
      <point x="314" y="382" type="curve"/>
      <point x="314" y="343" type="line"/>
      <point x="367" y="330"/>
      <point x="403" y="311"/>
      <point x="403" y="249" type="curve" smooth="yes"/>
      <point x="403" y="53" type="line"/>
      <point x="374" y="42"/>
      <point x="332" y="33"/>
      <point x="279" y="33" type="curve" smooth="yes"/>
      <point x="170" y="33"/>
      <point x="137" y="81"/>
      <point x="137" y="150" type="curve" smooth="yes"/>
      <point x="137" y="215" type="line" smooth="yes"/>
      <point x="137" y="312"/>
      <point x="247" y="323"/>
      <point x="247" y="413" type="curve" smooth="yes"/>
      <point x="247" y="453"/>
      <point x="238" y="481"/>
      <point x="224" y="512" type="curve"/>
      <point x="179" y="512" type="line"/>
      <point x="172" y="473"/>
      <point x="160" y="450"/>
      <point x="120" y="450" type="curve" smooth="yes"/>
      <point x="116" y="450"/>
      <point x="111" y="450"/>
      <point x="107" y="451" type="curve"/>
      <point x="107" y="512" type="line"/>
      <point x="72" y="512" type="line"/>
      <point x="69" y="499"/>
      <point x="67" y="485"/>
      <point x="67" y="474" type="curve" smooth="yes"/>
      <point x="67" y="435"/>
      <point x="85" y="415"/>
      <point x="118" y="415" type="curve" smooth="yes"/>
      <point x="156" y="415"/>
      <point x="176" y="435"/>
      <point x="189" y="457" type="curve"/>
      <point x="196" y="457" type="line"/>
      <point x="201" y="442"/>
      <point x="203" y="431"/>
      <point x="203" y="411" type="curve" smooth="yes"/>
      <point x="203" y="343"/>
      <point x="91" y="326"/>
      <point x="91" y="226" type="curve" smooth="yes"/>
      <point x="91" y="152" type="line" smooth="yes"/>
      <point x="91" y="65"/>
      <point x="135" y="-10"/>
      <point x="279" y="-10" type="curve" smooth="yes"/>
    </contour>
  </outline>
</glyph>
<glyph name="choChoe-thai" format="1">
  <advance width="850"/>
  <unicode hex="0E0C"/>
  <note>
	choChoe-thai
  </note>
  <outline>
    <contour>
      <point x="199" y="-10"/>
      <point x="224" y="-5"/>
      <point x="242" y="1" type="curve"/>
      <point x="242" y="31" type="line"/>
      <point x="186" y="31" type="line" smooth="yes"/>
      <point x="147" y="31"/>
      <point x="141" y="48"/>
      <point x="148" y="85" type="curve" smooth="yes"/>
      <point x="185" y="290" type="line" smooth="yes"/>
      <point x="189" y="311"/>
      <point x="187" y="324"/>
      <point x="176" y="338" type="curve" smooth="yes"/>
      <point x="111" y="423" type="line"/>
      <point x="111" y="428" type="line"/>
      <point x="161" y="461"/>
      <point x="230" y="479"/>
      <point x="297" y="479" type="curve" smooth="yes"/>
      <point x="348" y="479"/>
      <point x="386" y="470"/>
      <point x="420" y="454" type="curve"/>
      <point x="420" y="0" type="line"/>
      <point x="461" y="0" type="line"/>
      <point x="465" y="69" type="line"/>
      <point x="473" y="69" type="line"/>
      <point x="526" y="12"/>
      <point x="584" y="-10"/>
      <point x="651" y="-10" type="curve" smooth="yes"/>
      <point x="726" y="-10"/>
      <point x="766" y="17"/>
      <point x="766" y="77" type="curve" smooth="yes"/>
      <point x="766" y="512" type="line"/>
      <point x="720" y="512" type="line"/>
      <point x="720" y="45" type="line"/>
      <point x="695" y="36"/>
      <point x="676" y="33"/>
      <point x="641" y="33" type="curve" smooth="yes"/>
      <point x="574" y="33"/>
      <point x="518" y="59"/>
      <point x="465" y="112" type="curve"/>
      <point x="465" y="415" type="line" smooth="yes"/>
      <point x="465" y="472"/>
      <point x="412" y="522"/>
      <point x="303" y="522" type="curve" smooth="yes"/>
      <point x="212" y="522"/>
      <point x="133" y="492"/>
      <point x="69" y="446" type="curve"/>
      <point x="69" y="412" type="line"/>
      <point x="143" y="312" type="line"/>
      <point x="105" y="82" type="line" smooth="yes"/>
      <point x="95" y="22"/>
      <point x="123" y="-10"/>
      <point x="175" y="-10" type="curve" smooth="yes"/>
    </contour>
  </outline>
</glyph>
<glyph name="yoYing-thai" format="1">
  <advance width="845"/>
  <unicode hex="0E0D"/>
  <note>
	yoYing-thai
  </note>
  <outline>
    <contour>
      <point x="666" y="-172"/>
      <point x="734" y="-132"/>
      <point x="734" y="-39" type="curve" smooth="yes"/>
      <point x="734" y="-30"/>
      <point x="733" y="-20"/>
      <point x="732" y="-10" type="curve"/>
      <point x="712" y="17" type="line"/>
      <point x="712" y="19" type="line"/>
      <point x="746" y="37"/>
      <point x="761" y="56"/>
      <point x="761" y="93" type="curve" smooth="yes"/>
      <point x="761" y="512" type="line"/>
      <point x="715" y="512" type="line"/>
      <point x="715" y="57" type="line"/>
      <point x="680" y="44"/>
      <point x="648" y="37"/>
      <point x="602" y="37" type="curve" smooth="yes"/>
      <point x="507" y="37"/>
      <point x="464" y="71"/>
      <point x="464" y="160" type="curve" smooth="yes"/>
      <point x="464" y="415" type="line" smooth="yes"/>
      <point x="464" y="470"/>
      <point x="414" y="522"/>
      <point x="303" y="522" type="curve" smooth="yes"/>
      <point x="212" y="522"/>
      <point x="133" y="492"/>
      <point x="69" y="446" type="curve"/>
      <point x="69" y="412" type="line"/>
      <point x="143" y="312" type="line"/>
      <point x="105" y="82" type="line" smooth="yes"/>
      <point x="95" y="22"/>
      <point x="123" y="-10"/>
      <point x="175" y="-10" type="curve" smooth="yes"/>
      <point x="200" y="-10"/>
      <point x="224" y="-5"/>
      <point x="243" y="1" type="curve"/>
      <point x="243" y="31" type="line"/>
      <point x="187" y="31" type="line" smooth="yes"/>
      <point x="148" y="31"/>
      <point x="142" y="48"/>
      <point x="149" y="85" type="curve" smooth="yes"/>
      <point x="185" y="290" type="line" smooth="yes"/>
      <point x="189" y="311"/>
      <point x="187" y="324"/>
      <point x="176" y="338" type="curve" smooth="yes"/>
      <point x="111" y="423" type="line"/>
      <point x="111" y="428" type="line"/>
      <point x="161" y="461"/>
      <point x="230" y="479"/>
      <point x="297" y="479" type="curve" smooth="yes"/>
      <point x="350" y="479"/>
      <point x="384" y="470"/>
      <point x="418" y="454" type="curve"/>
      <point x="418" y="146" type="line" smooth="yes"/>
      <point x="418" y="43"/>
      <point x="490" y="-6"/>
      <point x="600" y="-6" type="curve" smooth="yes"/>
      <point x="631" y="-6"/>
      <point x="654" y="-2"/>
      <point x="678" y="6" type="curve"/>
      <point x="690" y="-28"/>
      <point x="694" y="-78"/>
      <point x="688" y="-111" type="curve"/>
      <point x="659" y="-121"/>
      <point x="616" y="-130"/>
      <point x="577" y="-130" type="curve" smooth="yes"/>
      <point x="536" y="-130"/>
      <point x="498" y="-126"/>
      <point x="444" y="-112" type="curve"/>
      <point x="434" y="-153" type="line"/>
      <point x="490" y="-167"/>
      <point x="526" y="-172"/>
      <point x="575" y="-172" type="curve" smooth="yes"/>
    </contour>
  </outline>
</glyph>
<glyph name="doChada-thai" format="1">
  <advance width="568"/>
  <unicode hex="0E0E"/>
  <note>
	doChada-thai
  </note>
  <outline>
    <contour>
      <point x="458" y="-177"/>
      <point x="484" y="-143"/>
      <point x="484" y="-91" type="curve" smooth="yes"/>
      <point x="484" y="415" type="line" smooth="yes"/>
      <point x="484" y="470"/>
      <point x="426" y="522"/>
      <point x="316" y="522" type="curve" smooth="yes"/>
      <point x="227" y="522"/>
      <point x="160" y="492"/>
      <point x="97" y="446" type="curve"/>
      <point x="97" y="412" type="line"/>
      <point x="172" y="312" type="line"/>
      <point x="135" y="73" type="line" smooth="yes"/>
      <point x="130" y="42"/>
      <point x="122" y="31"/>
      <point x="91" y="31" type="curve" smooth="yes"/>
      <point x="51" y="31" type="line"/>
      <point x="51" y="-1" type="line"/>
      <point x="64" y="-6"/>
      <point x="85" y="-10"/>
      <point x="102" y="-10" type="curve" smooth="yes"/>
      <point x="147" y="-10"/>
      <point x="168" y="14"/>
      <point x="176" y="61" type="curve" smooth="yes"/>
      <point x="214" y="290" type="line" smooth="yes"/>
      <point x="217" y="311"/>
      <point x="216" y="324"/>
      <point x="205" y="338" type="curve" smooth="yes"/>
      <point x="138" y="423" type="line"/>
      <point x="138" y="428" type="line"/>
      <point x="188" y="462"/>
      <point x="244" y="479"/>
      <point x="309" y="479" type="curve" smooth="yes"/>
      <point x="363" y="479"/>
      <point x="404" y="468"/>
      <point x="438" y="450" type="curve"/>
      <point x="438" y="-147" type="line"/>
      <point x="430" y="-147" type="line"/>
      <point x="389" y="-132"/>
      <point x="348" y="-120"/>
      <point x="294" y="-120" type="curve" smooth="yes"/>
      <point x="242" y="-120"/>
      <point x="203" y="-125"/>
      <point x="143" y="-141" type="curve"/>
      <point x="156" y="-179" type="line"/>
      <point x="214" y="-165"/>
      <point x="248" y="-161"/>
      <point x="300" y="-161" type="curve" smooth="yes"/>
      <point x="341" y="-161"/>
      <point x="371" y="-168"/>
      <point x="404" y="-180" type="curve"/>
    </contour>
  </outline>
</glyph>
<glyph name="toPatak-thai" format="1">
  <advance width="568"/>
  <unicode hex="0E0F"/>
  <note>
	toPatak-thai
  </note>
  <outline>
    <contour>
      <point x="366" y="-188" type="line" smooth="yes"/>
      <point x="438" y="-188"/>
      <point x="484" y="-149"/>
      <point x="484" y="-60" type="curve" smooth="yes"/>
      <point x="484" y="415" type="line" smooth="yes"/>
      <point x="484" y="470"/>
      <point x="426" y="522"/>
      <point x="316" y="522" type="curve" smooth="yes"/>
      <point x="227" y="522"/>
      <point x="160" y="492"/>
      <point x="97" y="446" type="curve"/>
      <point x="97" y="412" type="line"/>
      <point x="172" y="312" type="line"/>
      <point x="135" y="73" type="line" smooth="yes"/>
      <point x="130" y="42"/>
      <point x="122" y="31"/>
      <point x="91" y="31" type="curve" smooth="yes"/>
      <point x="51" y="31" type="line"/>
      <point x="51" y="-1" type="line"/>
      <point x="64" y="-6"/>
      <point x="85" y="-10"/>
      <point x="102" y="-10" type="curve" smooth="yes"/>
      <point x="147" y="-10"/>
      <point x="168" y="14"/>
      <point x="176" y="61" type="curve" smooth="yes"/>
      <point x="214" y="290" type="line" smooth="yes"/>
      <point x="217" y="311"/>
      <point x="216" y="324"/>
      <point x="205" y="338" type="curve" smooth="yes"/>
      <point x="138" y="423" type="line"/>
      <point x="138" y="428" type="line"/>
      <point x="188" y="462"/>
      <point x="244" y="479"/>
      <point x="309" y="479" type="curve" smooth="yes"/>
      <point x="363" y="479"/>
      <point x="404" y="468"/>
      <point x="438" y="450" type="curve"/>
      <point x="438" y="-80" type="line" smooth="yes"/>
      <point x="438" y="-105"/>
      <point x="435" y="-128"/>
      <point x="430" y="-142" type="curve"/>
      <point x="413" y="-147"/>
      <point x="362" y="-150"/>
      <point x="339" y="-150" type="curve"/>
      <point x="310" y="-54" type="line"/>
      <point x="264" y="-54" type="line"/>
      <point x="286" y="-115" type="line"/>
      <point x="268" y="-126"/>
      <point x="235" y="-135"/>
      <point x="186" y="-135" type="curve" smooth="yes"/>
      <point x="165" y="-135"/>
      <point x="141" y="-131"/>
      <point x="119" y="-123" type="curve"/>
      <point x="106" y="-163" type="line"/>
      <point x="131" y="-173"/>
      <point x="156" y="-178"/>
      <point x="181" y="-178" type="curve" smooth="yes"/>
      <point x="239" y="-178"/>
      <point x="268" y="-165"/>
      <point x="294" y="-136" type="curve"/>
      <point x="309" y="-188" type="line"/>
    </contour>
  </outline>
</glyph>
<glyph name="toTao-thai" format="1">
  <advance width="571"/>
  <unicode hex="0E15"/>
  <note>
	toTao-thai
  </note>
  <outline>
    <contour>
      <point x="252" y="-5"/>
      <point x="272" y="-1"/>
      <point x="290" y="6" type="curve"/>
      <point x="280" y="44" type="line"/>
      <point x="260" y="39"/>
      <point x="243" y="37"/>
      <point x="226" y="37" type="curve" smooth="yes"/>
      <point x="145" y="37"/>
      <point x="111" y="97"/>
      <point x="111" y="252" type="curve" smooth="yes"/>
      <point x="111" y="386"/>
      <point x="129" y="479"/>
      <point x="206" y="479" type="curve" smooth="yes"/>
      <point x="247" y="479"/>
      <point x="266" y="452"/>
      <point x="281" y="418" type="curve"/>
      <point x="314" y="418" type="line"/>
      <point x="332" y="452"/>
      <point x="359" y="479"/>
      <point x="404" y="479" type="curve" smooth="yes"/>
      <point x="421" y="479"/>
      <point x="431" y="477"/>
      <point x="441" y="474" type="curve"/>
      <point x="441" y="0" type="line"/>
      <point x="487" y="0" type="line"/>
      <point x="487" y="503" type="line"/>
      <point x="471" y="514"/>
      <point x="445" y="522"/>
      <point x="413" y="522" type="curve" smooth="yes"/>
      <point x="364" y="522"/>
      <point x="324" y="496"/>
      <point x="300" y="454" type="curve"/>
      <point x="278" y="497"/>
      <point x="248" y="522"/>
      <point x="201" y="522" type="curve" smooth="yes"/>
      <point x="100" y="522"/>
      <point x="65" y="420"/>
      <point x="65" y="252" type="curve" smooth="yes"/>
      <point x="65" y="75"/>
      <point x="114" y="-5"/>
      <point x="224" y="-5" type="curve" smooth="yes"/>
    </contour>
  </outline>
</glyph>
<glyph name="foFa-thai" format="1">
  <advance width="597"/>
  <unicode hex="0E1D"/>
  <note>
	foFa-thai
  </note>
  <outline>
    <contour>
      <point x="251" y="-5"/>
      <point x="278" y="13"/>
      <point x="302" y="47" type="curve"/>
      <point x="309" y="47" type="line"/>
      <point x="342" y="10"/>
      <point x="376" y="-5"/>
      <point x="425" y="-5" type="curve" smooth="yes"/>
      <point x="464" y="-5"/>
      <point x="492" y="5"/>
      <point x="513" y="21" type="curve"/>
      <point x="513" y="696" type="line"/>
      <point x="468" y="696" type="line"/>
      <point x="468" y="45" type="line"/>
      <point x="450" y="39"/>
      <point x="436" y="38"/>
      <point x="414" y="38" type="curve" smooth="yes"/>
      <point x="381" y="38"/>
      <point x="350" y="49"/>
      <point x="326" y="75" type="curve"/>
      <point x="326" y="222" type="line"/>
      <point x="283" y="222" type="line"/>
      <point x="283" y="75" type="line"/>
      <point x="267" y="50"/>
      <point x="242" y="37"/>
      <point x="207" y="37" type="curve" smooth="yes"/>
      <point x="136" y="37"/>
      <point x="111" y="96"/>
      <point x="111" y="253" type="curve" smooth="yes"/>
      <point x="111" y="419"/>
      <point x="133" y="479"/>
      <point x="212" y="479" type="curve" smooth="yes"/>
      <point x="230" y="479"/>
      <point x="245" y="478"/>
      <point x="265" y="473" type="curve"/>
      <point x="275" y="511" type="line"/>
      <point x="255" y="518"/>
      <point x="238" y="522"/>
      <point x="210" y="522" type="curve" smooth="yes"/>
      <point x="105" y="522"/>
      <point x="65" y="452"/>
      <point x="65" y="253" type="curve" smooth="yes"/>
      <point x="65" y="72"/>
      <point x="108" y="-5"/>
      <point x="202" y="-5" type="curve" smooth="yes"/>
    </contour>
    <contour>
      <point x="403" y="300" type="move" name="top"/>
    </contour>
    <contour>
      <point x="513" y="0" type="move" name="bottom"/>
    </contour>
  </outline>
</glyph>
<glyph name="roRua-thai" format="1">
  <advance width="459"/>
  <unicode hex="0E23"/>
  <note>
	roRua-thai
  </note>
  <outline>
    <contour>
      <point x="357" y="-9"/>
      <point x="401" y="63"/>
      <point x="401" y="148" type="curve" smooth="yes"/>
      <point x="401" y="233"/>
      <point x="340" y="265"/>
      <point x="246" y="280" type="curve" smooth="yes"/>
      <point x="145" y="297"/>
      <point x="108" y="309"/>
      <point x="108" y="383" type="curve" smooth="yes"/>
      <point x="108" y="414"/>
      <point x="115" y="438"/>
      <point x="132" y="464" type="curve"/>
      <point x="162" y="475"/>
      <point x="200" y="479"/>
      <point x="227" y="479" type="curve" smooth="yes"/>
      <point x="283" y="479"/>
      <point x="319" y="473"/>
      <point x="358" y="459" type="curve"/>
      <point x="377" y="499" type="line"/>
      <point x="334" y="516"/>
      <point x="296" y="522"/>
      <point x="239" y="522" type="curve" smooth="yes"/>
      <point x="111" y="522"/>
      <point x="62" y="449"/>
      <point x="62" y="365" type="curve" smooth="yes"/>
      <point x="62" y="291"/>
      <point x="123" y="249"/>
      <point x="221" y="236" type="curve" smooth="yes"/>
      <point x="322" y="221"/>
      <point x="355" y="195"/>
      <point x="355" y="134" type="curve" smooth="yes"/>
      <point x="355" y="107"/>
      <point x="350" y="77"/>
      <point x="337" y="55" type="curve"/>
      <point x="305" y="41"/>
      <point x="270" y="33"/>
      <point x="221" y="33" type="curve" smooth="yes"/>
      <point x="155" y="33"/>
      <point x="116" y="45"/>
      <point x="70" y="67" type="curve"/>
      <point x="54" y="27" type="line"/>
      <point x="97" y="2"/>
      <point x="150" y="-9"/>
      <point x="217" y="-9" type="curve" smooth="yes"/>
    </contour>
  </outline>
</glyph>
<glyph name="woWaen-thai" format="1">
  <advance width="479"/>
  <unicode hex="0E27"/>
  <note>
	woWaen-thai
  </note>
  <outline>
    <contour>
      <point x="371" y="-10"/>
      <point x="416" y="95"/>
      <point x="416" y="251" type="curve" smooth="yes"/>
      <point x="416" y="419"/>
      <point x="382" y="522"/>
      <point x="230" y="522" type="curve" smooth="yes"/>
      <point x="164" y="522"/>
      <point x="102" y="503"/>
      <point x="67" y="479" type="curve"/>
      <point x="67" y="449" type="line" smooth="yes"/>
      <point x="67" y="423"/>
      <point x="71" y="399"/>
      <point x="76" y="382" type="curve"/>
      <point x="106" y="382" type="line"/>
      <point x="113" y="458" type="line"/>
      <point x="144" y="470"/>
      <point x="180" y="479"/>
      <point x="222" y="479" type="curve" smooth="yes"/>
      <point x="353" y="479"/>
      <point x="370" y="403"/>
      <point x="370" y="251" type="curve" smooth="yes"/>
      <point x="370" y="116"/>
      <point x="340" y="33"/>
      <point x="222" y="33" type="curve" smooth="yes"/>
      <point x="166" y="33"/>
      <point x="125" y="48"/>
      <point x="89" y="73" type="curve"/>
      <point x="66" y="37" type="line"/>
      <point x="112" y="5"/>
      <point x="160" y="-10"/>
      <point x="225" y="-10" type="curve" smooth="yes"/>
    </contour>
  </outline>
</glyph>
